<svg width="22" height="18" viewBox="0 0 22 18" fill="none" xmlns="http://www.w3.org/2000/svg">
<path d="M21.0147 4.165L18.6093 2.335C18.4458 2.23139 18.2681 2.15157 18.0816 2.098C17.8959 2.03864 17.7025 2.00565 17.5073 2H10.5837L11.395 7H17.5073C17.6735 7 17.8811 6.963 18.0806 6.902C18.2801 6.841 18.4726 6.757 18.6083 6.666L21.0137 4.834C21.1505 4.743 21.2183 4.622 21.2183 4.5C21.2183 4.378 21.1505 4.257 21.0147 4.165ZM9.57089 0H8.55807C8.42376 0 8.29495 0.0526784 8.19998 0.146447C8.10501 0.240215 8.05166 0.367392 8.05166 0.5V4H4.67289C4.50476 4 4.29814 4.037 4.09862 4.099C3.89808 4.159 3.70666 4.242 3.57094 4.335L1.16549 6.165C1.02876 6.256 0.961914 6.378 0.961914 6.5C0.961914 6.621 1.02876 6.742 1.16549 6.835L3.57094 8.667C3.70666 8.758 3.89808 8.842 4.09862 8.902C4.29814 8.963 4.50476 9 4.67289 9H8.05166V17.5C8.05166 17.6326 8.10501 17.7598 8.19998 17.8536C8.29495 17.9473 8.42376 18 8.55807 18H9.57089C9.7052 18 9.834 17.9473 9.92898 17.8536C10.0239 17.7598 10.0773 17.6326 10.0773 17.5V0.5C10.0773 0.367392 10.0239 0.240215 9.92898 0.146447C9.834 0.0526784 9.7052 0 9.57089 0Z" fill="#F04E29"/>
</svg>
