<?xml version="1.0" encoding="UTF-8"?>
<!DOCTYPE svg PUBLIC "-//W3C//DTD SVG 1.1//EN" "http://www.w3.org/Graphics/SVG/1.1/DTD/svg11.dtd">
<svg xmlns="http://www.w3.org/2000/svg" version="1.1" width="100px" height="100px" style="shape-rendering:geometricPrecision; text-rendering:geometricPrecision; image-rendering:optimizeQuality; fill-rule:evenodd; clip-rule:evenodd" xmlns:xlink="http://www.w3.org/1999/xlink">
<g><path style="opacity:0.893" fill="#007f00" d="M 14.5,24.5 C 35.1694,24.3334 55.836,24.5 76.5,25C 82.1982,28.568 84.5315,33.7346 83.5,40.5C 90.3277,39.665 92.9944,42.665 91.5,49.5C 93.0493,56.283 90.3826,59.283 83.5,58.5C 84.5315,65.2654 82.1982,70.432 76.5,74C 55.8333,74.6667 35.1667,74.6667 14.5,74C 11.6667,72.5 9.5,70.3333 8,67.5C 7.33333,55.5 7.33333,43.5 8,31.5C 9.69406,28.6424 11.8607,26.309 14.5,24.5 Z M 17.5,31.5 C 36.1696,31.3334 54.8363,31.5001 73.5,32C 74.7014,32.9025 75.5348,34.0692 76,35.5C 76.9487,45.5998 76.6154,55.5998 75,65.5C 74.5,66 74,66.5 73.5,67C 54.4564,67.8203 35.4564,67.6537 16.5,66.5C 15.8076,65.9747 15.3076,65.3081 15,64.5C 14.3333,54.5 14.3333,44.5 15,34.5C 15.6979,33.3094 16.5313,32.3094 17.5,31.5 Z"/></g>
<g><path style="opacity:0.946" fill="#008000" d="M 22.5,36.5 C 37.837,36.3334 53.1703,36.5001 68.5,37C 69,37.5 69.5,38 70,38.5C 70.6667,45.8333 70.6667,53.1667 70,60.5C 69.5,61 69,61.5 68.5,62C 52.7888,62.8175 37.1221,62.6508 21.5,61.5C 20.8076,60.9747 20.3076,60.3081 20,59.5C 19.3333,52.8333 19.3333,46.1667 20,39.5C 20.6979,38.3094 21.5313,37.3094 22.5,36.5 Z"/></g>
</svg>
