<svg width="25" height="25" viewBox="0 0 25 25" fill="none" xmlns="http://www.w3.org/2000/svg">
<path d="M22.7531 0.826385C22.5382 0.517742 22.2488 0.292033 21.8856 0.148852C21.6543 0.0498296 21.4118 0.000231496 21.1584 0.000231496V0H3.84167C3.58835 0 3.34615 0.0495981 3.11477 0.148621C2.75132 0.291686 2.46206 0.517684 2.24729 0.826153C2.03258 1.13462 1.92505 1.47596 1.92505 1.85058V23.1494C1.92505 23.5241 2.03258 23.8653 2.24729 24.1741C2.46206 24.4825 2.75132 24.7084 3.11477 24.8514C3.34592 24.9505 3.58835 24.9999 3.84167 24.9999C4.35958 24.9999 4.8165 24.8181 5.21317 24.4549L12.5001 17.4485L19.787 24.4551C20.1726 24.807 20.6298 24.9833 21.1584 24.9833C21.4338 24.9833 21.6762 24.9395 21.8855 24.8514C22.2488 24.7084 22.5381 24.4824 22.753 24.1736C22.9677 23.8653 23.075 23.524 23.075 23.1493V1.85081C23.0751 1.4762 22.9676 1.13485 22.7531 0.826385ZM20.9601 22.6368L13.9707 15.9283L12.5001 14.5241L11.0296 15.9283L4.04023 22.6368V2.11524H20.9601V22.6368Z" fill="#E69023"/>
</svg>
