<svg width="23" height="22" viewBox="0 0 23 22" fill="none" xmlns="http://www.w3.org/2000/svg">
<g clip-path="url(#clip0_1302_2689)">
<path d="M20.6044 3.66675H18.528V4.88897H20.4447V18.3334H2.55577V4.88897H4.47244V3.66675H2.39605C2.2467 3.66914 2.09931 3.69964 1.96229 3.75653C1.82527 3.81341 1.70131 3.89555 1.59748 3.99827C1.49365 4.10099 1.412 4.22226 1.35718 4.35517C1.30237 4.48807 1.27546 4.63 1.278 4.77286V18.4495C1.27546 18.5924 1.30237 18.7343 1.35718 18.8672C1.412 19.0001 1.49365 19.1214 1.59748 19.2241C1.70131 19.3268 1.82527 19.409 1.96229 19.4659C2.09931 19.5227 2.2467 19.5532 2.39605 19.5556H20.6044C20.7537 19.5532 20.9011 19.5227 21.0381 19.4659C21.1752 19.409 21.2991 19.3268 21.403 19.2241C21.5068 19.1214 21.5884 19.0001 21.6433 18.8672C21.6981 18.7343 21.725 18.5924 21.7224 18.4495V4.77286C21.725 4.63 21.6981 4.48807 21.6433 4.35517C21.5884 4.22226 21.5068 4.10099 21.403 3.99827C21.2991 3.89555 21.1752 3.81341 21.0381 3.75653C20.9011 3.69964 20.7537 3.66914 20.6044 3.66675Z" fill="#F04E29"/>
<path d="M5.11133 8.55566H6.38911V9.77789H5.11133V8.55566Z" fill="#F04E29"/>
<path d="M8.94434 8.55566H10.2221V9.77789H8.94434V8.55566Z" fill="#F04E29"/>
<path d="M12.7778 8.55566H14.0556V9.77789H12.7778V8.55566Z" fill="#F04E29"/>
<path d="M16.6113 8.55566H17.8891V9.77789H16.6113V8.55566Z" fill="#F04E29"/>
<path d="M5.11133 11.6111H6.38911V12.8333H5.11133V11.6111Z" fill="#F04E29"/>
<path d="M8.94434 11.6111H10.2221V12.8333H8.94434V11.6111Z" fill="#F04E29"/>
<path d="M12.7778 11.6111H14.0556V12.8333H12.7778V11.6111Z" fill="#F04E29"/>
<path d="M16.6113 11.6111H17.8891V12.8333H16.6113V11.6111Z" fill="#F04E29"/>
<path d="M5.11133 14.6667H6.38911V15.889H5.11133V14.6667Z" fill="#F04E29"/>
<path d="M8.94434 14.6667H10.2221V15.889H8.94434V14.6667Z" fill="#F04E29"/>
<path d="M12.7778 14.6667H14.0556V15.889H12.7778V14.6667Z" fill="#F04E29"/>
<path d="M16.6113 14.6667H17.8891V15.889H16.6113V14.6667Z" fill="#F04E29"/>
<path d="M6.38889 6.11106C6.55833 6.11106 6.72084 6.04667 6.84065 5.93207C6.96047 5.81746 7.02778 5.66202 7.02778 5.49995V1.83328C7.02778 1.6712 6.96047 1.51576 6.84065 1.40116C6.72084 1.28655 6.55833 1.22217 6.38889 1.22217C6.21945 1.22217 6.05694 1.28655 5.93713 1.40116C5.81731 1.51576 5.75 1.6712 5.75 1.83328V5.49995C5.75 5.66202 5.81731 5.81746 5.93713 5.93207C6.05694 6.04667 6.21945 6.11106 6.38889 6.11106Z" fill="#F04E29"/>
<path d="M16.6111 6.11106C16.7805 6.11106 16.943 6.04667 17.0628 5.93207C17.1826 5.81746 17.2499 5.66202 17.2499 5.49995V1.83328C17.2499 1.6712 17.1826 1.51576 17.0628 1.40116C16.943 1.28655 16.7805 1.22217 16.6111 1.22217C16.4416 1.22217 16.2791 1.28655 16.1593 1.40116C16.0395 1.51576 15.9722 1.6712 15.9722 1.83328V5.49995C15.9722 5.66202 16.0395 5.81746 16.1593 5.93207C16.2791 6.04667 16.4416 6.11106 16.6111 6.11106Z" fill="#F04E29"/>
<path d="M8.30566 3.66675H14.6946V4.88897H8.30566V3.66675Z" fill="#F04E29"/>
</g>
<defs>
<clipPath id="clip0_1302_2689">
<rect width="23" height="22" fill="white"/>
</clipPath>
</defs>
</svg>
