<svg width="10" height="12" viewBox="0 0 10 12" fill="none" xmlns="http://www.w3.org/2000/svg">
<path d="M8.92857 1.60887H7.85714V0.458371C7.85714 0.312346 7.73661 0.192871 7.58929 0.192871H6.69643C6.54911 0.192871 6.42857 0.312346 6.42857 0.458371V1.60887H3.57143V0.458371C3.57143 0.312346 3.45089 0.192871 3.30357 0.192871H2.41071C2.26339 0.192871 2.14286 0.312346 2.14286 0.458371V1.60887H1.07143C0.479911 1.60887 0 2.08456 0 2.67087V10.4589C0 11.0452 0.479911 11.5209 1.07143 11.5209H8.92857C9.52009 11.5209 10 11.0452 10 10.4589V2.67087C10 2.08456 9.52009 1.60887 8.92857 1.60887ZM8.79464 10.4589H1.20536C1.1317 10.4589 1.07143 10.3991 1.07143 10.3261V3.73288H8.92857V10.3261C8.92857 10.3991 8.8683 10.4589 8.79464 10.4589Z" fill="#FF9D6E"/>
</svg>
