<svg width="18" height="16" viewBox="0 0 18 16" fill="none" xmlns="http://www.w3.org/2000/svg">
<path d="M0.910156 13.1406V8.4475C0.910156 7.94963 1.09986 7.47215 1.43753 7.1201C1.9824 6.55204 2.71073 5.93218 2.71073 5.14505V3.75444C2.71073 2.7587 3.09013 1.80375 3.76548 1.09965C4.44082 0.395556 5.35678 0 6.31187 0H11.7136C12.6687 0 13.5846 0.395556 14.26 1.09965C14.9353 1.80375 15.3147 2.7587 15.3147 3.75444V5.14505C15.3147 5.93218 16.043 6.55204 16.5879 7.1201C16.9256 7.47215 17.1153 7.94963 17.1153 8.4475V13.1406C17.1153 13.6384 16.9256 14.1159 16.5879 14.4679C16.2502 14.82 15.7923 15.0178 15.3147 15.0178C14.8372 15.0178 14.3792 14.82 14.0415 14.4679C13.482 13.8846 12.8589 13.1406 12.0506 13.1406H5.97485C5.16655 13.1406 4.54344 13.8846 3.98392 14.4679C3.64625 14.82 3.18827 15.0178 2.71073 15.0178C2.23319 15.0178 1.7752 14.82 1.43753 14.4679C1.09986 14.1159 0.910156 13.6384 0.910156 13.1406ZM6.31187 1.87722C5.83432 1.87722 5.37634 2.075 5.03867 2.42705C4.701 2.77909 4.5113 3.25657 4.5113 3.75444C4.5113 5.30959 5.77199 6.57028 7.32713 6.57028H10.6983C12.2535 6.57028 13.5141 5.30959 13.5141 3.75444C13.5141 3.25657 13.3244 2.77909 12.9868 2.42705C12.6491 2.075 12.1911 1.87722 11.7136 1.87722H6.31187ZM3.61101 10.3247C3.84978 10.3247 4.07877 10.2258 4.24761 10.0498C4.41644 9.87378 4.5113 9.63504 4.5113 9.38611C4.5113 9.13717 4.41644 8.89843 4.24761 8.72241C4.07877 8.54639 3.84978 8.4475 3.61101 8.4475C3.37224 8.4475 3.14325 8.54639 2.97441 8.72241C2.80558 8.89843 2.71073 9.13717 2.71073 9.38611C2.71073 9.63504 2.80558 9.87378 2.97441 10.0498C3.14325 10.2258 3.37224 10.3247 3.61101 10.3247ZM14.4144 10.3247C14.6532 10.3247 14.8822 10.2258 15.051 10.0498C15.2199 9.87378 15.3147 9.63504 15.3147 9.38611C15.3147 9.13717 15.2199 8.89843 15.051 8.72241C14.8822 8.54639 14.6532 8.4475 14.4144 8.4475C14.1757 8.4475 13.9467 8.54639 13.7778 8.72241C13.609 8.89843 13.5141 9.13717 13.5141 9.38611C13.5141 9.63504 13.609 9.87378 13.7778 10.0498C13.9467 10.2258 14.1757 10.3247 14.4144 10.3247Z" fill="#F04E29"/>
</svg>
