<svg width="31" height="32" viewBox="0 0 31 32" fill="none" xmlns="http://www.w3.org/2000/svg">
<g clip-path="url(#clip0_260_1192)">
<path fill-rule="evenodd" clip-rule="evenodd" d="M20.3615 5.33334C21.081 5.33337 21.7863 5.54019 22.3984 5.93064C23.0105 6.32108 23.5052 6.87973 23.8271 7.54401L25.6173 11.2387C25.9325 11.1053 26.2425 10.9613 26.5473 10.8067C26.8539 10.6486 27.2088 10.6227 27.5339 10.7348C27.8589 10.8468 28.1276 11.0875 28.2807 11.404C28.4338 11.7205 28.4589 12.0868 28.3504 12.4224C28.2419 12.758 28.0087 13.0353 27.7021 13.1933C27.3916 13.336 27.0794 13.4747 26.7656 13.6093L28.0069 16.1733C28.2763 16.7293 28.4165 17.3424 28.4163 17.964V21.3333C28.4171 21.8962 28.3025 22.4529 28.0798 22.9668C27.8572 23.4807 27.5317 23.94 27.1247 24.3147V26C27.1247 26.5304 26.9205 27.0391 26.5572 27.4142C26.1938 27.7893 25.701 28 25.1872 28C24.6733 28 24.1805 27.7893 23.8172 27.4142C23.4538 27.0391 23.2497 26.5304 23.2497 26V25.3333H7.74967V26C7.74967 26.5304 7.54555 27.0391 7.18219 27.4142C6.81884 27.7893 6.32603 28 5.81217 28C5.29832 28 4.80551 27.7893 4.44216 27.4142C4.0788 27.0391 3.87467 26.5304 3.87467 26V24.3147C3.08159 23.5813 2.58301 22.5173 2.58301 21.3333V17.9627C2.58325 17.342 2.72343 16.7298 2.99247 16.1747L4.22342 13.6307C3.91213 13.4947 3.60342 13.3507 3.29988 13.1947C2.99483 13.0346 2.76295 12.7571 2.65422 12.4221C2.54549 12.0872 2.56863 11.7215 2.71863 11.404C2.7944 11.2472 2.89935 11.1074 3.02749 10.9926C3.15563 10.8777 3.30444 10.79 3.46542 10.7345C3.62641 10.6791 3.7964 10.6569 3.96569 10.6693C4.13498 10.6816 4.30025 10.7283 4.45205 10.8067C4.75688 10.9627 5.06817 11.1053 5.38205 11.2387L7.1723 7.54534C7.49399 6.88082 7.98859 6.32189 8.60069 5.9312C9.21278 5.54051 9.91818 5.33349 10.6378 5.33334H20.3615ZM9.68717 17.3333C9.17332 17.3333 8.68051 17.5441 8.31716 17.9191C7.9538 18.2942 7.74967 18.8029 7.74967 19.3333C7.74967 19.8638 7.9538 20.3725 8.31716 20.7476C8.68051 21.1226 9.17332 21.3333 9.68717 21.3333C10.201 21.3333 10.6938 21.1226 11.0572 20.7476C11.4205 20.3725 11.6247 19.8638 11.6247 19.3333C11.6247 18.8029 11.4205 18.2942 11.0572 17.9191C10.6938 17.5441 10.201 17.3333 9.68717 17.3333ZM21.3122 17.3333C20.7983 17.3333 20.3055 17.5441 19.9422 17.9191C19.5788 18.2942 19.3747 18.8029 19.3747 19.3333C19.3747 19.8638 19.5788 20.3725 19.9422 20.7476C20.3055 21.1226 20.7983 21.3333 21.3122 21.3333C21.826 21.3333 22.3188 21.1226 22.6822 20.7476C23.0455 20.3725 23.2497 19.8638 23.2497 19.3333C23.2497 18.8029 23.0455 18.2942 22.6822 17.9191C22.3188 17.5441 21.826 17.3333 21.3122 17.3333ZM20.3615 8.00001H10.6378C10.4252 7.99998 10.2159 8.05411 10.0285 8.15762C9.84099 8.26112 9.68117 8.41079 9.56317 8.59334L9.48309 8.73734L7.84267 12.1213C9.84218 12.74 12.5366 13.3333 15.4997 13.3333C18.2664 13.3333 20.7968 12.816 22.7459 12.244L23.1554 12.1213L21.5163 8.73734C21.4212 8.5411 21.2807 8.3721 21.1072 8.24534C20.9337 8.11858 20.7326 8.03798 20.5217 8.01068L20.3628 8.00001H20.3615Z" fill="black"/>
</g>
<defs>
<clipPath id="clip0_260_1192">
<rect width="31" height="32" fill="white"/>
</clipPath>
</defs>
</svg>
