<svg width="15" height="16" viewBox="0 0 15 16" fill="none" xmlns="http://www.w3.org/2000/svg">
<path d="M14.7184 11.3216C14.0859 10.6728 12.9026 9.69687 12.9026 6.5C12.9026 4.07188 11.1192 2.12812 8.71447 1.65125V1C8.71447 0.447812 8.2457 0 7.6676 0C7.0895 0 6.62074 0.447812 6.62074 1V1.65125C4.21603 2.12812 2.43264 4.07188 2.43264 6.5C2.43264 9.69687 1.24927 10.6728 0.616831 11.3216C0.420422 11.5231 0.333347 11.7641 0.334984 12C0.338584 12.5125 0.759883 13 1.38577 13H13.9494C14.5753 13 14.9969 12.5125 15.0002 12C15.0019 11.7641 14.9148 11.5228 14.7184 11.3216ZM2.54557 11.5C3.24021 10.6259 3.99966 9.17719 4.00326 6.51813C4.00326 6.51188 4.00129 6.50625 4.00129 6.5C4.00129 4.56687 5.64262 3 7.6676 3C9.69258 3 11.3339 4.56687 11.3339 6.5C11.3339 6.50625 11.3319 6.51188 11.3319 6.51813C11.3356 9.1775 12.095 10.6263 12.7896 11.5H2.54557ZM7.6676 16C8.8238 16 9.76166 15.1047 9.76166 14H5.57355C5.57355 15.1047 6.51141 16 7.6676 16Z" fill="#F04E29"/>
</svg>
