<svg width="19" height="19" viewBox="0 0 19 19" fill="none" xmlns="http://www.w3.org/2000/svg">
<g clip-path="url(#clip0_377_776)">
<path fill-rule="evenodd" clip-rule="evenodd" d="M9.20316 16.8718C5.00348 16.8718 1.53418 13.4024 1.53418 9.20277C1.53418 5.00309 4.99759 1.53378 9.19727 1.53378C13.397 1.53378 16.8721 5.00309 16.8721 9.20277C16.8721 13.4024 13.4028 16.8718 9.20316 16.8718ZM8.26069 13.0549C8.47863 13.0549 8.66711 12.9548 8.80848 12.7369L12.7667 6.53453C12.855 6.40494 12.9316 6.24591 12.9316 6.10454C12.9316 5.79237 12.6547 5.59799 12.3661 5.59799C12.1953 5.59799 12.0245 5.69812 11.8949 5.89839L8.23124 11.7238L6.2816 9.27934C6.12845 9.08496 5.96942 9.01428 5.78094 9.01428C5.49232 9.01428 5.25082 9.244 5.25082 9.55618C5.25082 9.70343 5.30972 9.86246 5.40986 9.98616L7.68346 12.7428C7.86605 12.9666 8.04276 13.0549 8.26069 13.0549Z" fill="#F04E29"/>
</g>
<defs>
<clipPath id="clip0_377_776">
<rect width="15.338" height="15.338" fill="white" transform="translate(1.53418 1.53378)"/>
</clipPath>
</defs>
</svg>
