<svg width="11" height="11" viewBox="0 0 11 11" fill="none" xmlns="http://www.w3.org/2000/svg">
<path d="M5.5 0C2.46169 0 0 2.46169 0 5.5C0 8.53831 2.46169 11 5.5 11C8.53831 11 11 8.53831 11 5.5C11 2.46169 8.53831 0 5.5 0ZM5.5 9.93548C3.0494 9.93548 1.06452 7.9506 1.06452 5.5C1.06452 3.0494 3.0494 1.06452 5.5 1.06452C7.9506 1.06452 9.93548 3.0494 9.93548 5.5C9.93548 7.9506 7.9506 9.93548 5.5 9.93548ZM6.87056 7.62016L4.9877 6.25181C4.91895 6.20081 4.87903 6.12097 4.87903 6.03669V2.39516C4.87903 2.24879 4.99879 2.12903 5.14516 2.12903H5.85484C6.00121 2.12903 6.12097 2.24879 6.12097 2.39516V5.5377L7.60242 6.61552C7.72218 6.70202 7.74657 6.86835 7.66008 6.9881L7.24314 7.5625C7.15665 7.68004 6.99032 7.70665 6.87056 7.62016Z" fill="#FF9D6E"/>
<path d="M5.5 0C2.46169 0 0 2.46169 0 5.5C0 8.53831 2.46169 11 5.5 11C8.53831 11 11 8.53831 11 5.5C11 2.46169 8.53831 0 5.5 0ZM5.5 9.93548C3.0494 9.93548 1.06452 7.9506 1.06452 5.5C1.06452 3.0494 3.0494 1.06452 5.5 1.06452C7.9506 1.06452 9.93548 3.0494 9.93548 5.5C9.93548 7.9506 7.9506 9.93548 5.5 9.93548ZM6.87056 7.62016L4.9877 6.25181C4.91895 6.20081 4.87903 6.12097 4.87903 6.03669V2.39516C4.87903 2.24879 4.99879 2.12903 5.14516 2.12903H5.85484C6.00121 2.12903 6.12097 2.24879 6.12097 2.39516V5.5377L7.60242 6.61552C7.72218 6.70202 7.74657 6.86835 7.66008 6.9881L7.24314 7.5625C7.15665 7.68004 6.99032 7.70665 6.87056 7.62016Z" fill="#FF9D6E"/>
</svg>
