<svg width="14" height="15" viewBox="0 0 14 15" fill="none" xmlns="http://www.w3.org/2000/svg">
<path fill-rule="evenodd" clip-rule="evenodd" d="M9.37186 4.9589C9.54271 5.14196 9.54271 5.43875 9.37186 5.62181L5.24707 10.0412C5.07622 10.2243 4.79921 10.2243 4.62835 10.0412C4.4575 9.85817 4.4575 9.56137 4.62835 9.37832L8.75314 4.9589C8.924 4.77584 9.201 4.77584 9.37186 4.9589Z" fill="white"/>
<path fill-rule="evenodd" clip-rule="evenodd" d="M9.37179 10.0412C9.20094 10.2242 8.92393 10.2242 8.75307 10.0412L4.62829 5.62176C4.45743 5.4387 4.45743 5.1419 4.62829 4.95884C4.79914 4.77578 5.07615 4.77578 5.247 4.95884L9.37179 9.37826C9.54265 9.56132 9.54265 9.85811 9.37179 10.0412Z" fill="white"/>
</svg>
