<svg width="24" height="24" viewBox="0 0 24 24" fill="none" xmlns="http://www.w3.org/2000/svg">
<path fill-rule="evenodd" clip-rule="evenodd" d="M16.0659 7.93414C16.3587 8.22703 16.3587 8.70191 16.0659 8.9948L8.99478 16.0659C8.70189 16.3588 8.22702 16.3588 7.93412 16.0659C7.64123 15.773 7.64123 15.2981 7.93412 15.0052L15.0052 7.93414C15.2981 7.64125 15.773 7.64125 16.0659 7.93414Z" fill="white"/>
<path fill-rule="evenodd" clip-rule="evenodd" d="M16.0659 16.066C15.773 16.3589 15.2981 16.3589 15.0052 16.066L7.93413 8.99491C7.64124 8.70201 7.64124 8.22714 7.93413 7.93425C8.22703 7.64135 8.7019 7.64135 8.99479 7.93425L16.0659 15.0053C16.3588 15.2982 16.3588 15.7731 16.0659 16.066Z" fill="white"/>
</svg>
