<svg width="20" height="18" viewBox="0 0 20 18" fill="none" xmlns="http://www.w3.org/2000/svg">
<path d="M4.75 4.5L7.75 6.75L4.75 9M9.25 9H12.25M3.25 17.25H16.75C17.3467 17.25 17.919 17.0129 18.341 16.591C18.7629 16.169 19 15.5967 19 15V3C19 2.40326 18.7629 1.83097 18.341 1.40901C17.919 0.987053 17.3467 0.75 16.75 0.75H3.25C2.65326 0.75 2.08097 0.987053 1.65901 1.40901C1.23705 1.83097 1 2.40326 1 3V15C1 15.5967 1.23705 16.169 1.65901 16.591C2.08097 17.0129 2.65326 17.25 3.25 17.25Z" stroke="#F04E29" stroke-width="1.5" stroke-linecap="round" stroke-linejoin="round"/>
</svg>
