<svg width="39" height="44" viewBox="0 0 39 44" fill="none" xmlns="http://www.w3.org/2000/svg">
<path fill-rule="evenodd" clip-rule="evenodd" d="M8.15385 7H8.03846C7.51 7 7.05538 7 6.65385 7.09461C6.03224 7.24313 5.46388 7.56083 5.01176 8.01251C4.55964 8.46419 4.2414 9.03221 4.09231 9.65364C4 10.0551 4 10.5074 4 11.0382V16.8069C4 17.3354 4 17.7899 4.09462 18.1914C4.24315 18.813 4.56088 19.3813 5.01259 19.8334C5.46431 20.2855 6.03237 20.6037 6.65385 20.7528C7.05538 20.8451 7.50769 20.8451 8.03846 20.8451H13.8077C14.3362 20.8451 14.7908 20.8451 15.1923 20.7505C15.8139 20.602 16.3823 20.2843 16.8344 19.8326C17.2865 19.3809 17.6048 18.8129 17.7538 18.1914C17.8462 17.7899 17.8462 17.3377 17.8462 16.8069V11.0382C17.8462 10.5097 17.8462 10.0551 17.7515 9.65364C17.603 9.03208 17.2853 8.46377 16.8336 8.01168C16.3818 7.5596 15.8138 7.24138 15.1923 7.0923C14.7908 7 14.3385 7 13.8077 7H13.6923H8.15385ZM7.19154 9.33982C7.29077 9.31674 7.44538 9.30751 8.15385 9.30751H13.6923C14.4031 9.30751 14.5554 9.31444 14.6546 9.33982C14.8619 9.38939 15.0514 9.4954 15.2021 9.64611C15.3529 9.79681 15.4589 9.98632 15.5085 10.1936C15.5315 10.2905 15.5385 10.4428 15.5385 11.1535V16.6916C15.5385 17.4023 15.5315 17.5546 15.5062 17.6538C15.4566 17.8611 15.3506 18.0506 15.1998 18.2013C15.0491 18.352 14.8596 18.458 14.6523 18.5076C14.5577 18.5283 14.4054 18.5376 13.6923 18.5376H8.15385C7.44308 18.5376 7.29077 18.5307 7.19154 18.5053C6.98424 18.4557 6.79472 18.3497 6.64401 18.199C6.49329 18.0483 6.38726 17.8588 6.33769 17.6515C6.31692 17.5569 6.30769 17.4046 6.30769 16.6916V11.1535C6.30769 10.4428 6.31462 10.2905 6.34 10.1913C6.38957 9.98401 6.4956 9.79451 6.64631 9.6438C6.79703 9.4931 6.98655 9.38708 7.19385 9.33751M24.3077 7H24.1923C23.6638 7 23.2092 7 22.8077 7.09461C22.1861 7.24313 21.6177 7.56083 21.1656 8.01251C20.7135 8.46419 20.3952 9.03221 20.2462 9.65364C20.1538 10.0551 20.1538 10.5074 20.1538 11.0382V16.8069C20.1538 17.3354 20.1538 17.7899 20.2485 18.1914C20.397 18.813 20.7147 19.3813 21.1664 19.8334C21.6182 20.2855 22.1862 20.6037 22.8077 20.7528C23.2092 20.8451 23.6615 20.8451 24.1923 20.8451H29.9615C30.49 20.8451 30.9446 20.8451 31.3462 20.7505C31.9678 20.602 32.5361 20.2843 32.9882 19.8326C33.4404 19.3809 33.7586 18.8129 33.9077 18.1914C34 17.7899 34 17.3377 34 16.8069V11.0382C34 10.5097 34 10.0551 33.9054 9.65364C33.7568 9.03208 33.4391 8.46377 32.9874 8.01168C32.5357 7.5596 31.9676 7.24138 31.3462 7.0923C30.9446 7 30.4923 7 29.9615 7H29.8462H24.3077ZM23.3454 9.33982C23.4446 9.31674 23.5992 9.30751 24.3077 9.30751H29.8462C30.5569 9.30751 30.7092 9.31444 30.8085 9.33982C31.0158 9.38939 31.2053 9.4954 31.356 9.64611C31.5067 9.79681 31.6127 9.98632 31.6623 10.1936C31.6854 10.2905 31.6923 10.4428 31.6923 11.1535V16.6916C31.6923 17.4023 31.6831 17.5546 31.66 17.6538C31.6104 17.8611 31.5044 18.0506 31.3537 18.2013C31.203 18.352 31.0135 18.458 30.8062 18.5076C30.7092 18.5307 30.5569 18.5376 29.8462 18.5376H24.3077C23.5969 18.5376 23.4446 18.5307 23.3454 18.5053C23.1381 18.4557 22.9486 18.3497 22.7979 18.199C22.6471 18.0483 22.5411 17.8588 22.4915 17.6515C22.4708 17.5569 22.4615 17.4046 22.4615 16.6916V11.1535C22.4615 10.4428 22.4685 10.2905 22.4938 10.1913C22.5434 9.98401 22.6494 9.79451 22.8002 9.6438C22.9509 9.4931 23.1404 9.38708 23.3477 9.33751M8.03846 23.1526H13.8077C14.3362 23.1526 14.7908 23.1526 15.1923 23.2472C15.8139 23.3957 16.3823 23.7134 16.8344 24.1651C17.2865 24.6168 17.6048 25.1848 17.7538 25.8062C17.8462 26.2078 17.8462 26.66 17.8462 27.1908V32.9595C17.8462 33.488 17.8462 33.9425 17.7515 34.344C17.603 34.9656 17.2853 35.5339 16.8336 35.986C16.3818 36.4381 15.8138 36.7563 15.1923 36.9054C14.7908 36.9977 14.3385 36.9977 13.8077 36.9977H8.03846C7.51 36.9977 7.05538 36.9977 6.65385 36.9031C6.03224 36.7546 5.46388 36.4369 5.01176 35.9852C4.55964 35.5335 4.2414 34.9655 4.09231 34.344C4 33.9425 4 33.4903 4 32.9595V27.1908C4 26.6623 4 26.2078 4.09462 25.8062C4.24315 25.1847 4.56088 24.6164 5.01259 24.1643C5.46431 23.7122 6.03237 23.394 6.65385 23.2449C7.05538 23.1526 7.50769 23.1526 8.03846 23.1526ZM8.15385 25.4601C7.44308 25.4601 7.29077 25.467 7.19154 25.4924C6.98424 25.542 6.79472 25.648 6.64401 25.7987C6.49329 25.9494 6.38726 26.1389 6.33769 26.3462C6.31692 26.4408 6.30769 26.5931 6.30769 27.3061V32.8442C6.30769 33.5549 6.31462 33.7072 6.34 33.8064C6.38957 34.0137 6.4956 34.2032 6.64631 34.3539C6.79703 34.5046 6.98655 34.6106 7.19385 34.6602C7.29077 34.6833 7.44308 34.6902 8.15385 34.6902H13.6923C14.4031 34.6902 14.5554 34.6809 14.6546 34.6579C14.8619 34.6083 15.0514 34.5023 15.2021 34.3516C15.3529 34.2009 15.4589 34.0114 15.5085 33.8041C15.5315 33.7072 15.5385 33.5549 15.5385 32.8442V27.3061C15.5385 26.5954 15.5315 26.4431 15.5062 26.3439C15.4566 26.1366 15.3506 25.9471 15.1998 25.7964C15.0491 25.6457 14.8596 25.5397 14.6523 25.4901C14.5577 25.4693 14.4054 25.4601 13.6923 25.4601H8.15385ZM24.3077 23.1526H24.1923C23.6638 23.1526 23.2092 23.1526 22.8077 23.2472C22.1861 23.3957 21.6177 23.7134 21.1656 24.1651C20.7135 24.6168 20.3952 25.1848 20.2462 25.8062C20.1538 26.2078 20.1538 26.66 20.1538 27.1908V32.9595C20.1538 33.488 20.1538 33.9425 20.2485 34.344C20.397 34.9656 20.7147 35.5339 21.1664 35.986C21.6182 36.4381 22.1862 36.7563 22.8077 36.9054C23.2092 37 23.6638 37 24.1923 37H29.9615C30.49 37 30.9446 37 31.3462 36.9054C31.9673 36.7565 32.5352 36.4386 32.9869 35.987C33.4386 35.5353 33.7565 34.9675 33.9054 34.3464C34 33.9448 34 33.4903 34 32.9618V27.1908C34 26.6623 34 26.2078 33.9054 25.8062C33.7568 25.1847 33.4391 24.6164 32.9874 24.1643C32.5357 23.7122 31.9676 23.394 31.3462 23.2449C30.9446 23.1526 30.4923 23.1526 29.9615 23.1526H29.8462H24.3077ZM23.3454 25.4924C23.4446 25.4693 23.5992 25.4601 24.3077 25.4601H29.8462C30.5569 25.4601 30.7092 25.467 30.8085 25.4924C31.0158 25.542 31.2053 25.648 31.356 25.7987C31.5067 25.9494 31.6127 26.1389 31.6623 26.3462C31.6854 26.4431 31.6923 26.5954 31.6923 27.3061V32.8442C31.6923 33.5549 31.6831 33.7072 31.66 33.8064C31.6104 34.0137 31.5044 34.2032 31.3537 34.3539C31.203 34.5046 31.0135 34.6106 30.8062 34.6602C30.7092 34.6833 30.5569 34.6902 29.8462 34.6902H24.3077C23.5969 34.6902 23.4446 34.6809 23.3454 34.6579C23.1381 34.6083 22.9486 34.5023 22.7979 34.3516C22.6471 34.2009 22.5411 34.0114 22.4915 33.8041C22.4708 33.7095 22.4615 33.5572 22.4615 32.8442V27.3061C22.4615 26.5954 22.4685 26.4431 22.4938 26.3439C22.5434 26.1366 22.6494 25.9471 22.8002 25.7964C22.9509 25.6457 23.1404 25.5397 23.3477 25.4901" fill="white"/>
</svg>
