<svg width="8" height="10" viewBox="0 0 8 10" fill="none" xmlns="http://www.w3.org/2000/svg">
<path d="M0.541667 8.66667C0.541667 9.2625 1.02917 9.75 1.625 9.75H5.95833C6.55417 9.75 7.04167 9.2625 7.04167 8.66667V3.25C7.04167 2.65417 6.55417 2.16667 5.95833 2.16667H1.625C1.02917 2.16667 0.541667 2.65417 0.541667 3.25V8.66667ZM7.04167 0.541667H6.23138C5.88314 0.541667 5.54916 0.403328 5.30292 0.157083C5.20542 0.0595833 5.06458 0 4.92375 0H2.65958C2.51875 0 2.37792 0.0595833 2.28042 0.157083C2.03417 0.403328 1.70019 0.541667 1.35195 0.541667H0.541667C0.24375 0.541667 0 0.785417 0 1.08333C0 1.38125 0.24375 1.625 0.541667 1.625H7.04167C7.33958 1.625 7.58333 1.38125 7.58333 1.08333C7.58333 0.785417 7.33958 0.541667 7.04167 0.541667Z" fill="#DA0000"/>
</svg>
