<svg width="44" height="38" viewBox="0 0 44 38" fill="none" xmlns="http://www.w3.org/2000/svg">
<path d="M22 3.5625C15.168 3.5625 9.625 8.11879 9.625 13.7305C9.625 20.1875 17.875 30.42 20.9043 33.9543C21.03 34.1035 21.1948 34.2249 21.3853 34.3086C21.5757 34.3923 21.7863 34.436 22 34.436C22.2137 34.436 22.4243 34.3923 22.6147 34.3086C22.8052 34.2249 22.97 34.1035 23.0957 33.9543C26.125 30.4215 34.375 20.1927 34.375 13.7305C34.375 8.11879 28.832 3.5625 22 3.5625Z" stroke="white" stroke-width="2" stroke-linecap="round" stroke-linejoin="round"/>
<path d="M22 17.8125C24.2782 17.8125 26.125 16.2175 26.125 14.25C26.125 12.2825 24.2782 10.6875 22 10.6875C19.7218 10.6875 17.875 12.2825 17.875 14.25C17.875 16.2175 19.7218 17.8125 22 17.8125Z" stroke="white" stroke-width="2" stroke-linecap="round" stroke-linejoin="round"/>
</svg>
