<svg width="10" height="14" viewBox="0 0 10 14" fill="none" xmlns="http://www.w3.org/2000/svg">
<path d="M8.56267 12.6H3C2.08067 12.6 1.33333 11.8153 1.33333 10.85C1.33333 9.8847 2.08067 9.1 3 9.1H7.66667C8.95333 9.1 10 8.001 10 6.65C10 5.299 8.95333 4.2 7.66667 4.2H4.426C4.18117 4.70392 3.87798 5.17415 3.52333 5.6H7.66667C8.218 5.6 8.66667 6.0711 8.66667 6.65C8.66667 7.2289 8.218 7.7 7.66667 7.7H3C1.346 7.7 0 9.1133 0 10.85C0 12.5867 1.346 14 3 14H9.39533C9.0682 13.5679 8.78885 13.0983 8.56267 12.6ZM2 0C0.897333 0 0 0.9422 0 2.1C0 4.3316 2 5.6 2 5.6C2 5.6 4 4.3309 4 2.1C4 0.9422 3.10267 0 2 0ZM2 3.15C1.86863 3.14995 1.73856 3.12274 1.61721 3.06991C1.49587 3.01709 1.38561 2.93968 1.29276 2.84211C1.1999 2.74455 1.12625 2.62873 1.07602 2.50128C1.02579 2.37383 0.999956 2.23723 1 2.0993C1.00004 1.96137 1.02596 1.82479 1.07627 1.69737C1.12659 1.56996 1.20031 1.45419 1.29323 1.35669C1.38615 1.25919 1.49645 1.18186 1.61783 1.12912C1.73921 1.07638 1.8693 1.04925 2.00067 1.0493C2.26597 1.04939 2.52038 1.16014 2.70791 1.35719C2.89545 1.55423 3.00075 1.82143 3.00067 2.1C3.00058 2.37857 2.8951 2.64569 2.70744 2.84261C2.51978 3.03952 2.2653 3.15009 2 3.15Z" fill="#F04E29"/>
</svg>
