<svg width="24" height="19" viewBox="0 0 24 19" fill="none" xmlns="http://www.w3.org/2000/svg">
<path d="M10.6432 0.21653C11.3175 -0.0263595 12.096 -0.0263595 12.7704 0.21653L22.6643 3.77186C23.049 3.90915 23.2935 4.20836 23.2935 4.53925C23.2935 4.87015 23.049 5.16936 22.6643 5.30664L12.7704 8.86198C12.096 9.10487 11.3175 9.10487 10.6432 8.86198L0.749237 5.30664C0.364524 5.16584 0.120117 4.86663 0.120117 4.53925C0.120117 4.21188 0.364524 3.90915 0.749237 3.77186L10.6432 0.21653ZM20.2565 7.41168L22.6643 8.27764C23.049 8.41492 23.2935 8.71413 23.2935 9.04503C23.2935 9.37592 23.049 9.67513 22.6643 9.81242L12.7704 13.3678C12.096 13.6106 11.3175 13.6106 10.6432 13.3678L0.749237 9.81242C0.364524 9.67161 0.120117 9.3724 0.120117 9.04503C0.120117 8.71765 0.364524 8.41492 0.749237 8.27764L3.15709 7.41168L10.0367 9.88282C10.5603 10.0707 11.1301 10.1679 11.7068 10.1679C12.2834 10.1679 12.8532 10.0707 13.3769 9.88282L20.2565 7.41168ZM13.3769 14.3886L20.2565 11.9175L22.6643 12.7834C23.049 12.9207 23.2935 13.2199 23.2935 13.5508C23.2935 13.8817 23.049 14.1809 22.6643 14.3182L12.7704 17.8735C12.096 18.1164 11.3175 18.1164 10.6432 17.8735L0.749237 14.3182C0.364524 14.1774 0.120117 13.8782 0.120117 13.5508C0.120117 13.2234 0.364524 12.9207 0.749237 12.7834L3.15709 11.9175L10.0367 14.3886C10.5603 14.5764 11.1301 14.6737 11.7068 14.6737C12.2834 14.6737 12.8532 14.5764 13.3769 14.3886Z" fill="#F04E29"/>
</svg>
