<svg width="13" height="13" viewBox="0 0 13 13" fill="none" xmlns="http://www.w3.org/2000/svg">
<path d="M2.70833 10.2917H3.48021L8.775 4.99688L8.00313 4.225L2.70833 9.51979V10.2917ZM1.625 11.375V9.07292L8.775 1.93646C8.88333 1.83715 9.00304 1.76042 9.13413 1.70625C9.26521 1.65208 9.40279 1.625 9.54688 1.625C9.69132 1.625 9.83125 1.65208 9.96667 1.70625C10.1021 1.76042 10.2194 1.84167 10.3188 1.95L11.0635 2.70833C11.1719 2.80764 11.251 2.925 11.3008 3.06042C11.3506 3.19583 11.3754 3.33125 11.375 3.46667C11.375 3.61111 11.3501 3.74888 11.3003 3.87996C11.2504 4.01104 11.1715 4.13057 11.0635 4.23854L3.92708 11.375H1.625ZM8.38229 4.61771L8.00313 4.225L8.775 4.99688L8.38229 4.61771Z" fill="#4BB543"/>
</svg>
