<?xml version="1.0" encoding="UTF-8"?>
<!DOCTYPE svg PUBLIC "-//W3C//DTD SVG 1.1//EN" "http://www.w3.org/Graphics/SVG/1.1/DTD/svg11.dtd">
<svg xmlns="http://www.w3.org/2000/svg" version="1.1" width="100px" height="100px" style="shape-rendering:geometricPrecision; text-rendering:geometricPrecision; image-rendering:optimizeQuality; fill-rule:evenodd; clip-rule:evenodd" xmlns:xlink="http://www.w3.org/1999/xlink">
<g><path style="opacity:0.82" fill="#008000" d="M 99.5,50.5 C 99.5,58.8333 99.5,67.1667 99.5,75.5C 95.3069,79.3721 90.3069,80.5388 84.5,79C 82.8446,77.5557 82.178,75.7224 82.5,73.5C 81.5,73.5 80.5,73.5 79.5,73.5C 79.6646,76.5184 79.498,79.5184 79,82.5C 78.5,83 78,83.5 77.5,84C 63.5,84.6667 49.5,84.6667 35.5,84C 32.5,81 29.5,78 26.5,75C 23.1667,74.6667 19.8333,74.3333 16.5,74C 16,73.5 15.5,73 15,72.5C 14.5014,68.8484 14.3347,65.1817 14.5,61.5C 12.8333,61.5 11.1667,61.5 9.5,61.5C 9.66501,64.8499 9.49834,68.1832 9,71.5C 5.83902,74.0858 2.67235,74.0858 -0.5,71.5C -0.5,60.1667 -0.5,48.8333 -0.5,37.5C 2.38386,35.1953 5.38386,35.0286 8.5,37C 9.45584,40.3936 9.78917,43.8936 9.5,47.5C 11.1667,47.5 12.8333,47.5 14.5,47.5C 11.9352,37.7326 15.6018,33.7326 25.5,35.5C 25.472,33.4176 26.1387,31.5843 27.5,30C 31.4862,29.5012 35.4862,29.3345 39.5,29.5C 39.5,27.8333 39.5,26.1667 39.5,24.5C 35.4862,24.6655 31.4862,24.4988 27.5,24C 25.1145,21.2935 24.9478,18.4602 27,15.5C 40.4248,14.3443 53.9248,14.1777 67.5,15C 70.1667,18 70.1667,21 67.5,24C 63.8484,24.4986 60.1817,24.6653 56.5,24.5C 56.5,26.1667 56.5,27.8333 56.5,29.5C 59.8499,29.335 63.1832,29.5017 66.5,30C 67.9211,32.8614 68.9211,35.8614 69.5,39C 72.1667,39.3333 74.8333,39.6667 77.5,40C 78,40.5 78.5,41 79,41.5C 79.4986,45.1516 79.6653,48.8183 79.5,52.5C 80.5,52.5 81.5,52.5 82.5,52.5C 82.4914,47.8419 84.8247,45.5086 89.5,45.5C 93.9209,45.2894 97.2542,46.9561 99.5,50.5 Z M 30.5,18.5 C 42.1857,18.1678 53.8523,18.5011 65.5,19.5C 59.6667,19.8333 53.8333,20.1667 48,20.5C 41.793,20.4958 35.9597,19.8291 30.5,18.5 Z M 43.5,24.5 C 46.5,24.5 49.5,24.5 52.5,24.5C 52.5,26.1667 52.5,27.8333 52.5,29.5C 49.5,29.5 46.5,29.5 43.5,29.5C 43.5,27.8333 43.5,26.1667 43.5,24.5 Z M 30.5,33.5 C 41.505,33.3335 52.505,33.5002 63.5,34C 64.1667,36.6667 64.8333,39.3333 65.5,42C 68.6883,43.3158 72.0217,43.8158 75.5,43.5C 75.5,55.8333 75.5,68.1667 75.5,80.5C 63.1622,80.6665 50.8288,80.4999 38.5,80C 35.465,76.6298 32.1317,73.6298 28.5,71C 25.1832,70.5017 21.8499,70.335 18.5,70.5C 18.3335,60.4944 18.5002,50.4944 19,40.5C 21.7405,39.7178 24.5738,39.2178 27.5,39C 28.9711,37.4167 29.9711,35.5834 30.5,33.5 Z M 3.5,40.5 C 4.8266,44.7825 5.49327,49.4492 5.5,54.5C 5.16667,59.1667 4.83333,63.8333 4.5,68.5C 3.50169,59.1904 3.16836,49.8571 3.5,40.5 Z M 88.5,49.5 C 91.0991,49.5494 93.2658,50.5494 95,52.5C 95.6667,59.5 95.6667,66.5 95,73.5C 92.5185,75.3137 89.6852,75.9804 86.5,75.5C 85.9085,66.566 86.5751,57.8993 88.5,49.5 Z M 9.5,51.5 C 11.1667,51.5 12.8333,51.5 14.5,51.5C 14.5,53.5 14.5,55.5 14.5,57.5C 12.8333,57.5 11.1667,57.5 9.5,57.5C 9.5,55.5 9.5,53.5 9.5,51.5 Z M 79.5,56.5 C 80.5,56.5 81.5,56.5 82.5,56.5C 82.5,60.8333 82.5,65.1667 82.5,69.5C 81.5,69.5 80.5,69.5 79.5,69.5C 79.5,65.1667 79.5,60.8333 79.5,56.5 Z"/></g>
</svg>
