<svg width="26" height="26" viewBox="0 0 26 26" fill="none" xmlns="http://www.w3.org/2000/svg">
<mask id="path-1-outside-1_2669_2158" maskUnits="userSpaceOnUse" x="0" y="0" width="26" height="26" fill="black">
<rect fill="white" width="26" height="26"/>
<path d="M6.94727 1.0333C5.44722 1.23259 4.05606 1.90825 2.98851 2.95599C1.92096 4.00373 1.23635 5.36531 1.04037 6.83059C1.00538 7.10114 1 7.86291 1 12.972C1 16.8806 1.00807 18.8875 1.0296 19.0582C1.12917 19.9671 1.51938 21.0624 2.02261 21.8478C2.5662 22.6989 3.41658 23.5264 4.26158 24.0228C4.86707 24.3801 5.70131 24.7058 6.38215 24.8529C7.09528 25.0052 6.82348 25 13.0022 25C17.9511 25 18.718 24.9947 18.9952 24.9606C20.704 24.7426 22.2998 23.902 23.3817 22.649C23.858 22.0974 24.337 21.2962 24.5873 20.629C24.732 20.2291 24.8453 19.819 24.9263 19.4023L24.9909 19.0766L24.999 15.9639C25.0017 14.2512 24.999 12.8249 24.9909 12.7934C24.9747 12.7513 24.9431 12.7166 24.9021 12.6962C24.8321 12.6594 24.816 12.662 24.7326 12.7119C24.4285 12.8932 23.4624 13.8047 22.9968 14.3484C22.6282 14.7845 22.2891 15.231 21.5733 16.2266C21.2369 16.6967 20.8574 17.2168 20.7309 17.3823C19.3424 19.2106 17.5824 20.8786 16.1642 21.7086C15.0286 22.3758 13.9414 22.67 12.4855 22.7068C9.4715 22.783 6.99033 21.6955 5.6717 19.7175C4.74597 18.328 4.40959 16.3737 4.71637 14.2039C5.01508 12.113 5.92736 10.0247 7.35093 8.17549C9.08937 5.9191 11.4118 4.25635 13.5673 3.72311C15.6098 3.21614 17.4694 3.58915 18.8418 4.7817C19.3262 5.20199 19.703 5.69319 20.0017 6.28422C20.4107 7.09852 20.5587 7.84715 20.5291 8.94514C20.5022 9.98534 20.3219 10.7524 19.929 11.4984C19.6949 11.9423 19.4527 12.2654 19.084 12.6279C18.3978 13.3003 17.5932 13.7758 15.9085 14.506C14.6787 15.0366 13.971 15.3965 13.3924 15.7826C12.316 16.4997 11.6324 17.3167 11.2853 18.3017C11.1776 18.6064 11.0646 19.0819 11.0646 19.2263V19.3025L10.9381 19.2184C10.7471 19.0924 10.3434 18.6826 10.2008 18.4724C9.93009 18.0832 9.75174 17.6399 9.67871 17.1748C9.60874 16.7782 9.63296 16.0795 9.72984 15.7143C9.85632 15.2152 10.0635 14.8291 10.408 14.4298C10.6744 14.1199 10.6717 14.0831 10.3892 13.8992C10.2272 13.7976 10.0878 13.6652 9.97913 13.51C9.8705 13.3548 9.79488 13.1799 9.75675 12.9956C9.69755 12.7251 9.71639 12.2234 9.79712 11.9186C9.95051 11.346 10.3111 10.8285 10.7713 10.5238C11.0189 10.361 11.0108 10.3583 11.0108 10.5974C11.0108 11.1516 11.3472 11.8083 11.7966 12.1445C12.036 12.3101 12.3027 12.4345 12.5851 12.5123C12.8461 12.5806 13.9037 12.5806 14.4015 12.5123C15.4834 12.3678 16.4387 12.092 17.3214 11.6691C17.8542 11.4143 18.1798 11.2015 18.4947 10.8942C18.7019 10.6946 18.7718 10.6026 18.858 10.4345C18.9548 10.2454 18.9629 10.2086 18.9629 10.0142C18.9602 9.83561 18.9495 9.77783 18.8768 9.63073C18.5781 9.00555 17.9053 8.4119 17.1141 8.0783C15.5372 7.41373 13.9898 7.48465 11.8074 8.32785C9.69217 9.14215 7.84609 10.6709 7.18678 12.1551C6.93382 12.7277 6.81272 13.2609 6.81272 13.8125C6.81272 14.3458 6.9096 14.7608 7.1491 15.2441C7.36977 15.6907 7.82187 16.2029 8.26052 16.5024L8.45427 16.6337L8.43813 16.9095C8.36278 18.2439 9.35309 19.6886 10.8117 20.3795C11.1131 20.5213 11.5867 20.6842 11.7724 20.7078C11.8773 20.7236 11.9042 20.7157 11.9607 20.6605C12.0173 20.6054 12.0253 20.5739 12.0415 20.2166C12.0644 19.6255 12.2167 19.046 12.4882 18.5171L12.6227 18.257L12.838 18.3175C13.3951 18.4751 13.8176 18.5224 14.493 18.504C14.8913 18.4935 15.0905 18.4751 15.373 18.4225C16.4414 18.2255 17.4909 17.7711 18.4382 17.0986C19.2159 16.5444 19.8267 15.9744 21.2234 14.506C22.211 13.4632 22.7896 12.8984 23.309 12.4598C23.6857 12.1445 24.3289 11.6717 24.7003 11.4353C24.8833 11.3197 24.9828 11.2409 24.9909 11.2015C25.0017 11.17 25.0017 10.185 24.9963 9.01606C24.9855 6.67298 24.9909 6.75966 24.8025 6.0373C24.5603 5.09954 24.0356 4.09874 23.3951 3.35536C22.386 2.17857 20.9462 1.37215 19.2993 1.06482L18.9898 1.00703L13.1098 1.00177C8.13134 0.996521 7.18678 1.00177 6.94727 1.0333ZM18.6561 1.33538C20.1981 1.45358 21.5813 2.06036 22.6793 3.09794C23.5889 3.95952 24.2374 5.0759 24.5038 6.24481C24.6572 6.9199 24.6599 6.99607 24.6734 9.09749L24.6868 11.0466L24.3262 11.2856C23.2471 12.0027 22.4209 12.7435 20.8816 14.3747C20.0447 15.2599 19.2616 16.0295 18.8553 16.3605C17.6981 17.3114 16.5679 17.8657 15.3192 18.0994C15.0474 18.1494 14.9182 18.1572 14.3208 18.1572C13.5781 18.1572 13.3251 18.1257 12.8273 17.9734C12.5582 17.8919 12.5043 17.8919 12.4236 17.9707C12.3294 18.0627 12.028 18.6852 11.915 19.0162C11.799 19.3674 11.7249 19.7306 11.6943 20.0984L11.6755 20.3506L11.6055 20.3348C11.2772 20.2587 10.6475 19.9487 10.2815 19.6808C9.9828 19.4627 9.52801 19.0004 9.33694 18.7194C8.90906 18.0968 8.70992 17.3692 8.79873 16.7545C8.81757 16.6284 8.81757 16.5418 8.80142 16.5129C8.78527 16.484 8.65879 16.3815 8.51348 16.2765C8.19593 16.0479 7.81111 15.6723 7.64426 15.4254C7.2702 14.8738 7.14372 14.4062 7.17063 13.6576C7.1814 13.3135 7.19754 13.1953 7.26482 12.9405C7.48818 12.0999 7.88915 11.4668 8.69378 10.6841C9.4123 9.98534 10.1604 9.46261 11.0915 9.00555C12.6066 8.2648 14.1405 7.88917 15.2896 7.97586C16.4037 8.06254 17.3563 8.43554 17.9968 9.03445C18.5512 9.55455 18.7315 9.95119 18.5673 10.2874C18.492 10.445 18.0533 10.8679 17.795 11.036C16.7724 11.7006 15.2439 12.1445 13.6884 12.2312C12.9349 12.2733 12.4801 12.1945 12.1168 11.9607C11.7724 11.7348 11.4925 11.346 11.401 10.9599C11.3499 10.755 11.3445 10.3662 11.3875 10.2086C11.4118 10.1219 11.4091 10.0904 11.3741 10.0379C11.3095 9.94331 11.2288 9.93806 11.0269 10.0169C10.5129 10.2165 10.0151 10.6683 9.73253 11.191C9.13511 12.2969 9.28581 13.5052 10.0931 14.1041L10.1846 14.1724L10.077 14.3011C9.7137 14.7267 9.42844 15.3571 9.33156 15.9534C9.27505 16.2975 9.27505 16.878 9.33156 17.2011C9.38808 17.5242 9.55223 18.0101 9.71101 18.307C9.9688 18.7874 10.3384 19.2021 10.7901 19.5179C11.0673 19.7123 11.1507 19.7517 11.2395 19.7307C11.3364 19.707 11.3768 19.6098 11.3983 19.3524C11.4844 18.3122 12.0092 17.3324 12.8838 16.5838C13.6023 15.9691 14.4069 15.5121 16.0027 14.8212C17.5232 14.1619 18.169 13.8125 18.8391 13.2898C19.9452 12.4282 20.5829 11.304 20.8198 9.79096C20.879 9.41796 20.9032 8.46181 20.8628 8.08093C20.6098 5.68531 19.0114 3.87546 16.6486 3.31334C15.9112 3.13734 14.929 3.11895 14.1055 3.26605C10.5452 3.89385 6.83963 7.20884 5.18462 11.2488C4.14586 13.781 3.97095 16.4052 4.70292 18.4882C5.521 20.8182 7.46934 22.3496 10.2977 22.8828C11.3741 23.0851 12.6443 23.1087 13.6588 22.9485C15.5076 22.6543 17.0011 21.8032 18.8956 19.9566C19.9801 18.9006 20.5776 18.1835 21.8424 16.4236C22.5178 15.4832 22.8892 14.992 23.2579 14.5586C23.492 14.2801 24.4446 13.3397 24.5953 13.2347L24.6841 13.1742L24.6734 16.0059C24.6626 19.0897 24.6653 19.0346 24.5038 19.7464C24.2563 20.8313 23.6777 21.8794 22.873 22.7015C21.7186 23.881 20.2385 24.5508 18.5377 24.6585C18.2417 24.6795 16.3553 24.6848 12.6927 24.6795C7.86762 24.669 7.25405 24.6637 7.00109 24.627C5.73898 24.4352 4.82671 24.0648 3.83908 23.3372C3.58343 23.1481 2.95103 22.5387 2.74382 22.2813C2.04952 21.4171 1.59204 20.4058 1.41981 19.3577C1.32562 18.7824 1.32024 18.4252 1.32831 12.7329C1.33908 7.56083 1.34177 7.10114 1.38482 6.82271C1.56513 5.68006 1.95802 4.73705 2.63079 3.85445C2.8999 3.49984 3.56998 2.84577 3.93327 2.58309C4.91608 1.86484 6.08684 1.43231 7.31057 1.33538C7.73037 1.30123 18.2229 1.30123 18.6561 1.33538Z"/>
</mask>
<path d="M6.94727 1.0333C5.44722 1.23259 4.05606 1.90825 2.98851 2.95599C1.92096 4.00373 1.23635 5.36531 1.04037 6.83059C1.00538 7.10114 1 7.86291 1 12.972C1 16.8806 1.00807 18.8875 1.0296 19.0582C1.12917 19.9671 1.51938 21.0624 2.02261 21.8478C2.5662 22.6989 3.41658 23.5264 4.26158 24.0228C4.86707 24.3801 5.70131 24.7058 6.38215 24.8529C7.09528 25.0052 6.82348 25 13.0022 25C17.9511 25 18.718 24.9947 18.9952 24.9606C20.704 24.7426 22.2998 23.902 23.3817 22.649C23.858 22.0974 24.337 21.2962 24.5873 20.629C24.732 20.2291 24.8453 19.819 24.9263 19.4023L24.9909 19.0766L24.999 15.9639C25.0017 14.2512 24.999 12.8249 24.9909 12.7934C24.9747 12.7513 24.9431 12.7166 24.9021 12.6962C24.8321 12.6594 24.816 12.662 24.7326 12.7119C24.4285 12.8932 23.4624 13.8047 22.9968 14.3484C22.6282 14.7845 22.2891 15.231 21.5733 16.2266C21.2369 16.6967 20.8574 17.2168 20.7309 17.3823C19.3424 19.2106 17.5824 20.8786 16.1642 21.7086C15.0286 22.3758 13.9414 22.67 12.4855 22.7068C9.4715 22.783 6.99033 21.6955 5.6717 19.7175C4.74597 18.328 4.40959 16.3737 4.71637 14.2039C5.01508 12.113 5.92736 10.0247 7.35093 8.17549C9.08937 5.9191 11.4118 4.25635 13.5673 3.72311C15.6098 3.21614 17.4694 3.58915 18.8418 4.7817C19.3262 5.20199 19.703 5.69319 20.0017 6.28422C20.4107 7.09852 20.5587 7.84715 20.5291 8.94514C20.5022 9.98534 20.3219 10.7524 19.929 11.4984C19.6949 11.9423 19.4527 12.2654 19.084 12.6279C18.3978 13.3003 17.5932 13.7758 15.9085 14.506C14.6787 15.0366 13.971 15.3965 13.3924 15.7826C12.316 16.4997 11.6324 17.3167 11.2853 18.3017C11.1776 18.6064 11.0646 19.0819 11.0646 19.2263V19.3025L10.9381 19.2184C10.7471 19.0924 10.3434 18.6826 10.2008 18.4724C9.93009 18.0832 9.75174 17.6399 9.67871 17.1748C9.60874 16.7782 9.63296 16.0795 9.72984 15.7143C9.85632 15.2152 10.0635 14.8291 10.408 14.4298C10.6744 14.1199 10.6717 14.0831 10.3892 13.8992C10.2272 13.7976 10.0878 13.6652 9.97913 13.51C9.8705 13.3548 9.79488 13.1799 9.75675 12.9956C9.69755 12.7251 9.71639 12.2234 9.79712 11.9186C9.95051 11.346 10.3111 10.8285 10.7713 10.5238C11.0189 10.361 11.0108 10.3583 11.0108 10.5974C11.0108 11.1516 11.3472 11.8083 11.7966 12.1445C12.036 12.3101 12.3027 12.4345 12.5851 12.5123C12.8461 12.5806 13.9037 12.5806 14.4015 12.5123C15.4834 12.3678 16.4387 12.092 17.3214 11.6691C17.8542 11.4143 18.1798 11.2015 18.4947 10.8942C18.7019 10.6946 18.7718 10.6026 18.858 10.4345C18.9548 10.2454 18.9629 10.2086 18.9629 10.0142C18.9602 9.83561 18.9495 9.77783 18.8768 9.63073C18.5781 9.00555 17.9053 8.4119 17.1141 8.0783C15.5372 7.41373 13.9898 7.48465 11.8074 8.32785C9.69217 9.14215 7.84609 10.6709 7.18678 12.1551C6.93382 12.7277 6.81272 13.2609 6.81272 13.8125C6.81272 14.3458 6.9096 14.7608 7.1491 15.2441C7.36977 15.6907 7.82187 16.2029 8.26052 16.5024L8.45427 16.6337L8.43813 16.9095C8.36278 18.2439 9.35309 19.6886 10.8117 20.3795C11.1131 20.5213 11.5867 20.6842 11.7724 20.7078C11.8773 20.7236 11.9042 20.7157 11.9607 20.6605C12.0173 20.6054 12.0253 20.5739 12.0415 20.2166C12.0644 19.6255 12.2167 19.046 12.4882 18.5171L12.6227 18.257L12.838 18.3175C13.3951 18.4751 13.8176 18.5224 14.493 18.504C14.8913 18.4935 15.0905 18.4751 15.373 18.4225C16.4414 18.2255 17.4909 17.7711 18.4382 17.0986C19.2159 16.5444 19.8267 15.9744 21.2234 14.506C22.211 13.4632 22.7896 12.8984 23.309 12.4598C23.6857 12.1445 24.3289 11.6717 24.7003 11.4353C24.8833 11.3197 24.9828 11.2409 24.9909 11.2015C25.0017 11.17 25.0017 10.185 24.9963 9.01606C24.9855 6.67298 24.9909 6.75966 24.8025 6.0373C24.5603 5.09954 24.0356 4.09874 23.3951 3.35536C22.386 2.17857 20.9462 1.37215 19.2993 1.06482L18.9898 1.00703L13.1098 1.00177C8.13134 0.996521 7.18678 1.00177 6.94727 1.0333ZM18.6561 1.33538C20.1981 1.45358 21.5813 2.06036 22.6793 3.09794C23.5889 3.95952 24.2374 5.0759 24.5038 6.24481C24.6572 6.9199 24.6599 6.99607 24.6734 9.09749L24.6868 11.0466L24.3262 11.2856C23.2471 12.0027 22.4209 12.7435 20.8816 14.3747C20.0447 15.2599 19.2616 16.0295 18.8553 16.3605C17.6981 17.3114 16.5679 17.8657 15.3192 18.0994C15.0474 18.1494 14.9182 18.1572 14.3208 18.1572C13.5781 18.1572 13.3251 18.1257 12.8273 17.9734C12.5582 17.8919 12.5043 17.8919 12.4236 17.9707C12.3294 18.0627 12.028 18.6852 11.915 19.0162C11.799 19.3674 11.7249 19.7306 11.6943 20.0984L11.6755 20.3506L11.6055 20.3348C11.2772 20.2587 10.6475 19.9487 10.2815 19.6808C9.9828 19.4627 9.52801 19.0004 9.33694 18.7194C8.90906 18.0968 8.70992 17.3692 8.79873 16.7545C8.81757 16.6284 8.81757 16.5418 8.80142 16.5129C8.78527 16.484 8.65879 16.3815 8.51348 16.2765C8.19593 16.0479 7.81111 15.6723 7.64426 15.4254C7.2702 14.8738 7.14372 14.4062 7.17063 13.6576C7.1814 13.3135 7.19754 13.1953 7.26482 12.9405C7.48818 12.0999 7.88915 11.4668 8.69378 10.6841C9.4123 9.98534 10.1604 9.46261 11.0915 9.00555C12.6066 8.2648 14.1405 7.88917 15.2896 7.97586C16.4037 8.06254 17.3563 8.43554 17.9968 9.03445C18.5512 9.55455 18.7315 9.95119 18.5673 10.2874C18.492 10.445 18.0533 10.8679 17.795 11.036C16.7724 11.7006 15.2439 12.1445 13.6884 12.2312C12.9349 12.2733 12.4801 12.1945 12.1168 11.9607C11.7724 11.7348 11.4925 11.346 11.401 10.9599C11.3499 10.755 11.3445 10.3662 11.3875 10.2086C11.4118 10.1219 11.4091 10.0904 11.3741 10.0379C11.3095 9.94331 11.2288 9.93806 11.0269 10.0169C10.5129 10.2165 10.0151 10.6683 9.73253 11.191C9.13511 12.2969 9.28581 13.5052 10.0931 14.1041L10.1846 14.1724L10.077 14.3011C9.7137 14.7267 9.42844 15.3571 9.33156 15.9534C9.27505 16.2975 9.27505 16.878 9.33156 17.2011C9.38808 17.5242 9.55223 18.0101 9.71101 18.307C9.9688 18.7874 10.3384 19.2021 10.7901 19.5179C11.0673 19.7123 11.1507 19.7517 11.2395 19.7307C11.3364 19.707 11.3768 19.6098 11.3983 19.3524C11.4844 18.3122 12.0092 17.3324 12.8838 16.5838C13.6023 15.9691 14.4069 15.5121 16.0027 14.8212C17.5232 14.1619 18.169 13.8125 18.8391 13.2898C19.9452 12.4282 20.5829 11.304 20.8198 9.79096C20.879 9.41796 20.9032 8.46181 20.8628 8.08093C20.6098 5.68531 19.0114 3.87546 16.6486 3.31334C15.9112 3.13734 14.929 3.11895 14.1055 3.26605C10.5452 3.89385 6.83963 7.20884 5.18462 11.2488C4.14586 13.781 3.97095 16.4052 4.70292 18.4882C5.521 20.8182 7.46934 22.3496 10.2977 22.8828C11.3741 23.0851 12.6443 23.1087 13.6588 22.9485C15.5076 22.6543 17.0011 21.8032 18.8956 19.9566C19.9801 18.9006 20.5776 18.1835 21.8424 16.4236C22.5178 15.4832 22.8892 14.992 23.2579 14.5586C23.492 14.2801 24.4446 13.3397 24.5953 13.2347L24.6841 13.1742L24.6734 16.0059C24.6626 19.0897 24.6653 19.0346 24.5038 19.7464C24.2563 20.8313 23.6777 21.8794 22.873 22.7015C21.7186 23.881 20.2385 24.5508 18.5377 24.6585C18.2417 24.6795 16.3553 24.6848 12.6927 24.6795C7.86762 24.669 7.25405 24.6637 7.00109 24.627C5.73898 24.4352 4.82671 24.0648 3.83908 23.3372C3.58343 23.1481 2.95103 22.5387 2.74382 22.2813C2.04952 21.4171 1.59204 20.4058 1.41981 19.3577C1.32562 18.7824 1.32024 18.4252 1.32831 12.7329C1.33908 7.56083 1.34177 7.10114 1.38482 6.82271C1.56513 5.68006 1.95802 4.73705 2.63079 3.85445C2.8999 3.49984 3.56998 2.84577 3.93327 2.58309C4.91608 1.86484 6.08684 1.43231 7.31057 1.33538C7.73037 1.30123 18.2229 1.30123 18.6561 1.33538Z" fill="#F04E29"/>
<path d="M6.94727 1.0333C5.44722 1.23259 4.05606 1.90825 2.98851 2.95599C1.92096 4.00373 1.23635 5.36531 1.04037 6.83059C1.00538 7.10114 1 7.86291 1 12.972C1 16.8806 1.00807 18.8875 1.0296 19.0582C1.12917 19.9671 1.51938 21.0624 2.02261 21.8478C2.5662 22.6989 3.41658 23.5264 4.26158 24.0228C4.86707 24.3801 5.70131 24.7058 6.38215 24.8529C7.09528 25.0052 6.82348 25 13.0022 25C17.9511 25 18.718 24.9947 18.9952 24.9606C20.704 24.7426 22.2998 23.902 23.3817 22.649C23.858 22.0974 24.337 21.2962 24.5873 20.629C24.732 20.2291 24.8453 19.819 24.9263 19.4023L24.9909 19.0766L24.999 15.9639C25.0017 14.2512 24.999 12.8249 24.9909 12.7934C24.9747 12.7513 24.9431 12.7166 24.9021 12.6962C24.8321 12.6594 24.816 12.662 24.7326 12.7119C24.4285 12.8932 23.4624 13.8047 22.9968 14.3484C22.6282 14.7845 22.2891 15.231 21.5733 16.2266C21.2369 16.6967 20.8574 17.2168 20.7309 17.3823C19.3424 19.2106 17.5824 20.8786 16.1642 21.7086C15.0286 22.3758 13.9414 22.67 12.4855 22.7068C9.4715 22.783 6.99033 21.6955 5.6717 19.7175C4.74597 18.328 4.40959 16.3737 4.71637 14.2039C5.01508 12.113 5.92736 10.0247 7.35093 8.17549C9.08937 5.9191 11.4118 4.25635 13.5673 3.72311C15.6098 3.21614 17.4694 3.58915 18.8418 4.7817C19.3262 5.20199 19.703 5.69319 20.0017 6.28422C20.4107 7.09852 20.5587 7.84715 20.5291 8.94514C20.5022 9.98534 20.3219 10.7524 19.929 11.4984C19.6949 11.9423 19.4527 12.2654 19.084 12.6279C18.3978 13.3003 17.5932 13.7758 15.9085 14.506C14.6787 15.0366 13.971 15.3965 13.3924 15.7826C12.316 16.4997 11.6324 17.3167 11.2853 18.3017C11.1776 18.6064 11.0646 19.0819 11.0646 19.2263V19.3025L10.9381 19.2184C10.7471 19.0924 10.3434 18.6826 10.2008 18.4724C9.93009 18.0832 9.75174 17.6399 9.67871 17.1748C9.60874 16.7782 9.63296 16.0795 9.72984 15.7143C9.85632 15.2152 10.0635 14.8291 10.408 14.4298C10.6744 14.1199 10.6717 14.0831 10.3892 13.8992C10.2272 13.7976 10.0878 13.6652 9.97913 13.51C9.8705 13.3548 9.79488 13.1799 9.75675 12.9956C9.69755 12.7251 9.71639 12.2234 9.79712 11.9186C9.95051 11.346 10.3111 10.8285 10.7713 10.5238C11.0189 10.361 11.0108 10.3583 11.0108 10.5974C11.0108 11.1516 11.3472 11.8083 11.7966 12.1445C12.036 12.3101 12.3027 12.4345 12.5851 12.5123C12.8461 12.5806 13.9037 12.5806 14.4015 12.5123C15.4834 12.3678 16.4387 12.092 17.3214 11.6691C17.8542 11.4143 18.1798 11.2015 18.4947 10.8942C18.7019 10.6946 18.7718 10.6026 18.858 10.4345C18.9548 10.2454 18.9629 10.2086 18.9629 10.0142C18.9602 9.83561 18.9495 9.77783 18.8768 9.63073C18.5781 9.00555 17.9053 8.4119 17.1141 8.0783C15.5372 7.41373 13.9898 7.48465 11.8074 8.32785C9.69217 9.14215 7.84609 10.6709 7.18678 12.1551C6.93382 12.7277 6.81272 13.2609 6.81272 13.8125C6.81272 14.3458 6.9096 14.7608 7.1491 15.2441C7.36977 15.6907 7.82187 16.2029 8.26052 16.5024L8.45427 16.6337L8.43813 16.9095C8.36278 18.2439 9.35309 19.6886 10.8117 20.3795C11.1131 20.5213 11.5867 20.6842 11.7724 20.7078C11.8773 20.7236 11.9042 20.7157 11.9607 20.6605C12.0173 20.6054 12.0253 20.5739 12.0415 20.2166C12.0644 19.6255 12.2167 19.046 12.4882 18.5171L12.6227 18.257L12.838 18.3175C13.3951 18.4751 13.8176 18.5224 14.493 18.504C14.8913 18.4935 15.0905 18.4751 15.373 18.4225C16.4414 18.2255 17.4909 17.7711 18.4382 17.0986C19.2159 16.5444 19.8267 15.9744 21.2234 14.506C22.211 13.4632 22.7896 12.8984 23.309 12.4598C23.6857 12.1445 24.3289 11.6717 24.7003 11.4353C24.8833 11.3197 24.9828 11.2409 24.9909 11.2015C25.0017 11.17 25.0017 10.185 24.9963 9.01606C24.9855 6.67298 24.9909 6.75966 24.8025 6.0373C24.5603 5.09954 24.0356 4.09874 23.3951 3.35536C22.386 2.17857 20.9462 1.37215 19.2993 1.06482L18.9898 1.00703L13.1098 1.00177C8.13134 0.996521 7.18678 1.00177 6.94727 1.0333ZM18.6561 1.33538C20.1981 1.45358 21.5813 2.06036 22.6793 3.09794C23.5889 3.95952 24.2374 5.0759 24.5038 6.24481C24.6572 6.9199 24.6599 6.99607 24.6734 9.09749L24.6868 11.0466L24.3262 11.2856C23.2471 12.0027 22.4209 12.7435 20.8816 14.3747C20.0447 15.2599 19.2616 16.0295 18.8553 16.3605C17.6981 17.3114 16.5679 17.8657 15.3192 18.0994C15.0474 18.1494 14.9182 18.1572 14.3208 18.1572C13.5781 18.1572 13.3251 18.1257 12.8273 17.9734C12.5582 17.8919 12.5043 17.8919 12.4236 17.9707C12.3294 18.0627 12.028 18.6852 11.915 19.0162C11.799 19.3674 11.7249 19.7306 11.6943 20.0984L11.6755 20.3506L11.6055 20.3348C11.2772 20.2587 10.6475 19.9487 10.2815 19.6808C9.9828 19.4627 9.52801 19.0004 9.33694 18.7194C8.90906 18.0968 8.70992 17.3692 8.79873 16.7545C8.81757 16.6284 8.81757 16.5418 8.80142 16.5129C8.78527 16.484 8.65879 16.3815 8.51348 16.2765C8.19593 16.0479 7.81111 15.6723 7.64426 15.4254C7.2702 14.8738 7.14372 14.4062 7.17063 13.6576C7.1814 13.3135 7.19754 13.1953 7.26482 12.9405C7.48818 12.0999 7.88915 11.4668 8.69378 10.6841C9.4123 9.98534 10.1604 9.46261 11.0915 9.00555C12.6066 8.2648 14.1405 7.88917 15.2896 7.97586C16.4037 8.06254 17.3563 8.43554 17.9968 9.03445C18.5512 9.55455 18.7315 9.95119 18.5673 10.2874C18.492 10.445 18.0533 10.8679 17.795 11.036C16.7724 11.7006 15.2439 12.1445 13.6884 12.2312C12.9349 12.2733 12.4801 12.1945 12.1168 11.9607C11.7724 11.7348 11.4925 11.346 11.401 10.9599C11.3499 10.755 11.3445 10.3662 11.3875 10.2086C11.4118 10.1219 11.4091 10.0904 11.3741 10.0379C11.3095 9.94331 11.2288 9.93806 11.0269 10.0169C10.5129 10.2165 10.0151 10.6683 9.73253 11.191C9.13511 12.2969 9.28581 13.5052 10.0931 14.1041L10.1846 14.1724L10.077 14.3011C9.7137 14.7267 9.42844 15.3571 9.33156 15.9534C9.27505 16.2975 9.27505 16.878 9.33156 17.2011C9.38808 17.5242 9.55223 18.0101 9.71101 18.307C9.9688 18.7874 10.3384 19.2021 10.7901 19.5179C11.0673 19.7123 11.1507 19.7517 11.2395 19.7307C11.3364 19.707 11.3768 19.6098 11.3983 19.3524C11.4844 18.3122 12.0092 17.3324 12.8838 16.5838C13.6023 15.9691 14.4069 15.5121 16.0027 14.8212C17.5232 14.1619 18.169 13.8125 18.8391 13.2898C19.9452 12.4282 20.5829 11.304 20.8198 9.79096C20.879 9.41796 20.9032 8.46181 20.8628 8.08093C20.6098 5.68531 19.0114 3.87546 16.6486 3.31334C15.9112 3.13734 14.929 3.11895 14.1055 3.26605C10.5452 3.89385 6.83963 7.20884 5.18462 11.2488C4.14586 13.781 3.97095 16.4052 4.70292 18.4882C5.521 20.8182 7.46934 22.3496 10.2977 22.8828C11.3741 23.0851 12.6443 23.1087 13.6588 22.9485C15.5076 22.6543 17.0011 21.8032 18.8956 19.9566C19.9801 18.9006 20.5776 18.1835 21.8424 16.4236C22.5178 15.4832 22.8892 14.992 23.2579 14.5586C23.492 14.2801 24.4446 13.3397 24.5953 13.2347L24.6841 13.1742L24.6734 16.0059C24.6626 19.0897 24.6653 19.0346 24.5038 19.7464C24.2563 20.8313 23.6777 21.8794 22.873 22.7015C21.7186 23.881 20.2385 24.5508 18.5377 24.6585C18.2417 24.6795 16.3553 24.6848 12.6927 24.6795C7.86762 24.669 7.25405 24.6637 7.00109 24.627C5.73898 24.4352 4.82671 24.0648 3.83908 23.3372C3.58343 23.1481 2.95103 22.5387 2.74382 22.2813C2.04952 21.4171 1.59204 20.4058 1.41981 19.3577C1.32562 18.7824 1.32024 18.4252 1.32831 12.7329C1.33908 7.56083 1.34177 7.10114 1.38482 6.82271C1.56513 5.68006 1.95802 4.73705 2.63079 3.85445C2.8999 3.49984 3.56998 2.84577 3.93327 2.58309C4.91608 1.86484 6.08684 1.43231 7.31057 1.33538C7.73037 1.30123 18.2229 1.30123 18.6561 1.33538Z" fill="#F04E29"/>
<path d="M6.94727 1.0333C5.44722 1.23259 4.05606 1.90825 2.98851 2.95599C1.92096 4.00373 1.23635 5.36531 1.04037 6.83059C1.00538 7.10114 1 7.86291 1 12.972C1 16.8806 1.00807 18.8875 1.0296 19.0582C1.12917 19.9671 1.51938 21.0624 2.02261 21.8478C2.5662 22.6989 3.41658 23.5264 4.26158 24.0228C4.86707 24.3801 5.70131 24.7058 6.38215 24.8529C7.09528 25.0052 6.82348 25 13.0022 25C17.9511 25 18.718 24.9947 18.9952 24.9606C20.704 24.7426 22.2998 23.902 23.3817 22.649C23.858 22.0974 24.337 21.2962 24.5873 20.629C24.732 20.2291 24.8453 19.819 24.9263 19.4023L24.9909 19.0766L24.999 15.9639C25.0017 14.2512 24.999 12.8249 24.9909 12.7934C24.9747 12.7513 24.9431 12.7166 24.9021 12.6962C24.8321 12.6594 24.816 12.662 24.7326 12.7119C24.4285 12.8932 23.4624 13.8047 22.9968 14.3484C22.6282 14.7845 22.2891 15.231 21.5733 16.2266C21.2369 16.6967 20.8574 17.2168 20.7309 17.3823C19.3424 19.2106 17.5824 20.8786 16.1642 21.7086C15.0286 22.3758 13.9414 22.67 12.4855 22.7068C9.4715 22.783 6.99033 21.6955 5.6717 19.7175C4.74597 18.328 4.40959 16.3737 4.71637 14.2039C5.01508 12.113 5.92736 10.0247 7.35093 8.17549C9.08937 5.9191 11.4118 4.25635 13.5673 3.72311C15.6098 3.21614 17.4694 3.58915 18.8418 4.7817C19.3262 5.20199 19.703 5.69319 20.0017 6.28422C20.4107 7.09852 20.5587 7.84715 20.5291 8.94514C20.5022 9.98534 20.3219 10.7524 19.929 11.4984C19.6949 11.9423 19.4527 12.2654 19.084 12.6279C18.3978 13.3003 17.5932 13.7758 15.9085 14.506C14.6787 15.0366 13.971 15.3965 13.3924 15.7826C12.316 16.4997 11.6324 17.3167 11.2853 18.3017C11.1776 18.6064 11.0646 19.0819 11.0646 19.2263V19.3025L10.9381 19.2184C10.7471 19.0924 10.3434 18.6826 10.2008 18.4724C9.93009 18.0832 9.75174 17.6399 9.67871 17.1748C9.60874 16.7782 9.63296 16.0795 9.72984 15.7143C9.85632 15.2152 10.0635 14.8291 10.408 14.4298C10.6744 14.1199 10.6717 14.0831 10.3892 13.8992C10.2272 13.7976 10.0878 13.6652 9.97913 13.51C9.8705 13.3548 9.79488 13.1799 9.75675 12.9956C9.69755 12.7251 9.71639 12.2234 9.79712 11.9186C9.95051 11.346 10.3111 10.8285 10.7713 10.5238C11.0189 10.361 11.0108 10.3583 11.0108 10.5974C11.0108 11.1516 11.3472 11.8083 11.7966 12.1445C12.036 12.3101 12.3027 12.4345 12.5851 12.5123C12.8461 12.5806 13.9037 12.5806 14.4015 12.5123C15.4834 12.3678 16.4387 12.092 17.3214 11.6691C17.8542 11.4143 18.1798 11.2015 18.4947 10.8942C18.7019 10.6946 18.7718 10.6026 18.858 10.4345C18.9548 10.2454 18.9629 10.2086 18.9629 10.0142C18.9602 9.83561 18.9495 9.77783 18.8768 9.63073C18.5781 9.00555 17.9053 8.4119 17.1141 8.0783C15.5372 7.41373 13.9898 7.48465 11.8074 8.32785C9.69217 9.14215 7.84609 10.6709 7.18678 12.1551C6.93382 12.7277 6.81272 13.2609 6.81272 13.8125C6.81272 14.3458 6.9096 14.7608 7.1491 15.2441C7.36977 15.6907 7.82187 16.2029 8.26052 16.5024L8.45427 16.6337L8.43813 16.9095C8.36278 18.2439 9.35309 19.6886 10.8117 20.3795C11.1131 20.5213 11.5867 20.6842 11.7724 20.7078C11.8773 20.7236 11.9042 20.7157 11.9607 20.6605C12.0173 20.6054 12.0253 20.5739 12.0415 20.2166C12.0644 19.6255 12.2167 19.046 12.4882 18.5171L12.6227 18.257L12.838 18.3175C13.3951 18.4751 13.8176 18.5224 14.493 18.504C14.8913 18.4935 15.0905 18.4751 15.373 18.4225C16.4414 18.2255 17.4909 17.7711 18.4382 17.0986C19.2159 16.5444 19.8267 15.9744 21.2234 14.506C22.211 13.4632 22.7896 12.8984 23.309 12.4598C23.6857 12.1445 24.3289 11.6717 24.7003 11.4353C24.8833 11.3197 24.9828 11.2409 24.9909 11.2015C25.0017 11.17 25.0017 10.185 24.9963 9.01606C24.9855 6.67298 24.9909 6.75966 24.8025 6.0373C24.5603 5.09954 24.0356 4.09874 23.3951 3.35536C22.386 2.17857 20.9462 1.37215 19.2993 1.06482L18.9898 1.00703L13.1098 1.00177C8.13134 0.996521 7.18678 1.00177 6.94727 1.0333ZM18.6561 1.33538C20.1981 1.45358 21.5813 2.06036 22.6793 3.09794C23.5889 3.95952 24.2374 5.0759 24.5038 6.24481C24.6572 6.9199 24.6599 6.99607 24.6734 9.09749L24.6868 11.0466L24.3262 11.2856C23.2471 12.0027 22.4209 12.7435 20.8816 14.3747C20.0447 15.2599 19.2616 16.0295 18.8553 16.3605C17.6981 17.3114 16.5679 17.8657 15.3192 18.0994C15.0474 18.1494 14.9182 18.1572 14.3208 18.1572C13.5781 18.1572 13.3251 18.1257 12.8273 17.9734C12.5582 17.8919 12.5043 17.8919 12.4236 17.9707C12.3294 18.0627 12.028 18.6852 11.915 19.0162C11.799 19.3674 11.7249 19.7306 11.6943 20.0984L11.6755 20.3506L11.6055 20.3348C11.2772 20.2587 10.6475 19.9487 10.2815 19.6808C9.9828 19.4627 9.52801 19.0004 9.33694 18.7194C8.90906 18.0968 8.70992 17.3692 8.79873 16.7545C8.81757 16.6284 8.81757 16.5418 8.80142 16.5129C8.78527 16.484 8.65879 16.3815 8.51348 16.2765C8.19593 16.0479 7.81111 15.6723 7.64426 15.4254C7.2702 14.8738 7.14372 14.4062 7.17063 13.6576C7.1814 13.3135 7.19754 13.1953 7.26482 12.9405C7.48818 12.0999 7.88915 11.4668 8.69378 10.6841C9.4123 9.98534 10.1604 9.46261 11.0915 9.00555C12.6066 8.2648 14.1405 7.88917 15.2896 7.97586C16.4037 8.06254 17.3563 8.43554 17.9968 9.03445C18.5512 9.55455 18.7315 9.95119 18.5673 10.2874C18.492 10.445 18.0533 10.8679 17.795 11.036C16.7724 11.7006 15.2439 12.1445 13.6884 12.2312C12.9349 12.2733 12.4801 12.1945 12.1168 11.9607C11.7724 11.7348 11.4925 11.346 11.401 10.9599C11.3499 10.755 11.3445 10.3662 11.3875 10.2086C11.4118 10.1219 11.4091 10.0904 11.3741 10.0379C11.3095 9.94331 11.2288 9.93806 11.0269 10.0169C10.5129 10.2165 10.0151 10.6683 9.73253 11.191C9.13511 12.2969 9.28581 13.5052 10.0931 14.1041L10.1846 14.1724L10.077 14.3011C9.7137 14.7267 9.42844 15.3571 9.33156 15.9534C9.27505 16.2975 9.27505 16.878 9.33156 17.2011C9.38808 17.5242 9.55223 18.0101 9.71101 18.307C9.9688 18.7874 10.3384 19.2021 10.7901 19.5179C11.0673 19.7123 11.1507 19.7517 11.2395 19.7307C11.3364 19.707 11.3768 19.6098 11.3983 19.3524C11.4844 18.3122 12.0092 17.3324 12.8838 16.5838C13.6023 15.9691 14.4069 15.5121 16.0027 14.8212C17.5232 14.1619 18.169 13.8125 18.8391 13.2898C19.9452 12.4282 20.5829 11.304 20.8198 9.79096C20.879 9.41796 20.9032 8.46181 20.8628 8.08093C20.6098 5.68531 19.0114 3.87546 16.6486 3.31334C15.9112 3.13734 14.929 3.11895 14.1055 3.26605C10.5452 3.89385 6.83963 7.20884 5.18462 11.2488C4.14586 13.781 3.97095 16.4052 4.70292 18.4882C5.521 20.8182 7.46934 22.3496 10.2977 22.8828C11.3741 23.0851 12.6443 23.1087 13.6588 22.9485C15.5076 22.6543 17.0011 21.8032 18.8956 19.9566C19.9801 18.9006 20.5776 18.1835 21.8424 16.4236C22.5178 15.4832 22.8892 14.992 23.2579 14.5586C23.492 14.2801 24.4446 13.3397 24.5953 13.2347L24.6841 13.1742L24.6734 16.0059C24.6626 19.0897 24.6653 19.0346 24.5038 19.7464C24.2563 20.8313 23.6777 21.8794 22.873 22.7015C21.7186 23.881 20.2385 24.5508 18.5377 24.6585C18.2417 24.6795 16.3553 24.6848 12.6927 24.6795C7.86762 24.669 7.25405 24.6637 7.00109 24.627C5.73898 24.4352 4.82671 24.0648 3.83908 23.3372C3.58343 23.1481 2.95103 22.5387 2.74382 22.2813C2.04952 21.4171 1.59204 20.4058 1.41981 19.3577C1.32562 18.7824 1.32024 18.4252 1.32831 12.7329C1.33908 7.56083 1.34177 7.10114 1.38482 6.82271C1.56513 5.68006 1.95802 4.73705 2.63079 3.85445C2.8999 3.49984 3.56998 2.84577 3.93327 2.58309C4.91608 1.86484 6.08684 1.43231 7.31057 1.33538C7.73037 1.30123 18.2229 1.30123 18.6561 1.33538Z" stroke="#F04E29" mask="url(#path-1-outside-1_2669_2158)"/>
</svg>
