<svg width="20" height="20" viewBox="0 0 20 20" fill="none" xmlns="http://www.w3.org/2000/svg">
<path d="M5.8335 1.66666C5.17045 1.66666 4.53457 1.93006 4.06573 2.3989C3.59689 2.86774 3.3335 3.50362 3.3335 4.16666V15.8333C3.3335 16.4964 3.59689 17.1323 4.06573 17.6011C4.53457 18.0699 5.17045 18.3333 5.8335 18.3333H14.1668C14.8299 18.3333 15.4658 18.0699 15.9346 17.6011C16.4034 17.1323 16.6668 16.4964 16.6668 15.8333V15C16.6668 14.5398 16.2937 14.1667 15.8335 14.1667C15.3733 14.1667 15.0002 14.5398 15.0002 15V15.8333C15.0002 16.0543 14.9124 16.2663 14.7561 16.4226C14.5998 16.5789 14.3878 16.6667 14.1668 16.6667H5.8335C5.61248 16.6667 5.40052 16.5789 5.24424 16.4226C5.08796 16.2663 5.00016 16.0543 5.00016 15.8333V4.16666C5.00016 3.94565 5.08796 3.73369 5.24424 3.57741C5.40052 3.42113 5.61248 3.33333 5.8335 3.33333H14.1668C14.3878 3.33333 14.5998 3.42113 14.7561 3.57741C14.9124 3.73369 15.0002 3.94565 15.0002 4.16666V5C15.0002 5.46023 15.3733 5.83333 15.8335 5.83333C16.2937 5.83333 16.6668 5.46023 16.6668 5V4.16666C16.6668 3.50362 16.4034 2.86774 15.9346 2.3989C15.4658 1.93006 14.8299 1.66666 14.1668 1.66666H5.8335Z" fill="#F04E29"/>
<path d="M13.9228 6.91074C13.5973 6.5853 13.0697 6.5853 12.7442 6.91074C12.4188 7.23618 12.4188 7.76382 12.7442 8.08925L13.8217 9.16666H10.0002C9.53993 9.16666 9.16683 9.53976 9.16683 10C9.16683 10.4602 9.53993 10.8333 10.0002 10.8333H13.8217L12.7442 11.9107C12.4188 12.2362 12.4188 12.7638 12.7442 13.0893C13.0697 13.4147 13.5973 13.4147 13.9228 13.0893L16.4228 10.5893C16.7482 10.2638 16.7482 9.73618 16.4228 9.41074L13.9228 6.91074Z" fill="#F04E29"/>
</svg>
