<svg width="24" height="25" viewBox="0 0 24 25" fill="none" xmlns="http://www.w3.org/2000/svg">
<path d="M1.18164 12.5C2.12164 7.38 6.60764 3.5 11.9996 3.5C17.3916 3.5 21.8776 7.38 22.8186 12.5C21.8786 17.62 17.3916 21.5 11.9996 21.5C6.60764 21.5 2.12164 17.62 1.18164 12.5ZM11.9996 17.5C13.3257 17.5 14.5975 16.9732 15.5352 16.0355C16.4729 15.0979 16.9996 13.8261 16.9996 12.5C16.9996 11.1739 16.4729 9.90215 15.5352 8.96447C14.5975 8.02678 13.3257 7.5 11.9996 7.5C10.6736 7.5 9.40179 8.02678 8.46411 8.96447C7.52642 9.90215 6.99964 11.1739 6.99964 12.5C6.99964 13.8261 7.52642 15.0979 8.46411 16.0355C9.40179 16.9732 10.6736 17.5 11.9996 17.5ZM11.9996 15.5C11.204 15.5 10.4409 15.1839 9.87832 14.6213C9.31571 14.0587 8.99964 13.2956 8.99964 12.5C8.99964 11.7044 9.31571 10.9413 9.87832 10.3787C10.4409 9.81607 11.204 9.5 11.9996 9.5C12.7953 9.5 13.5584 9.81607 14.121 10.3787C14.6836 10.9413 14.9996 11.7044 14.9996 12.5C14.9996 13.2956 14.6836 14.0587 14.121 14.6213C13.5584 15.1839 12.7953 15.5 11.9996 15.5Z" fill="#F04E29"/>
</svg>
