<svg width="20" height="20" viewBox="0 0 20 20" fill="none" xmlns="http://www.w3.org/2000/svg">
<g clip-path="url(#clip0_127_1888)">
<path d="M8.3335 7.5C8.3335 7.01085 8.51594 6.69802 8.75546 6.49479C9.01309 6.2762 9.3863 6.14583 9.79183 6.14583C10.1974 6.14583 10.5706 6.2762 10.8282 6.49479C11.0677 6.69802 11.2502 7.01085 11.2502 7.5C11.2502 7.8643 11.1643 8.06655 11.0646 8.21613C10.9483 8.39064 10.7952 8.52825 10.5363 8.76097L10.4844 8.80767C10.218 9.04737 9.86764 9.37141 9.60047 9.8434C9.32514 10.3298 9.16683 10.9176 9.16683 11.6667C9.16683 12.1269 9.53993 12.5 10.0002 12.5C10.4604 12.5 10.8335 12.1269 10.8335 11.6667C10.8335 11.1658 10.9356 10.8681 11.0509 10.6644C11.1744 10.4463 11.3448 10.2755 11.5993 10.0465C11.6222 10.0259 11.6464 10.0043 11.6715 9.9819C11.8993 9.77891 12.2112 9.50087 12.4514 9.14063C12.7423 8.70427 12.9168 8.17736 12.9168 7.5C12.9168 6.53081 12.5264 5.74988 11.9065 5.22395C11.3048 4.71338 10.5321 4.47916 9.79183 4.47916C9.05153 4.47916 8.2789 4.71338 7.67716 5.22395C7.0573 5.74988 6.66683 6.53081 6.66683 7.5C6.66683 7.96023 7.03993 8.33333 7.50016 8.33333C7.9604 8.33333 8.3335 7.96023 8.3335 7.5Z" fill="#F04E29"/>
<path d="M10.6251 15.5597C10.9347 15.2192 10.9096 14.6922 10.5691 14.3826C10.2285 14.073 9.70149 14.098 9.39189 14.4386L9.38356 14.4478C9.07396 14.7883 9.09905 15.3153 9.43959 15.6249C9.78013 15.9345 10.3072 15.9094 10.6168 15.5689L10.6251 15.5597Z" fill="#F04E29"/>
<path fill-rule="evenodd" clip-rule="evenodd" d="M10.0002 0.833328C4.93743 0.833328 0.833496 4.93726 0.833496 10C0.833496 15.0627 4.93743 19.1667 10.0002 19.1667C15.0629 19.1667 19.1668 15.0627 19.1668 10C19.1668 4.93726 15.0629 0.833328 10.0002 0.833328ZM2.50016 10C2.50016 5.85773 5.8579 2.49999 10.0002 2.49999C14.1424 2.49999 17.5002 5.85773 17.5002 10C17.5002 14.1423 14.1424 17.5 10.0002 17.5C5.8579 17.5 2.50016 14.1423 2.50016 10Z" fill="#F04E29"/>
</g>
<defs>
<clipPath id="clip0_127_1888">
<rect width="20" height="20" fill="white"/>
</clipPath>
</defs>
</svg>
