<svg width="107" height="70" viewBox="0 0 107 70" fill="none" xmlns="http://www.w3.org/2000/svg">
<g filter="url(#filter0_d_1156_10115)">
<path fill-rule="evenodd" clip-rule="evenodd" d="M24 14C19.5817 14 16 17.5817 16 22L16 37.2779C16 41.6961 19.5817 45.2779 24 45.2779L45.0755 45.2779C45.1762 45.7197 45.4344 46.1382 45.8765 46.4503L52.3455 51.0182C53.037 51.5065 53.9612 51.5065 54.6527 51.0182L61.1217 46.4503C61.5638 46.1382 61.822 45.7197 61.9227 45.2779L83 45.2779C87.4183 45.2779 91 41.6962 91 37.2779L91 22C91 17.5817 87.4183 14 83 14L24 14Z" fill="white"/>
</g>
<defs>
<filter id="filter0_d_1156_10115" x="0" y="0" width="107" height="69.3845" filterUnits="userSpaceOnUse" color-interpolation-filters="sRGB">
<feFlood flood-opacity="0" result="BackgroundImageFix"/>
<feColorMatrix in="SourceAlpha" type="matrix" values="0 0 0 0 0 0 0 0 0 0 0 0 0 0 0 0 0 0 127 0" result="hardAlpha"/>
<feOffset dy="2"/>
<feGaussianBlur stdDeviation="8"/>
<feComposite in2="hardAlpha" operator="out"/>
<feColorMatrix type="matrix" values="0 0 0 0 0.0509804 0 0 0 0 0.0392157 0 0 0 0 0.172549 0 0 0 0.12 0"/>
<feBlend mode="normal" in2="BackgroundImageFix" result="effect1_dropShadow_1156_10115"/>
<feBlend mode="normal" in="SourceGraphic" in2="effect1_dropShadow_1156_10115" result="shape"/>
</filter>
</defs>
</svg>
