<svg width="25" height="24" viewBox="0 0 25 24" fill="none" xmlns="http://www.w3.org/2000/svg">
<path d="M2.34375 1.5C2.13655 1.5 1.93784 1.57902 1.79132 1.71967C1.64481 1.86032 1.5625 2.05109 1.5625 2.25V6.75C1.5625 6.94891 1.48019 7.13968 1.33368 7.28033C1.18716 7.42098 0.98845 7.5 0.78125 7.5C0.57405 7.5 0.375336 7.42098 0.228823 7.28033C0.08231 7.13968 0 6.94891 0 6.75V2.25C0 1.65326 0.24693 1.08097 0.686468 0.65901C1.12601 0.237053 1.72215 0 2.34375 0L7.03125 0C7.23845 0 7.43716 0.0790176 7.58368 0.21967C7.73019 0.360322 7.8125 0.551088 7.8125 0.75C7.8125 0.948912 7.73019 1.13968 7.58368 1.28033C7.43716 1.42098 7.23845 1.5 7.03125 1.5H2.34375ZM17.1875 0.75C17.1875 0.551088 17.2698 0.360322 17.4163 0.21967C17.5628 0.0790176 17.7615 0 17.9688 0L22.6562 0C23.2779 0 23.874 0.237053 24.3135 0.65901C24.7531 1.08097 25 1.65326 25 2.25V6.75C25 6.94891 24.9177 7.13968 24.7712 7.28033C24.6247 7.42098 24.426 7.5 24.2188 7.5C24.0115 7.5 23.8128 7.42098 23.6663 7.28033C23.5198 7.13968 23.4375 6.94891 23.4375 6.75V2.25C23.4375 2.05109 23.3552 1.86032 23.2087 1.71967C23.0622 1.57902 22.8635 1.5 22.6562 1.5H17.9688C17.7615 1.5 17.5628 1.42098 17.4163 1.28033C17.2698 1.13968 17.1875 0.948912 17.1875 0.75ZM0.78125 16.5C0.98845 16.5 1.18716 16.579 1.33368 16.7197C1.48019 16.8603 1.5625 17.0511 1.5625 17.25V21.75C1.5625 21.9489 1.64481 22.1397 1.79132 22.2803C1.93784 22.421 2.13655 22.5 2.34375 22.5H7.03125C7.23845 22.5 7.43716 22.579 7.58368 22.7197C7.73019 22.8603 7.8125 23.0511 7.8125 23.25C7.8125 23.4489 7.73019 23.6397 7.58368 23.7803C7.43716 23.921 7.23845 24 7.03125 24H2.34375C1.72215 24 1.12601 23.7629 0.686468 23.341C0.24693 22.919 0 22.3467 0 21.75L0 17.25C0 17.0511 0.08231 16.8603 0.228823 16.7197C0.375336 16.579 0.57405 16.5 0.78125 16.5ZM24.2188 16.5C24.426 16.5 24.6247 16.579 24.7712 16.7197C24.9177 16.8603 25 17.0511 25 17.25V21.75C25 22.3467 24.7531 22.919 24.3135 23.341C23.874 23.7629 23.2779 24 22.6562 24H17.9688C17.7615 24 17.5628 23.921 17.4163 23.7803C17.2698 23.6397 17.1875 23.4489 17.1875 23.25C17.1875 23.0511 17.2698 22.8603 17.4163 22.7197C17.5628 22.579 17.7615 22.5 17.9688 22.5H22.6562C22.8635 22.5 23.0622 22.421 23.2087 22.2803C23.3552 22.1397 23.4375 21.9489 23.4375 21.75V17.25C23.4375 17.0511 23.5198 16.8603 23.6663 16.7197C23.8128 16.579 24.0115 16.5 24.2188 16.5ZM4.6875 6.75C4.6875 6.55109 4.76981 6.36032 4.91632 6.21967C5.06284 6.07902 5.26155 6 5.46875 6C5.67595 6 5.87466 6.07902 6.02118 6.21967C6.16769 6.36032 6.25 6.55109 6.25 6.75V17.25C6.25 17.4489 6.16769 17.6397 6.02118 17.7803C5.87466 17.921 5.67595 18 5.46875 18C5.26155 18 5.06284 17.921 4.91632 17.7803C4.76981 17.6397 4.6875 17.4489 4.6875 17.25V6.75ZM7.8125 6.75C7.8125 6.55109 7.89481 6.36032 8.04132 6.21967C8.18784 6.07902 8.38655 6 8.59375 6C8.80095 6 8.99966 6.07902 9.14618 6.21967C9.29269 6.36032 9.375 6.55109 9.375 6.75V17.25C9.375 17.4489 9.29269 17.6397 9.14618 17.7803C8.99966 17.921 8.80095 18 8.59375 18C8.38655 18 8.18784 17.921 8.04132 17.7803C7.89481 17.6397 7.8125 17.4489 7.8125 17.25V6.75ZM10.9375 6.75C10.9375 6.55109 11.0198 6.36032 11.1663 6.21967C11.3128 6.07902 11.5115 6 11.7188 6C11.926 6 12.1247 6.07902 12.2712 6.21967C12.4177 6.36032 12.5 6.55109 12.5 6.75V17.25C12.5 17.4489 12.4177 17.6397 12.2712 17.7803C12.1247 17.921 11.926 18 11.7188 18C11.5115 18 11.3128 17.921 11.1663 17.7803C11.0198 17.6397 10.9375 17.4489 10.9375 17.25V6.75ZM14.0625 6.75C14.0625 6.55109 14.1448 6.36032 14.2913 6.21967C14.4378 6.07902 14.6365 6 14.8438 6H16.4062C16.6135 6 16.8122 6.07902 16.9587 6.21967C17.1052 6.36032 17.1875 6.55109 17.1875 6.75V17.25C17.1875 17.4489 17.1052 17.6397 16.9587 17.7803C16.8122 17.921 16.6135 18 16.4062 18H14.8438C14.6365 18 14.4378 17.921 14.2913 17.7803C14.1448 17.6397 14.0625 17.4489 14.0625 17.25V6.75ZM18.75 6.75C18.75 6.55109 18.8323 6.36032 18.9788 6.21967C19.1253 6.07902 19.324 6 19.5312 6C19.7385 6 19.9372 6.07902 20.0837 6.21967C20.2302 6.36032 20.3125 6.55109 20.3125 6.75V17.25C20.3125 17.4489 20.2302 17.6397 20.0837 17.7803C19.9372 17.921 19.7385 18 19.5312 18C19.324 18 19.1253 17.921 18.9788 17.7803C18.8323 17.6397 18.75 17.4489 18.75 17.25V6.75Z" fill="#F04E29"/>
</svg>
