<svg width="13" height="6" viewBox="0 0 13 6" fill="none" xmlns="http://www.w3.org/2000/svg">
<mask id="mask0_269_702" style="mask-type:luminance" maskUnits="userSpaceOnUse" x="0" y="0" width="13" height="6">
<path d="M0 0H13V6H0V0Z" fill="white"/>
</mask>
<g mask="url(#mask0_269_702)">
<path fill-rule="evenodd" clip-rule="evenodd" d="M-2.03162 0H15.0301V6H-2.03162V0Z" fill="white"/>
<path fill-rule="evenodd" clip-rule="evenodd" d="M-2.03162 4.02891H15.0301V6H-2.03162V4.02891Z" fill="#DA0000"/>
<path fill-rule="evenodd" clip-rule="evenodd" d="M1.2135 4.11328H2.14656V4.15195H1.2135V4.11328ZM1.35251 4.31016H1.41725V4.34883H1.35251V4.31016ZM2.15037 4.31016V4.34883H1.96376V4.30898L2.15037 4.31016ZM2.24939 4.11328H2.31413V4.34766H2.24939V4.11328Z" fill="white"/>
<path fill-rule="evenodd" clip-rule="evenodd" d="M2.62231 4.30899V4.34883H2.26812V4.30899H2.62231ZM1.96345 4.21641H2.02439V4.34883H1.96155L1.96345 4.21641Z" fill="white"/>
<path fill-rule="evenodd" clip-rule="evenodd" d="M2.56929 4.11328H2.63404V4.34766H2.56929V4.11328ZM2.40934 4.11328H2.47218V4.34766H2.40934V4.11328ZM1.55626 4.20703V4.24687H1.2135V4.20703H1.55626ZM2.30461 4.20703V4.24687H1.96185V4.20703H2.30461Z" fill="white"/>
<path fill-rule="evenodd" clip-rule="evenodd" d="M1.96345 4.21758H2.02439V4.34765H1.96155L1.96345 4.21758Z" fill="white"/>
<path fill-rule="evenodd" clip-rule="evenodd" d="M1.96345 4.21758H2.02439V4.34765H1.96155L1.96345 4.21758Z" fill="white"/>
<path fill-rule="evenodd" clip-rule="evenodd" d="M1.96332 4.21758H2.02425V4.34765H1.96141L1.96332 4.21758ZM1.21497 4.21758H1.2778V4.34765H1.21497V4.21758ZM1.76338 4.21758H1.82812V4.34765H1.76338V4.21758ZM1.49108 4.21758H1.55582V4.34765H1.49108V4.21758Z" fill="white"/>
<path fill-rule="evenodd" clip-rule="evenodd" d="M1.80719 4.30898V4.34883H1.51965V4.30898H1.80719ZM1.82623 4.20703V4.24687H1.64343V4.20703H1.82623Z" fill="white"/>
<path fill-rule="evenodd" clip-rule="evenodd" d="M1.08769 4.30899V4.34883H0.733506V4.30899H1.08769ZM0.428833 4.21641H0.491672V4.34883H0.428833V4.21641Z" fill="white"/>
<path fill-rule="evenodd" clip-rule="evenodd" d="M1.03414 4.11328H1.09888V4.34766H1.03414V4.11328ZM0.874185 4.11328H0.937024V4.34766H0.874185V4.11328ZM0.0211014 4.20703V4.24687H-0.321655V4.20703H0.0211014ZM0.769454 4.20703V4.24687H0.426697V4.20703H0.769454Z" fill="white"/>
<path fill-rule="evenodd" clip-rule="evenodd" d="M0.428833 4.21758H0.491672V4.34765H0.428833V4.21758Z" fill="white"/>
<path fill-rule="evenodd" clip-rule="evenodd" d="M0.428833 4.21758H0.491672V4.34765H0.428833V4.21758Z" fill="white"/>
<path fill-rule="evenodd" clip-rule="evenodd" d="M0.42865 4.21758H0.491489V4.34765H0.42865V4.21758ZM-0.319702 4.21758H-0.256864V4.34765H-0.319702V4.21758ZM0.228709 4.21758H0.291547V4.34765H0.228709V4.21758ZM-0.0435926 4.21758H0.0211504V4.34765H-0.0435926V4.21758Z" fill="white"/>
<path fill-rule="evenodd" clip-rule="evenodd" d="M0.272081 4.30898V4.34883H-0.0135498V4.30898H0.272081ZM0.291123 4.20703V4.24687H0.108319V4.20703H0.291123Z" fill="white"/>
<path fill-rule="evenodd" clip-rule="evenodd" d="M2.73499 4.11328H3.66805V4.15195H2.73499V4.11328ZM2.87399 4.31016H2.93874V4.34883H2.87399V4.31016ZM3.67185 4.31016V4.34883H3.48524V4.30898L3.67185 4.31016ZM3.77278 4.11328H3.83752V4.34766H3.77278V4.11328Z" fill="white"/>
<path fill-rule="evenodd" clip-rule="evenodd" d="M4.14384 4.30899V4.34883H3.78966V4.30899H4.14384ZM3.48499 4.21641H3.54973V4.34883H3.48499V4.21641Z" fill="white"/>
<path fill-rule="evenodd" clip-rule="evenodd" d="M4.09078 4.11328H4.15552V4.34766H4.09078V4.11328ZM3.93083 4.11328H3.99557V4.34766H3.92892L3.93083 4.11328ZM3.07774 4.20703V4.24687H2.73499V4.20703H3.07774ZM3.82609 4.20703V4.24687H3.48334V4.20703H3.82609Z" fill="white"/>
<path fill-rule="evenodd" clip-rule="evenodd" d="M3.48499 4.21758H3.54973V4.34765H3.48499V4.21758Z" fill="white"/>
<path fill-rule="evenodd" clip-rule="evenodd" d="M3.48499 4.21758H3.54973V4.34765H3.48499V4.21758Z" fill="white"/>
<path fill-rule="evenodd" clip-rule="evenodd" d="M3.4848 4.21758H3.54955V4.34765H3.4848V4.21758ZM2.73645 4.21758H2.80119V4.34765H2.73645V4.21758ZM3.28486 4.21758H3.3496V4.34765H3.28486V4.21758ZM3.01256 4.21758H3.0773V4.34765H3.01256V4.21758Z" fill="white"/>
<path fill-rule="evenodd" clip-rule="evenodd" d="M3.33058 4.30898V4.34883H3.04114V4.30898H3.33058ZM3.34962 4.20703V4.24687H3.16682V4.20703H3.34962Z" fill="white"/>
<path fill-rule="evenodd" clip-rule="evenodd" d="M4.26526 4.11328H5.20022V4.15195H4.26716L4.26526 4.11328ZM4.40617 4.31016H4.46901V4.34883H4.40617V4.31016ZM5.20213 4.31016V4.34883H5.01552V4.30898L5.20213 4.31016ZM5.30305 4.11328H5.36779V4.34766H5.30305V4.11328Z" fill="white"/>
<path fill-rule="evenodd" clip-rule="evenodd" d="M5.67651 4.30899V4.34883H5.32232V4.30899H5.67651ZM5.01575 4.21641H5.08049V4.34883H5.01575V4.21641Z" fill="white"/>
<path fill-rule="evenodd" clip-rule="evenodd" d="M5.62349 4.11328H5.68824V4.34766H5.62349V4.11328ZM5.46164 4.11328H5.52638V4.34766H5.46164V4.11328ZM4.60855 4.20703V4.24687H4.2677V4.20703H4.60855ZM5.3569 4.20703V4.24687H5.01605V4.20703H5.3569Z" fill="white"/>
<path fill-rule="evenodd" clip-rule="evenodd" d="M5.01575 4.21758H5.08049V4.34765H5.01575V4.21758Z" fill="white"/>
<path fill-rule="evenodd" clip-rule="evenodd" d="M5.01575 4.21758H5.08049V4.34765H5.01575V4.21758Z" fill="white"/>
<path fill-rule="evenodd" clip-rule="evenodd" d="M5.01556 4.21758H5.08031V4.34765H5.01556V4.21758ZM4.26721 4.21758H4.33195V4.34765H4.26721V4.21758ZM4.81562 4.21758H4.88037V4.34765H4.81562V4.21758ZM4.54523 4.21758H4.60806V4.34765H4.54523V4.21758Z" fill="white"/>
<path fill-rule="evenodd" clip-rule="evenodd" d="M4.86139 4.30898V4.34883H4.57385V4.30898H4.86139ZM4.88043 4.20703V4.24687H4.69763V4.20703H4.88043Z" fill="white"/>
<path fill-rule="evenodd" clip-rule="evenodd" d="M5.80432 4.11328H6.73738V4.15195H5.80432V4.11328ZM5.94333 4.31016H6.00807V4.34883H5.94333V4.31016ZM6.74119 4.31016V4.34883H6.55458V4.30898L6.74119 4.31016ZM6.84211 4.11328H6.90495V4.34766H6.84211V4.11328Z" fill="white"/>
<path fill-rule="evenodd" clip-rule="evenodd" d="M7.21318 4.30899V4.34883H6.85899V4.30899H7.21318ZM6.55432 4.21641H6.61906V4.34883H6.55432V4.21641Z" fill="white"/>
<path fill-rule="evenodd" clip-rule="evenodd" d="M7.16011 4.11328H7.22486V4.34766H7.16011V4.11328ZM7.00016 4.11328H7.0649V4.34766H7.00016V4.11328ZM6.14708 4.20703V4.24687H5.80432V4.20703H6.14708ZM6.89543 4.20703V4.24687H6.55267V4.20703H6.89543Z" fill="white"/>
<path fill-rule="evenodd" clip-rule="evenodd" d="M6.55432 4.21758H6.61906V4.34765H6.55432V4.21758Z" fill="white"/>
<path fill-rule="evenodd" clip-rule="evenodd" d="M6.55432 4.21758H6.61906V4.34765H6.55432V4.21758Z" fill="white"/>
<path fill-rule="evenodd" clip-rule="evenodd" d="M6.55463 4.21758H6.61937V4.34765H6.55463V4.21758ZM5.80627 4.21758H5.86911V4.34765H5.80627V4.21758ZM6.35468 4.21758H6.41943V4.34765H6.35468V4.21758ZM6.08238 4.21758H6.14713V4.34765H6.08048L6.08238 4.21758Z" fill="white"/>
<path fill-rule="evenodd" clip-rule="evenodd" d="M6.39991 4.30898V4.34883H6.11047V4.30898H6.39991ZM6.41895 4.20703V4.24687H6.23234V4.20703H6.41895Z" fill="white"/>
<path fill-rule="evenodd" clip-rule="evenodd" d="M-2.03162 0H15.0301V1.97109H-2.03162V0Z" fill="#239F40"/>
<path fill-rule="evenodd" clip-rule="evenodd" d="M7.35022 4.11328H8.28328V4.15195H7.35022V4.11328ZM7.48923 4.31016H7.55397V4.34883H7.48923V4.31016ZM8.28709 4.31016V4.34883H8.09857V4.30898L8.28709 4.31016ZM8.38801 4.11328H8.45085V4.34766H8.38801V4.11328Z" fill="white"/>
<path fill-rule="evenodd" clip-rule="evenodd" d="M8.75951 4.30899V4.34883H8.40533V4.30899H8.75951ZM8.10066 4.21641H8.1654V4.34883H8.09875L8.10066 4.21641Z" fill="white"/>
<path fill-rule="evenodd" clip-rule="evenodd" d="M8.70792 4.11328H8.77076V4.34766H8.70792V4.11328ZM8.54606 4.11328H8.6108V4.34766H8.54606V4.11328ZM7.69298 4.20703V4.24687H7.35022V4.20703H7.69298ZM8.44133 4.20703V4.24687H8.09857V4.20703H8.44133Z" fill="white"/>
<path fill-rule="evenodd" clip-rule="evenodd" d="M8.09875 4.21758H8.1654V4.34765H8.09875V4.21758Z" fill="white"/>
<path fill-rule="evenodd" clip-rule="evenodd" d="M8.09875 4.21758H8.1654V4.34765H8.09875V4.21758Z" fill="white"/>
<path fill-rule="evenodd" clip-rule="evenodd" d="M8.09862 4.21758H8.16527V4.34765H8.09862V4.21758ZM7.35217 4.21758H7.41692V4.34765H7.35217V4.21758ZM7.90058 4.21758H7.96533V4.34765H7.90058V4.21758ZM7.62828 4.21758H7.69303V4.34765H7.62828V4.21758Z" fill="white"/>
<path fill-rule="evenodd" clip-rule="evenodd" d="M7.9463 4.30898V4.34883H7.65686V4.30898H7.9463ZM7.96534 4.20703V4.24687H7.78254V4.20703H7.96534Z" fill="white"/>
<path fill-rule="evenodd" clip-rule="evenodd" d="M8.88733 4.11328H9.82039V4.15195H8.88733V4.11328ZM9.02634 4.31016H9.09108V4.34883H9.02634V4.31016ZM9.8261 4.31016V4.34883H9.63759V4.30898L9.8261 4.31016ZM9.92512 4.11328H9.98986V4.34766H9.92512V4.11328Z" fill="white"/>
<path fill-rule="evenodd" clip-rule="evenodd" d="M10.2962 4.30899V4.34883H9.942V4.30899H10.2962ZM9.63733 4.21641H9.70207V4.34883H9.63733V4.21641Z" fill="white"/>
<path fill-rule="evenodd" clip-rule="evenodd" d="M10.2447 4.11328H10.3075V4.34766H10.2447V4.11328ZM10.0829 4.11328H10.1476V4.34766H10.0829V4.11328ZM9.22977 4.20703V4.24687H8.88892V4.20703H9.22977ZM9.97812 4.20703V4.24687H9.63727V4.20703H9.97812Z" fill="white"/>
<path fill-rule="evenodd" clip-rule="evenodd" d="M9.63733 4.21758H9.70207V4.34765H9.63733V4.21758Z" fill="white"/>
<path fill-rule="evenodd" clip-rule="evenodd" d="M9.63733 4.21758H9.70207V4.34765H9.63733V4.21758Z" fill="white"/>
<path fill-rule="evenodd" clip-rule="evenodd" d="M9.63715 4.21758H9.70189V4.34765H9.63715V4.21758ZM8.88879 4.21758H8.95354V4.34765H8.88879V4.21758ZM9.4372 4.21758H9.50195V4.34765H9.4372V4.21758ZM9.1649 4.21758H9.22965V4.34765H9.16681L9.1649 4.21758Z" fill="white"/>
<path fill-rule="evenodd" clip-rule="evenodd" d="M9.48297 4.30898V4.34883H9.19543V4.30898H9.48297ZM9.50201 4.20703V4.24687H9.3173V4.20703H9.50201Z" fill="white"/>
<path fill-rule="evenodd" clip-rule="evenodd" d="M10.4259 4.11328H11.359V4.15195H10.4259V4.11328ZM10.5649 4.31016H10.6297V4.34883H10.5649V4.31016ZM11.3628 4.31016V4.34883H11.1762V4.30898L11.3628 4.31016ZM11.4618 4.11328H11.5265V4.34766H11.4618V4.11328Z" fill="white"/>
<path fill-rule="evenodd" clip-rule="evenodd" d="M11.8347 4.30899V4.34883H11.4805V4.30899H11.8347ZM11.174 4.21641H11.2387V4.34883H11.174V4.21641Z" fill="white"/>
<path fill-rule="evenodd" clip-rule="evenodd" d="M11.7817 4.11328H11.8464V4.34766H11.7817V4.11328ZM11.6217 4.11328H11.6846V4.34766H11.6217V4.11328ZM10.7687 4.20703V4.24687H10.4259V4.20703H10.7687ZM11.517 4.20703V4.24687H11.1743V4.20703H11.517Z" fill="white"/>
<path fill-rule="evenodd" clip-rule="evenodd" d="M11.1759 4.21758H11.2387V4.34765H11.1759V4.21758Z" fill="white"/>
<path fill-rule="evenodd" clip-rule="evenodd" d="M11.1759 4.21758H11.2387V4.34765H11.1759V4.21758Z" fill="white"/>
<path fill-rule="evenodd" clip-rule="evenodd" d="M11.1762 4.21758H11.239V4.34765H11.1762V4.21758ZM10.4259 4.21758H10.4906V4.34765H10.4259V4.21758ZM10.9762 4.21758H11.0391V4.34765H10.9762V4.21758ZM10.7039 4.21758H10.7687V4.34765H10.7039V4.21758Z" fill="white"/>
<path fill-rule="evenodd" clip-rule="evenodd" d="M11.0201 4.30898V4.34883H10.7325V4.30898H11.0201ZM11.0391 4.20703V4.24687H10.8563V4.20703H11.0391Z" fill="white"/>
<path fill-rule="evenodd" clip-rule="evenodd" d="M11.9718 4.11328H12.9049V4.15195H11.9718V4.11328ZM12.1108 4.31016H12.1756V4.34883H12.1108V4.31016ZM12.9087 4.31016V4.34883H12.7221V4.30898L12.9087 4.31016ZM13.0077 4.11328H13.0724V4.34766H13.0077V4.11328Z" fill="white"/>
<path fill-rule="evenodd" clip-rule="evenodd" d="M13.3807 4.30899V4.34883H13.0265V4.30899H13.3807ZM12.7218 4.21641H12.7846V4.34883H12.7218V4.21641Z" fill="white"/>
<path fill-rule="evenodd" clip-rule="evenodd" d="M13.3276 4.11328H13.3923V4.34766H13.3276V4.11328ZM13.1676 4.11328H13.2305V4.34766H13.1676V4.11328ZM12.3146 4.20703V4.24687H11.9718V4.20703H12.3146ZM13.0629 4.20703V4.24687H12.7202V4.20703H13.0629Z" fill="white"/>
<path fill-rule="evenodd" clip-rule="evenodd" d="M12.7218 4.21758H12.7846V4.34765H12.7218V4.21758Z" fill="white"/>
<path fill-rule="evenodd" clip-rule="evenodd" d="M12.7218 4.21758H12.7846V4.34765H12.7218V4.21758Z" fill="white"/>
<path fill-rule="evenodd" clip-rule="evenodd" d="M12.7221 4.21758H12.7849V4.34765H12.7221V4.21758ZM11.9738 4.21758H12.0366V4.34765H11.9738V4.21758ZM12.5222 4.21758H12.5869V4.34765H12.5222V4.21758ZM12.2499 4.21758H12.3146V4.34765H12.2499V4.21758Z" fill="white"/>
<path fill-rule="evenodd" clip-rule="evenodd" d="M12.566 4.30898V4.34883H12.2784V4.30898H12.566ZM12.585 4.20703V4.24687H12.4022V4.20703H12.585Z" fill="white"/>
<path fill-rule="evenodd" clip-rule="evenodd" d="M1.2135 1.68047H2.14656V1.72031H1.2135V1.68047ZM1.35251 1.87968H1.41725V1.91718H1.35251V1.87968ZM2.15037 1.87734V1.91718H1.96376V1.87734H2.15037ZM2.24939 1.68047H2.31413V1.91718H2.24939V1.68047Z" fill="white"/>
<path fill-rule="evenodd" clip-rule="evenodd" d="M2.62231 1.87738V1.91723H2.26812V1.87738H2.62231ZM1.96345 1.78481H2.02439V1.91723H1.96155L1.96345 1.78481Z" fill="white"/>
<path fill-rule="evenodd" clip-rule="evenodd" d="M2.56929 1.68047H2.63404V1.91718H2.56929V1.68047ZM2.40934 1.68047H2.47218V1.91718H2.40934V1.68047ZM1.55626 1.77422V1.81406H1.2135V1.77539L1.55626 1.77422ZM2.30461 1.77422V1.81406H1.96185V1.77539L2.30461 1.77422Z" fill="white"/>
<path fill-rule="evenodd" clip-rule="evenodd" d="M1.96345 1.78481H2.02439V1.91723H1.96155L1.96345 1.78481Z" fill="white"/>
<path fill-rule="evenodd" clip-rule="evenodd" d="M1.96345 1.78481H2.02439V1.91723H1.96155L1.96345 1.78481Z" fill="white"/>
<path fill-rule="evenodd" clip-rule="evenodd" d="M1.96332 1.78481H2.02425V1.91723H1.96141L1.96332 1.78481ZM1.21497 1.78481H1.2778V1.91723H1.21497V1.78481ZM1.76338 1.78481H1.82812V1.91723H1.76338V1.78481ZM1.49108 1.78481H1.55582V1.91723H1.49108V1.78481Z" fill="white"/>
<path fill-rule="evenodd" clip-rule="evenodd" d="M1.80719 1.87739V1.91723H1.51965V1.87739H1.80719ZM1.82623 1.77544V1.81411H1.64343V1.77544H1.82623Z" fill="white"/>
<path fill-rule="evenodd" clip-rule="evenodd" d="M-0.321655 1.68047H0.611405V1.72031H-0.321655V1.68047ZM-0.182648 1.87968H-0.117906V1.91718H-0.184553L-0.182648 1.87968ZM0.615213 1.87734V1.91718H0.428601V1.87734H0.615213ZM0.714232 1.68047H0.778975V1.91718H0.714232V1.68047Z" fill="white"/>
<path fill-rule="evenodd" clip-rule="evenodd" d="M1.08769 1.87738V1.91723H0.733506V1.87738H1.08769ZM0.428833 1.78481H0.491672V1.91723H0.428833V1.78481Z" fill="white"/>
<path fill-rule="evenodd" clip-rule="evenodd" d="M0.428833 1.78481H0.491672V1.91723H0.428833V1.78481Z" fill="white"/>
<path fill-rule="evenodd" clip-rule="evenodd" d="M0.428833 1.78481H0.491672V1.91723H0.428833V1.78481Z" fill="white"/>
<path fill-rule="evenodd" clip-rule="evenodd" d="M0.42865 1.78481H0.491489V1.91723H0.42865V1.78481ZM-0.319702 1.78481H-0.256864V1.91723H-0.319702V1.78481ZM0.228709 1.78481H0.291547V1.91723H0.228709V1.78481ZM-0.0435926 1.78481H0.0211504V1.91723H-0.0435926V1.78481Z" fill="white"/>
<path fill-rule="evenodd" clip-rule="evenodd" d="M0.272081 1.87739V1.91723H-0.0135498V1.87739H0.272081ZM0.291123 1.77544V1.81411H0.108319V1.77544H0.291123Z" fill="white"/>
<path fill-rule="evenodd" clip-rule="evenodd" d="M2.73499 1.68047H3.66805V1.72031H2.73499V1.68047ZM2.87399 1.87968H2.93874V1.91718H2.87399V1.87968ZM3.67185 1.87734V1.91718H3.48524V1.87734H3.67185ZM3.77278 1.68047H3.83752V1.91718H3.77278V1.68047Z" fill="white"/>
<path fill-rule="evenodd" clip-rule="evenodd" d="M4.14384 1.87738V1.91723H3.78966V1.87738H4.14384ZM3.48499 1.78481H3.54973V1.91723H3.48499V1.78481Z" fill="white"/>
<path fill-rule="evenodd" clip-rule="evenodd" d="M4.09078 1.68047H4.15552V1.91718H4.09078V1.68047ZM3.93083 1.68047H3.99557V1.91718H3.92892L3.93083 1.68047ZM3.07774 1.77422V1.81406H2.73499V1.77539L3.07774 1.77422ZM3.82609 1.77422V1.81406H3.48334V1.77539L3.82609 1.77422Z" fill="white"/>
<path fill-rule="evenodd" clip-rule="evenodd" d="M3.48499 1.78481H3.54973V1.91723H3.48499V1.78481Z" fill="white"/>
<path fill-rule="evenodd" clip-rule="evenodd" d="M3.48499 1.78481H3.54973V1.91723H3.48499V1.78481Z" fill="white"/>
<path fill-rule="evenodd" clip-rule="evenodd" d="M3.4848 1.78481H3.54955V1.91723H3.4848V1.78481ZM2.73645 1.78481H2.80119V1.91723H2.73645V1.78481ZM3.28486 1.78481H3.3496V1.91723H3.28486V1.78481ZM3.01256 1.78481H3.0773V1.91723H3.01256V1.78481Z" fill="white"/>
<path fill-rule="evenodd" clip-rule="evenodd" d="M3.33058 1.87739V1.91723H3.04114V1.87739H3.33058ZM3.34962 1.77544V1.81411H3.16682V1.77544H3.34962Z" fill="white"/>
<path fill-rule="evenodd" clip-rule="evenodd" d="M4.26526 1.68047H5.20022V1.72031H4.26716L4.26526 1.68047ZM4.40617 1.87968H4.46901V1.91718H4.40617V1.87968ZM5.20213 1.87734V1.91718H5.01552V1.87734H5.20213ZM5.30305 1.68047H5.36779V1.91718H5.30305V1.68047Z" fill="white"/>
<path fill-rule="evenodd" clip-rule="evenodd" d="M5.67651 1.87738V1.91723H5.32232V1.87738H5.67651ZM5.01575 1.78481H5.08049V1.91723H5.01575V1.78481Z" fill="white"/>
<path fill-rule="evenodd" clip-rule="evenodd" d="M5.62349 1.68051H5.68824V1.91723H5.62349V1.68051ZM5.46164 1.68051H5.52638V1.91723H5.46164V1.68051ZM4.60855 1.77426V1.81411H4.2677V1.77543L4.60855 1.77426ZM5.3569 1.77426V1.81411H5.01605V1.77543L5.3569 1.77426Z" fill="white"/>
<path fill-rule="evenodd" clip-rule="evenodd" d="M5.01575 1.78481H5.08049V1.91723H5.01575V1.78481Z" fill="white"/>
<path fill-rule="evenodd" clip-rule="evenodd" d="M5.01575 1.78481H5.08049V1.91723H5.01575V1.78481Z" fill="white"/>
<path fill-rule="evenodd" clip-rule="evenodd" d="M5.01556 1.78481H5.08031V1.91723H5.01556V1.78481ZM4.26721 1.78481H4.33195V1.91723H4.26721V1.78481ZM4.81562 1.78481H4.88037V1.91723H4.81562V1.78481ZM4.54523 1.78481H4.60806V1.91723H4.54523V1.78481Z" fill="white"/>
<path fill-rule="evenodd" clip-rule="evenodd" d="M4.86139 1.87739V1.91723H4.57385V1.87739H4.86139ZM4.88043 1.77544V1.81411H4.69763V1.77544H4.88043Z" fill="white"/>
<path fill-rule="evenodd" clip-rule="evenodd" d="M5.80432 1.68047H6.73738V1.72031H5.80432V1.68047ZM5.94333 1.87968H6.00807V1.91718H5.94333V1.87968ZM6.74119 1.87734V1.91718H6.55458V1.87734H6.74119ZM6.84211 1.68047H6.90495V1.91718H6.84211V1.68047Z" fill="white"/>
<path fill-rule="evenodd" clip-rule="evenodd" d="M7.21318 1.87738V1.91723H6.85899V1.87738H7.21318ZM6.55432 1.78481H6.61906V1.91723H6.55432V1.78481Z" fill="white"/>
<path fill-rule="evenodd" clip-rule="evenodd" d="M7.16011 1.68047H7.22486V1.91718H7.16011V1.68047ZM7.00016 1.68047H7.0649V1.91718H7.00016V1.68047ZM6.14708 1.77422V1.81406H5.80432V1.77539L6.14708 1.77422ZM6.89543 1.77422V1.81406H6.55267V1.77539L6.89543 1.77422Z" fill="white"/>
<path fill-rule="evenodd" clip-rule="evenodd" d="M6.55432 1.78481H6.61906V1.91723H6.55432V1.78481Z" fill="white"/>
<path fill-rule="evenodd" clip-rule="evenodd" d="M6.55432 1.78481H6.61906V1.91723H6.55432V1.78481Z" fill="white"/>
<path fill-rule="evenodd" clip-rule="evenodd" d="M6.55463 1.78481H6.61937V1.91723H6.55463V1.78481ZM5.80627 1.78481H5.86911V1.91723H5.80627V1.78481ZM6.35468 1.78481H6.41943V1.91723H6.35468V1.78481ZM6.08238 1.78481H6.14713V1.91723H6.08048L6.08238 1.78481Z" fill="white"/>
<path fill-rule="evenodd" clip-rule="evenodd" d="M6.39991 1.87739V1.91723H6.11047V1.87739H6.39991ZM6.41895 1.77544V1.81411H6.23234V1.77544H6.41895Z" fill="white"/>
<path fill-rule="evenodd" clip-rule="evenodd" d="M7.35022 1.68047H8.28328V1.72031H7.35022V1.68047ZM7.48923 1.87968H7.55397V1.91718H7.48923V1.87968ZM8.28709 1.87734V1.91718H8.09857V1.87734H8.28709ZM8.38801 1.68047H8.45085V1.91718H8.38801V1.68047Z" fill="white"/>
<path fill-rule="evenodd" clip-rule="evenodd" d="M8.75951 1.87738V1.91723H8.40533V1.87738H8.75951ZM8.10066 1.78481H8.1654V1.91723H8.09875L8.10066 1.78481Z" fill="white"/>
<path fill-rule="evenodd" clip-rule="evenodd" d="M8.70792 1.68047H8.77076V1.91718H8.70792V1.68047ZM8.54606 1.68047H8.6108V1.91718H8.54606V1.68047ZM7.69298 1.77422V1.81406H7.35022V1.77539L7.69298 1.77422ZM8.44133 1.77422V1.81406H8.09857V1.77539L8.44133 1.77422Z" fill="white"/>
<path fill-rule="evenodd" clip-rule="evenodd" d="M8.09875 1.78481H8.1654V1.91723H8.09875V1.78481Z" fill="white"/>
<path fill-rule="evenodd" clip-rule="evenodd" d="M8.09875 1.78481H8.1654V1.91723H8.09875V1.78481Z" fill="white"/>
<path fill-rule="evenodd" clip-rule="evenodd" d="M8.09862 1.78481H8.16527V1.91723H8.09862V1.78481ZM7.35217 1.78481H7.41692V1.91723H7.35217V1.78481ZM7.90058 1.78481H7.96533V1.91723H7.90058V1.78481ZM7.62828 1.78481H7.69303V1.91723H7.62828V1.78481Z" fill="white"/>
<path fill-rule="evenodd" clip-rule="evenodd" d="M7.9463 1.87739V1.91723H7.65686V1.87739H7.9463ZM7.96534 1.77544V1.81411H7.78254V1.77544H7.96534Z" fill="white"/>
<path fill-rule="evenodd" clip-rule="evenodd" d="M8.88733 1.68047H9.82039V1.72031H8.88733V1.68047ZM9.02634 1.87968H9.09108V1.91718H9.02634V1.87968ZM9.8261 1.87734V1.91718H9.63759V1.87734H9.8261ZM9.92512 1.68047H9.98986V1.91718H9.92512V1.68047Z" fill="white"/>
<path fill-rule="evenodd" clip-rule="evenodd" d="M10.2962 1.87738V1.91723H9.942V1.87738H10.2962ZM9.63733 1.78481H9.70207V1.91723H9.63733V1.78481Z" fill="white"/>
<path fill-rule="evenodd" clip-rule="evenodd" d="M10.2447 1.68042H10.3075V1.91714H10.2447V1.68042ZM10.0829 1.68042H10.1476V1.91714H10.0829V1.68042ZM9.22977 1.77417V1.81401H8.88892V1.77534L9.22977 1.77417ZM9.97812 1.77417V1.81401H9.63727V1.77534L9.97812 1.77417Z" fill="white"/>
<path fill-rule="evenodd" clip-rule="evenodd" d="M9.63733 1.78481H9.70207V1.91723H9.63733V1.78481Z" fill="white"/>
<path fill-rule="evenodd" clip-rule="evenodd" d="M9.63733 1.78481H9.70207V1.91723H9.63733V1.78481Z" fill="white"/>
<path fill-rule="evenodd" clip-rule="evenodd" d="M9.63715 1.78481H9.70189V1.91723H9.63715V1.78481ZM8.88879 1.78481H8.95354V1.91723H8.88879V1.78481ZM9.4372 1.78481H9.50195V1.91723H9.4372V1.78481ZM9.1649 1.78481H9.22965V1.91723H9.16681L9.1649 1.78481Z" fill="white"/>
<path fill-rule="evenodd" clip-rule="evenodd" d="M9.48297 1.87739V1.91723H9.19543V1.87739H9.48297ZM9.50201 1.77544V1.81411H9.3173V1.77544H9.50201Z" fill="white"/>
<path fill-rule="evenodd" clip-rule="evenodd" d="M10.4259 1.68047H11.359V1.72031H10.4259V1.68047ZM10.5649 1.87968H10.6297V1.91718H10.5649V1.87968ZM11.3628 1.87734V1.91718H11.1762V1.87734H11.3628ZM11.4618 1.68047H11.5265V1.91718H11.4618V1.68047Z" fill="white"/>
<path fill-rule="evenodd" clip-rule="evenodd" d="M11.8347 1.87738V1.91723H11.4805V1.87738H11.8347ZM11.174 1.78481H11.2387V1.91723H11.174V1.78481Z" fill="white"/>
<path fill-rule="evenodd" clip-rule="evenodd" d="M11.7817 1.68047H11.8464V1.91718H11.7817V1.68047ZM11.6217 1.68047H11.6846V1.91718H11.6217V1.68047ZM10.7687 1.77422V1.81406H10.4259V1.77539L10.7687 1.77422ZM11.517 1.77422V1.81406H11.1743V1.77539L11.517 1.77422Z" fill="white"/>
<path fill-rule="evenodd" clip-rule="evenodd" d="M11.1759 1.78481H11.2387V1.91723H11.1759V1.78481Z" fill="white"/>
<path fill-rule="evenodd" clip-rule="evenodd" d="M11.1759 1.78481H11.2387V1.91723H11.1759V1.78481Z" fill="white"/>
<path fill-rule="evenodd" clip-rule="evenodd" d="M11.1762 1.78481H11.239V1.91723H11.1762V1.78481ZM10.4259 1.78481H10.4906V1.91723H10.4259V1.78481ZM10.9762 1.78481H11.0391V1.91723H10.9762V1.78481ZM10.7039 1.78481H10.7687V1.91723H10.7039V1.78481Z" fill="white"/>
<path fill-rule="evenodd" clip-rule="evenodd" d="M11.0201 1.87739V1.91723H10.7325V1.87739H11.0201ZM11.0391 1.77544V1.81411H10.8563V1.77544H11.0391Z" fill="white"/>
<path fill-rule="evenodd" clip-rule="evenodd" d="M11.9718 1.68047H12.9049V1.72031H11.9718V1.68047ZM12.1108 1.87968H12.1756V1.91718H12.1108V1.87968ZM12.9087 1.87734V1.91718H12.7221V1.87734H12.9087ZM13.0077 1.68047H13.0724V1.91718H13.0077V1.68047Z" fill="white"/>
<path fill-rule="evenodd" clip-rule="evenodd" d="M13.3807 1.87738V1.91723H13.0265V1.87738H13.3807ZM12.7218 1.78481H12.7846V1.91723H12.7218V1.78481Z" fill="white"/>
<path fill-rule="evenodd" clip-rule="evenodd" d="M13.3276 1.68047H13.3923V1.91718H13.3276V1.68047ZM13.1676 1.68047H13.2305V1.91718H13.1676V1.68047ZM12.3146 1.77422V1.81406H11.9718V1.77539L12.3146 1.77422ZM13.0629 1.77422V1.81406H12.7202V1.77539L13.0629 1.77422Z" fill="white"/>
<path fill-rule="evenodd" clip-rule="evenodd" d="M12.7218 1.78481H12.7846V1.91723H12.7218V1.78481Z" fill="white"/>
<path fill-rule="evenodd" clip-rule="evenodd" d="M12.7218 1.78481H12.7846V1.91723H12.7218V1.78481Z" fill="white"/>
<path fill-rule="evenodd" clip-rule="evenodd" d="M12.7221 1.78481H12.7849V1.91723H12.7221V1.78481ZM11.9738 1.78481H12.0366V1.91723H11.9738V1.78481ZM12.5222 1.78481H12.5869V1.91723H12.5222V1.78481ZM12.2499 1.78481H12.3146V1.91723H12.2499V1.78481Z" fill="white"/>
<path fill-rule="evenodd" clip-rule="evenodd" d="M12.566 1.87739V1.91723H12.2784V1.87739H12.566ZM12.585 1.77544V1.81411H12.4022V1.77544H12.585Z" fill="white"/>
<path fill-rule="evenodd" clip-rule="evenodd" d="M0.314363 3.97852H0.428615V4.10156H0.314363V3.97852ZM3.37061 3.97852H3.48486V4.10156H3.37061V3.97852ZM-2.03162 3.97852H-1.91736V4.10156H-2.03162V3.97852ZM-0.47969 3.97852H-0.365438V4.10156H-0.47969V3.97852ZM1.06081 3.97852H1.17506V4.10156H1.06081V3.97852ZM1.82249 3.97852H1.93674V4.10156H1.82249V3.97852ZM2.60131 3.97852H2.71556V4.10156H2.60131V3.97852ZM4.13229 3.97852H4.24654V4.10156H4.13229V3.97852ZM7.99783 3.97852H8.11398V4.10156H7.99973L7.99783 3.97852ZM4.91111 3.97852H5.02536V4.10156H4.91111V3.97852ZM5.67279 3.97852H5.78705V4.10156H5.67279V3.97852ZM6.444 3.97852H6.55825V4.10156H6.444V3.97852ZM7.21329 3.97852H7.32755V4.10156H7.21329V3.97852ZM13.3677 3.97852H13.4819V4.10156H13.3677V3.97852ZM8.74618 3.97852H8.86043V4.10156H8.74618V3.97852ZM9.52309 3.97852H9.63735V4.10156H9.52309V3.97852ZM10.3095 3.97852H10.4238V4.10156H10.3095V3.97852ZM11.0484 3.97852H11.1626V4.10156H11.0484V3.97852ZM11.8348 3.97852H11.949V4.10156H11.8348V3.97852ZM12.6041 3.97852H12.7183V4.10156H12.6041V3.97852ZM14.8834 3.97852H14.9977V4.10156H14.8834V3.97852ZM14.1446 3.97852H14.2588V4.10156H14.1446V3.97852ZM-1.25851 3.97852H-1.14426V4.10156H-1.25851V3.97852Z" fill="#D90000"/>
<path fill-rule="evenodd" clip-rule="evenodd" d="M0.314363 1.90547H0.428615V2.02852H0.314363V1.90547ZM3.37061 1.90547H3.48486V2.02852H3.37061V1.90547ZM-2.03162 1.90547H-1.91736V2.02852H-2.03162V1.90547ZM-0.47969 1.90547H-0.365438V2.02852H-0.47969V1.90547ZM1.06081 1.90547H1.17506V2.02852H1.06081V1.90547ZM1.82249 1.90547H1.93674V2.02852H1.82249V1.90547ZM2.60131 1.90547H2.71556V2.02852H2.60131V1.90547ZM4.13229 1.90547H4.24654V2.02852H4.13229V1.90547ZM7.99783 1.90547H8.11398V2.02852H7.99973L7.99783 1.90547ZM4.91111 1.90547H5.02536V2.02852H4.91111V1.90547ZM5.67279 1.90547H5.78705V2.02852H5.67279V1.90547ZM6.444 1.90547H6.55825V2.02852H6.444V1.90547ZM7.21329 1.90547H7.32755V2.02852H7.21329V1.90547ZM13.3677 1.90547H13.4819V2.02852H13.3677V1.90547ZM8.74618 1.90547H8.86043V2.02852H8.74618V1.90547ZM9.52309 1.90547H9.63735V2.02852H9.52309V1.90547ZM10.3095 1.90547H10.4238V2.02852H10.3095V1.90547ZM11.0484 1.90547H11.1626V2.02852H11.0484V1.90547ZM11.8348 1.90547H11.949V2.02852H11.8348V1.90547ZM12.6041 1.90547H12.7183V2.02852H12.6041V1.90547ZM14.8834 1.90547H14.9977V2.02852H14.8834V1.90547ZM14.1446 1.90547H14.2588V2.02852H14.1446V1.90547ZM-1.25851 1.90547H-1.14426V2.02852H-1.25851V1.90547Z" fill="#239E3F"/>
<path fill-rule="evenodd" clip-rule="evenodd" d="M6.95256 2.3145C7.11252 2.43637 7.60951 3.10669 6.6536 3.54731C6.20231 3.75591 6.48223 3.76528 6.49556 3.80044C7.21915 3.56489 7.45337 3.2438 7.44766 2.95669C7.44385 2.67075 7.1963 2.41762 6.95256 2.3145Z" fill="#DA0000"/>
<path fill-rule="evenodd" clip-rule="evenodd" d="M7.04791 2.28285C7.22458 2.34901 7.37516 2.43851 7.48875 2.54486C7.60234 2.65122 7.67611 2.77178 7.70472 2.89784C7.73333 3.02389 7.71607 3.15227 7.65418 3.27372C7.59229 3.39516 7.48732 3.50662 7.34687 3.60004C7.86481 3.52973 8.52748 2.58754 7.04791 2.28285ZM5.95109 2.28285C5.77455 2.34911 5.62415 2.43868 5.51074 2.54509C5.39733 2.65149 5.32375 2.77208 5.29532 2.89812C5.2669 3.02417 5.28433 3.15252 5.34637 3.27391C5.4084 3.39531 5.51349 3.5067 5.65403 3.60004C5.13418 3.52973 4.47343 2.58754 5.95109 2.28285Z" fill="#DA0000"/>
<path fill-rule="evenodd" clip-rule="evenodd" d="M6.0461 2.3145C5.88614 2.43637 5.38915 3.10669 6.34506 3.54731C6.79445 3.75591 6.51644 3.76528 6.50311 3.80044C5.77951 3.56489 5.54529 3.2438 5.551 2.95669C5.55481 2.67075 5.80236 2.41762 6.0461 2.3145Z" fill="#DA0000"/>
<path fill-rule="evenodd" clip-rule="evenodd" d="M7.4169 3.73943C7.13318 3.74178 6.77709 3.716 6.51241 3.63045C6.5562 3.68318 6.59238 3.716 6.63618 3.76756C6.88754 3.78279 7.236 3.80037 7.4169 3.73943ZM5.60791 3.73943C5.89164 3.74178 6.24772 3.716 6.51241 3.63045C6.46861 3.68318 6.43243 3.716 6.38863 3.76756C6.13728 3.78279 5.78881 3.80037 5.60791 3.73943ZM6.12776 2.11404C6.18488 2.20779 6.33532 2.22186 6.49527 2.16678C6.61333 2.20897 6.79423 2.21248 6.85707 2.11873C6.90467 2.35076 6.5086 2.29451 6.49527 2.24998C6.34674 2.33787 6.07254 2.28748 6.12776 2.11404Z" fill="#DA0000"/>
<path fill-rule="evenodd" clip-rule="evenodd" d="M6.50661 3.88598L6.65514 3.78051L6.67608 2.37309L6.49899 2.27699L6.3219 2.3684L6.35808 3.78637L6.50661 3.88598Z" fill="#DA0000"/>
</g>
</svg>
