<svg width="24" height="25" viewBox="0 0 24 25" fill="none" xmlns="http://www.w3.org/2000/svg">
<path fill-rule="evenodd" clip-rule="evenodd" d="M4.25 15.5C4.25 11.2198 7.71979 7.75 12 7.75C16.2802 7.75 19.75 11.2198 19.75 15.5C19.75 19.7802 16.2802 23.25 12 23.25C7.71979 23.25 4.25 19.7802 4.25 15.5ZM12 9.25C8.54822 9.25 5.75 12.0482 5.75 15.5C5.75 18.9518 8.54822 21.75 12 21.75C15.4518 21.75 18.25 18.9518 18.25 15.5C18.25 12.0482 15.4518 9.25 12 9.25Z" fill="#F04E29"/>
<path fill-rule="evenodd" clip-rule="evenodd" d="M12 13.75C12.4142 13.75 12.75 14.0858 12.75 14.5V16.5C12.75 16.9142 12.4142 17.25 12 17.25C11.5858 17.25 11.25 16.9142 11.25 16.5V14.5C11.25 14.0858 11.5858 13.75 12 13.75Z" fill="#F04E29"/>
<path fill-rule="evenodd" clip-rule="evenodd" d="M12 3.25C10.2051 3.25 8.75 4.70507 8.75 6.5V9.5C8.75 9.91421 8.41421 10.25 8 10.25C7.58579 10.25 7.25 9.91421 7.25 9.5V6.5C7.25 3.87665 9.37665 1.75 12 1.75C14.6234 1.75 16.75 3.87665 16.75 6.5V9.5C16.75 9.91421 16.4142 10.25 16 10.25C15.5858 10.25 15.25 9.91421 15.25 9.5V6.5C15.25 4.70507 13.7949 3.25 12 3.25Z" fill="#F04E29"/>
</svg>
