<svg width="43" height="42" viewBox="0 0 43 42" fill="none" xmlns="http://www.w3.org/2000/svg">
<path d="M36.2096 8.008C35.8022 7.69646 35.3276 7.47944 34.8216 7.37333C34.3157 7.26722 33.7917 7.2748 33.2892 7.3955L26.9646 8.953C26.7046 9.00554 26.4363 9.00554 26.1763 8.953L17.2538 6.783C16.7115 6.66047 16.1478 6.66047 15.6055 6.783L8.06256 8.638C7.32568 8.81539 6.671 9.22906 6.20326 9.81282C5.73553 10.3966 5.48176 11.1167 5.48256 11.858V31.3705C5.47782 31.877 5.59347 32.3778 5.82042 32.8333C6.04737 33.2887 6.37943 33.6866 6.79048 33.9955C7.19794 34.307 7.67256 34.5241 8.17849 34.6302C8.68441 34.7363 9.20841 34.7287 9.7109 34.608L16.0355 33.0505C16.2955 32.998 16.5638 32.998 16.8238 33.0505L25.7463 35.2205C26.0174 35.2765 26.2935 35.3058 26.5705 35.308C26.8474 35.3048 27.1234 35.2755 27.3946 35.2205L34.9376 33.3655C35.6744 33.1881 36.3291 32.7744 36.7969 32.1907C37.2646 31.6069 37.5184 30.8868 37.5176 30.1455V10.633C37.5223 10.1265 37.4067 9.62573 37.1797 9.17024C36.9528 8.71475 36.6207 8.3169 36.2096 8.008ZM15.5338 31.3705L9.2809 32.893C9.04316 32.9551 8.79394 32.9627 8.55272 32.915C8.31151 32.8674 8.08485 32.7659 7.89051 32.6184C7.69616 32.471 7.53939 32.2816 7.43247 32.0651C7.32556 31.8486 7.2714 31.6109 7.27423 31.3705V11.858C7.2753 11.5081 7.39564 11.1685 7.61625 10.8928C7.83687 10.6171 8.14519 10.421 8.49256 10.3355L15.5338 8.603V31.3705ZM25.6746 33.4005L17.3255 31.3705V8.603L25.6746 10.633V33.4005ZM35.7259 30.1455C35.7248 30.4954 35.6045 30.835 35.3839 31.1107C35.1633 31.3864 34.8549 31.5825 34.5076 31.668L27.4663 33.4005V10.633L33.7192 9.1105C33.9586 9.0504 34.2089 9.04438 34.4511 9.0929C34.6932 9.14141 34.9209 9.24319 35.1167 9.3905C35.3094 9.53774 35.4647 9.7265 35.5704 9.94204C35.676 10.1576 35.7293 10.394 35.7259 10.633V30.1455Z" fill="white"/>
</svg>
