<svg width="15" height="15" viewBox="0 0 15 15" fill="none" xmlns="http://www.w3.org/2000/svg">
<path d="M6.5625 0.00167374C6.5625 0.00259812 6.56174 0.00334714 6.56082 0.00335096C6.24988 0.00463721 6 0.362328 6 0.80674C6 1.25195 6.25078 1.61013 6.5625 1.61013H7.3285C7.68142 1.61013 7.99756 1.82841 8.12263 2.15842C8.23166 2.44614 8.17654 2.77034 7.97854 3.00586L7.19122 3.94236C6.58998 4.65752 5.47416 4.60826 4.93828 3.84289C4.65703 3.4412 4.275 3.21692 3.87656 3.21692H1.5C1.08516 3.21692 0.75 3.6956 0.75 4.28811C0.75 4.87971 1.22959 5.35929 1.82119 5.35929H3C5.07188 5.35929 6.75 7.75608 6.75 10.7152C6.75 10.799 6.74867 10.8822 6.74603 10.9649C6.73213 11.4001 7.06456 11.7864 7.5 11.7864C7.93544 11.7864 8.26787 11.4001 8.25397 10.9649C8.25133 10.8822 8.25 10.799 8.25 10.7152C8.25 9.2859 8.64206 7.98647 9.28122 7.02581C9.47198 6.73909 9.88571 6.81579 10.0072 7.13803C10.0668 7.29625 10.0339 7.47306 9.93371 7.6093C9.35938 8.39055 9 9.49292 9 10.7152C9 13.0819 10.343 15 12 15C13.657 15 15 13.0819 15 10.7152C15 8.34858 13.657 6.43048 12 6.43048C11.4934 6.43048 10.941 6.22954 10.7618 5.75566L10.314 4.57169C10.0664 3.91702 10.5501 3.21692 11.25 3.21692C11.6648 3.21692 12 2.73823 12 2.14573V1.07454C12 0.482035 11.6648 0.00334748 11.25 0.00334748H10.7719C10.5961 0.00334748 10.4273 0.0903817 10.2914 0.25106L9.77881 0.861162C9.51103 1.17987 8.99919 1.09247 8.85234 0.702968C8.68828 0.271145 8.37187 0 8.02734 0H6.56417C6.56325 0 6.5625 0.000749359 6.5625 0.00167374ZM10.5 10.7152C10.5 10.1447 11.1467 10.1483 11.3485 10.6819L11.5055 11.0969C11.6531 11.4885 11.9953 11.6324 12.2672 11.4216C12.5391 11.2107 12.6422 10.7219 12.4945 10.3336L11.8927 8.74262C11.8619 8.66113 11.9129 8.57286 12 8.57286C12.8273 8.57286 13.5 9.53359 13.5 10.7152C13.5 11.8969 12.8273 12.8576 12 12.8576C11.1727 12.8576 10.5 11.8969 10.5 10.7152ZM5.0106 11.5186C4.64336 11.5186 4.33549 11.7726 4.14995 12.0895C3.87478 12.5596 3.46142 12.8576 3 12.8576C2.17266 12.8576 1.5 11.8969 1.5 10.7152C1.5 9.53359 2.17266 8.57286 3 8.57286C3.46283 8.57286 3.87641 8.87053 4.15078 9.34004C4.33613 9.65722 4.64381 9.91185 5.01117 9.91185C5.50636 9.91185 5.89362 9.47242 5.74868 8.99892C5.28594 7.4873 4.22968 6.43048 3 6.43048C1.34297 6.43048 0 8.34858 0 10.7152C0 13.0819 1.34297 15 3 15C4.22898 15 5.28473 13.9444 5.74926 12.4342C5.89524 11.9596 5.50713 11.5186 5.0106 11.5186ZM3 11.7864C3.19891 11.7864 3.38968 11.6736 3.53033 11.4727C3.67098 11.2718 3.75 10.9993 3.75 10.7152C3.75 10.4311 3.67098 10.1587 3.53033 9.9578C3.38968 9.75691 3.19891 9.64405 3 9.64405C2.80109 9.64405 2.61032 9.75691 2.46967 9.9578C2.32902 10.1587 2.25 10.4311 2.25 10.7152C2.25 10.9993 2.32902 11.2718 2.46967 11.4727C2.61032 11.6736 2.80109 11.7864 3 11.7864Z" fill="#F04E29"/>
</svg>
