<svg width="32" height="22" viewBox="0 0 32 22" fill="none" xmlns="http://www.w3.org/2000/svg">
<path d="M13.825 0.00474828C13.1683 0.00474828 12.64 0.512813 12.64 1.14433C12.64 1.77585 13.1683 2.28392 13.825 2.28392H16.6739L17.4837 3.72264L12.64 7.60197L10.4033 5.45101C9.81081 4.88122 9.006 4.56308 8.16663 4.56308H3.16C2.28606 4.56308 1.58 5.24208 1.58 6.08253V7.60197H6.32C10.6848 7.60197 14.22 11.0017 14.22 15.1992C14.22 15.7215 14.1657 16.2296 14.062 16.7186H17.538C17.4343 16.2296 17.38 15.7215 17.38 15.1992C17.38 12.7206 18.6144 10.5174 20.5252 9.13091L21.2856 10.4889C19.8685 11.6048 18.96 13.2999 18.96 15.1992C18.96 18.5562 21.7892 21.277 25.28 21.277C28.7708 21.277 31.6 18.5562 31.6 15.1992C31.6 11.8422 28.7708 9.12142 25.28 9.12142C24.6134 9.12142 23.9716 9.22113 23.3692 9.40631L20.6486 4.56308H23.7C24.5739 4.56308 25.28 3.88408 25.28 3.04364V1.52419C25.28 0.68375 24.5739 0.00474828 23.7 0.00474828H22.6928C22.3224 0.00474828 21.9669 0.128203 21.6806 0.35612L19.3402 2.23168L18.6489 0.997136C18.3033 0.38461 17.6368 0 16.9109 0H13.825V0.00474828ZM22.8458 13.2619L24.2382 15.7405C24.5493 16.296 25.2701 16.5002 25.8429 16.2011C26.4156 15.9019 26.6329 15.2087 26.3218 14.6579L24.9294 12.1793C25.043 12.1651 25.1615 12.1603 25.28 12.1603C27.0229 12.1603 28.44 13.5231 28.44 15.1992C28.44 16.8753 27.0229 18.2381 25.28 18.2381C23.5371 18.2381 22.12 16.8753 22.12 15.1992C22.12 14.4632 22.3916 13.789 22.8458 13.2619ZM9.24794 16.3388C8.77888 17.4546 7.64325 18.2381 6.32 18.2381C4.57706 18.2381 3.16 16.8753 3.16 15.1992C3.16 13.5231 4.57706 12.1603 6.32 12.1603C7.64819 12.1603 8.78381 12.9438 9.24794 14.0596H12.5264C11.9734 11.2486 9.40594 9.12142 6.32 9.12142C2.82919 9.12142 0 11.8422 0 15.1992C0 18.5562 2.82919 21.277 6.32 21.277C9.40594 21.277 11.9734 19.1498 12.5314 16.3388H9.24794ZM6.32 16.7186C6.73904 16.7186 7.14092 16.5586 7.43723 16.2736C7.73354 15.9887 7.9 15.6022 7.9 15.1992C7.9 14.7962 7.73354 14.4097 7.43723 14.1248C7.14092 13.8398 6.73904 13.6798 6.32 13.6798C5.90096 13.6798 5.49908 13.8398 5.20277 14.1248C4.90646 14.4097 4.74 14.7962 4.74 15.1992C4.74 15.6022 4.90646 15.9887 5.20277 16.2736C5.49908 16.5586 5.90096 16.7186 6.32 16.7186Z" fill="black"/>
</svg>
