<svg width="21" height="20" viewBox="0 0 21 20" fill="none" xmlns="http://www.w3.org/2000/svg">
<path fill-rule="evenodd" clip-rule="evenodd" d="M10.5 20C11.8789 20 13.2443 19.7413 14.5182 19.2388C15.7921 18.7362 16.9496 17.9997 17.9246 17.0711C18.8996 16.1425 19.6731 15.0401 20.2007 13.8268C20.7284 12.6136 21 11.3132 21 10C21 8.68678 20.7284 7.38642 20.2007 6.17317C19.6731 4.95991 18.8996 3.85752 17.9246 2.92893C16.9496 2.00035 15.7921 1.26375 14.5182 0.761205C13.2443 0.258658 11.8789 -1.95685e-08 10.5 0C7.71523 3.95203e-08 5.04451 1.05357 3.07538 2.92893C1.10625 4.8043 0 7.34784 0 10C0 12.6522 1.10625 15.1957 3.07538 17.0711C5.04451 18.9464 7.71523 20 10.5 20ZM11.6667 3.88889C11.6667 3.5942 11.5437 3.31159 11.325 3.10321C11.1062 2.89484 10.8094 2.77778 10.5 2.77778C10.1906 2.77778 9.89383 2.89484 9.67504 3.10321C9.45625 3.31159 9.33333 3.5942 9.33333 3.88889V9.72222C9.33333 10.4889 9.98667 11.1111 10.7917 11.1111H14.5833C14.8928 11.1111 15.1895 10.994 15.4083 10.7857C15.6271 10.5773 15.75 10.2947 15.75 10C15.75 9.70532 15.6271 9.4227 15.4083 9.21433C15.1895 9.00595 14.8928 8.88889 14.5833 8.88889H11.6667V3.88889Z" fill="#F04E29"/>
</svg>
