<svg width="100" height="100" viewBox="0 0 100 100" fill="none" xmlns="http://www.w3.org/2000/svg">
<path opacity="0.933" fill-rule="evenodd" clip-rule="evenodd" d="M10.6445 10.8398C34.9936 10.8073 59.3426 10.8398 83.6914 10.9375C87.385 11.3758 89.566 13.4266 90.2344 17.0898C90.3647 24.4467 90.3647 31.8033 90.2344 39.1602C90.0711 39.9406 89.5828 40.3313 88.7695 40.332C88.2395 40.2461 87.8164 39.9855 87.5 39.5508C87.4024 34.6684 87.3697 29.7855 87.4024 24.9023C85.7734 24.9348 84.1459 24.9023 82.5195 24.8047C81.7 24.2225 81.5373 23.4738 82.0313 22.5586C82.26 22.2865 82.5529 22.1236 82.9102 22.0703C84.4061 21.9727 85.9035 21.9402 87.4024 21.9727C87.4623 20.2047 87.3647 18.4469 87.1094 16.6992C86.6027 15.3462 85.6588 14.4673 84.2774 14.0625C59.4727 13.9323 34.668 13.9323 9.86329 14.0625C8.6704 14.5393 7.79149 15.3531 7.22657 16.5039C6.95581 18.3137 6.85815 20.1367 6.9336 21.9727C24.1863 21.94 41.4389 21.9727 58.6914 22.0703C59.6141 22.5459 59.907 23.2947 59.5703 24.3164C59.4076 24.4791 59.2447 24.642 59.082 24.8047C41.6994 24.9023 24.3166 24.935 6.9336 24.9023C6.90104 40.3973 6.9336 55.892 7.03125 71.3867C7.58821 73.4414 8.92286 74.5807 11.0352 74.8047C33.9518 74.8697 56.8686 74.935 79.7852 75C80.7453 75.7551 80.8104 76.6014 79.9805 77.5391C79.7852 77.6041 79.5899 77.6693 79.3945 77.7344C56.3477 77.8646 33.3008 77.8646 10.2539 77.7344C6.93905 77.1537 4.88827 75.233 4.10157 71.9727C3.97135 53.5482 3.97135 35.1236 4.10157 16.6992C4.97477 13.253 7.15577 11.2999 10.6445 10.8398Z" fill="#F04D28"/>
<path opacity="0.903" fill-rule="evenodd" clip-rule="evenodd" d="M11.8164 16.504C13.0105 16.3182 13.7267 16.8065 13.9649 17.9688C13.8519 18.8957 13.3311 19.384 12.4024 19.4337C11.0629 19.1603 10.6398 18.379 11.1328 17.0899C11.3565 16.868 11.5843 16.6727 11.8164 16.504Z" fill="#F04D28"/>
<path opacity="0.89" fill-rule="evenodd" clip-rule="evenodd" d="M18.6523 16.5038C20.377 16.2425 21.0606 16.9587 20.7031 18.6522C19.694 19.7444 18.7825 19.6794 17.9688 18.4569C17.8385 18.0663 17.8385 17.6757 17.9688 17.2851C18.2374 17.0497 18.4653 16.7893 18.6523 16.5038Z" fill="#F04E28"/>
<path opacity="0.898" fill-rule="evenodd" clip-rule="evenodd" d="M25.6835 16.504C26.9052 16.262 27.6214 16.7502 27.8319 17.9689C27.4159 19.4296 26.537 19.7876 25.1952 19.0431C24.7005 18.0375 24.8632 17.1911 25.6835 16.504Z" fill="#F04E28"/>
<path opacity="0.943" fill-rule="evenodd" clip-rule="evenodd" d="M63.3788 21.9727C68.262 21.9401 73.1448 21.9727 78.0273 22.0703C78.765 22.2225 79.1556 22.6782 79.1991 23.4375C79.1384 24.0157 78.8778 24.4715 78.4179 24.8047C73.2747 24.935 68.1314 24.935 62.9882 24.8047C62.1198 23.7104 62.2501 22.7664 63.3788 21.9727Z" fill="#F04E28"/>
<path opacity="0.947" fill-rule="evenodd" clip-rule="evenodd" d="M27.832 33.1056C28.4754 33.0585 29.0613 33.2212 29.5898 33.5939C30.599 34.603 31.608 35.612 32.6172 36.6212C33.6914 35.547 34.7656 34.4728 35.8398 33.3985C37.7943 32.9448 38.4779 33.6937 37.8906 35.6446C36.8461 36.6566 35.8369 37.6984 34.8633 38.7696C35.9734 39.9122 37.0476 41.0841 38.0859 42.2853C38.3138 43.8804 37.6303 44.564 36.0351 44.336C34.8959 43.1968 33.7564 42.0573 32.6172 40.9181C31.5429 41.9923 30.4687 43.0665 29.3945 44.1407C27.4435 44.728 26.6947 44.0444 27.1484 42.09C28.2582 41.0128 29.3324 39.9062 30.3711 38.7696C29.1959 37.562 28.0564 36.3249 26.9531 35.0587C26.8156 34.1978 27.1086 33.5468 27.832 33.1056Z" fill="#F04E28"/>
<path opacity="0.949" fill-rule="evenodd" clip-rule="evenodd" d="M57.1288 33.1054C57.6149 33.066 58.0708 33.1636 58.496 33.3984C59.5702 34.4726 60.6444 35.5468 61.7187 36.6211C62.7929 35.5468 63.8671 34.4726 64.9413 33.3984C66.7921 32.8453 67.5407 33.5289 67.1874 35.4492C66.0776 36.5263 65.0034 37.633 63.9647 38.7695C64.9384 39.8408 65.9476 40.8826 66.9921 41.8945C67.7015 43.9675 67.0179 44.7162 64.9413 44.1406C63.8671 43.0664 62.7929 41.9922 61.7187 40.9179C60.6444 41.9922 59.5702 43.0664 58.496 44.1406C56.4194 44.7162 55.7358 43.9675 56.4452 41.8945C57.4897 40.8826 58.4989 39.8408 59.4726 38.7695C58.4339 37.633 57.3597 36.5263 56.2499 35.4492C55.9192 34.3916 56.2122 33.6103 57.1288 33.1054Z" fill="#F04E28"/>
<path opacity="0.951" fill-rule="evenodd" clip-rule="evenodd" d="M86.2305 42.8711C91.1748 42.6699 93.9092 45.0136 94.4336 49.9023C92.7025 58.3898 90.8471 66.8533 88.8672 75.2929C88.3717 76.2822 87.623 76.5752 86.6211 76.1718C86.233 75.9142 86.0051 75.5562 85.9375 75.0976C83.9691 66.7207 82.1137 58.3222 80.3711 49.9023C80.6801 46.1459 82.6332 43.8021 86.2305 42.8711ZM86.8164 45.8007C89.575 45.8115 91.1375 47.1787 91.5039 49.9023C90.2281 55.8517 88.8609 61.7761 87.4023 67.6757C85.9437 61.7761 84.5766 55.8517 83.3008 49.9023C83.5234 47.688 84.6953 46.3209 86.8164 45.8007Z" fill="#F04E28"/>
<path opacity="0.948" fill-rule="evenodd" clip-rule="evenodd" d="M43.2618 54.7851C54.0384 54.061 63.9343 56.6327 72.9493 62.4999C73.7214 63.1511 73.8517 63.8997 73.34 64.746C73.0029 65.0448 72.6122 65.2401 72.1681 65.3319C68.4527 63.1165 64.5464 61.261 60.4493 59.7655C47.2884 55.8423 34.9187 57.5349 23.34 64.8437C22.173 65.6021 21.2941 65.3741 20.7032 64.1601C20.5827 63.6649 20.6804 63.2093 20.9962 62.7929C27.7499 58.2433 35.1718 55.5739 43.2618 54.7851Z" fill="#F04E28"/>
<path opacity="0.949" fill-rule="evenodd" clip-rule="evenodd" d="M86.0351 77.6366C90.2042 77.2181 92.5479 79.0736 93.0663 83.203C92.5089 87.4714 90.1001 89.2943 85.8397 88.6718C82.8962 87.5696 81.5616 85.4538 81.8358 82.3241C82.3241 79.9167 83.7239 78.3542 86.0351 77.6366ZM86.8163 80.5663C89.594 80.7032 90.538 82.0704 89.6483 84.6679C88.1591 86.2286 86.6618 86.2286 85.1561 84.6679C84.322 82.7273 84.8753 81.3601 86.8163 80.5663Z" fill="#F04E28"/>
</svg>
