<svg width="17" height="21" viewBox="0 0 17 21" fill="none" xmlns="http://www.w3.org/2000/svg">
<path d="M16.6901 4.30664L12.356 0.287109C12.1568 0.102539 11.8867 0 11.6034 0H11.3333V5.25H17V4.9998C17 4.74141 16.8893 4.49121 16.6901 4.30664ZM9.91667 5.57812V0H1.0625C0.473698 0 0 0.438867 0 0.984375V20.0156C0 20.5611 0.473698 21 1.0625 21H15.9375C16.5263 21 17 20.5611 17 20.0156V6.5625H10.9792C10.3948 6.5625 9.91667 6.11953 9.91667 5.57812ZM2.83333 2.95312C2.83333 2.77184 2.99182 2.625 3.1875 2.625H6.72917C6.92484 2.625 7.08333 2.77184 7.08333 2.95312V3.60938C7.08333 3.79066 6.92484 3.9375 6.72917 3.9375H3.1875C2.99182 3.9375 2.83333 3.79066 2.83333 3.60938V2.95312ZM2.83333 6.23438V5.57812C2.83333 5.39684 2.99182 5.25 3.1875 5.25H6.72917C6.92484 5.25 7.08333 5.39684 7.08333 5.57812V6.23438C7.08333 6.41566 6.92484 6.5625 6.72917 6.5625H3.1875C2.99182 6.5625 2.83333 6.41566 2.83333 6.23438ZM9.20833 17.0576V18.0469C9.20833 18.2282 9.04984 18.375 8.85417 18.375H8.14583C7.95016 18.375 7.79167 18.2282 7.79167 18.0469V17.0506C7.29185 17.0268 6.80576 16.8652 6.40289 16.5851C6.23023 16.4649 6.22138 16.2254 6.37766 16.0871L6.89784 15.6274C7.02047 15.5191 7.20286 15.5142 7.3463 15.5974C7.51763 15.6967 7.71198 15.75 7.91385 15.75H9.15831C9.44607 15.75 9.6807 15.5072 9.6807 15.209C9.6807 14.965 9.52088 14.75 9.29245 14.6869L7.30026 14.1332C6.47727 13.9043 5.90219 13.1726 5.90219 12.3535C5.90219 11.3478 6.74555 10.5308 7.79122 10.5049V9.51562C7.79122 9.33434 7.94971 9.1875 8.14539 9.1875H8.85372C9.0494 9.1875 9.20789 9.33434 9.20789 9.51562V10.5119C9.70771 10.5357 10.1938 10.6969 10.5967 10.9774C10.7693 11.0976 10.7782 11.3371 10.6219 11.4754L10.1017 11.9351C9.97909 12.0434 9.79669 12.0483 9.65326 11.9651C9.48193 11.8654 9.28758 11.8125 9.0857 11.8125H7.84125C7.55349 11.8125 7.31885 12.0553 7.31885 12.3535C7.31885 12.5975 7.47867 12.8125 7.70711 12.8756L9.6993 13.4293C10.5223 13.6582 11.0974 14.3899 11.0974 15.209C11.0974 16.2151 10.254 17.0317 9.20833 17.0576Z" fill="#F04E29"/>
</svg>
