<svg width="21" height="20" viewBox="0 0 21 20" fill="none" xmlns="http://www.w3.org/2000/svg">
<path d="M20.0479 18.102L18.6634 14H17.1442L17.9878 18H3.13382L3.9775 14H2.45827L1.07273 18.102C0.721281 19.146 1.34417 20 2.45827 20H18.6634C19.7775 20 20.4004 19.146 20.0479 18.102ZM15.6249 5C15.6249 3.67392 15.0914 2.40215 14.1417 1.46447C13.192 0.526784 11.9039 0 10.5608 0C9.21775 0 7.92967 0.526784 6.97997 1.46447C6.03027 2.40215 5.49673 3.67392 5.49673 5C5.49673 9.775 10.5608 15 10.5608 15C10.5608 15 15.6249 9.775 15.6249 5ZM7.82622 5.06C7.82622 4.70548 7.89696 4.35443 8.0344 4.02691C8.17184 3.69938 8.37328 3.4018 8.62723 3.15117C8.88118 2.90053 9.18264 2.70174 9.51442 2.56616C9.84619 2.43058 10.2018 2.36087 10.5608 2.361C11.286 2.361 11.9814 2.64541 12.4941 3.15167C13.0069 3.65792 13.2949 4.34455 13.2949 5.0605C13.2949 5.77645 13.0069 6.46308 12.4941 6.96933C11.9814 7.47559 11.286 7.76 10.5608 7.76C9.83557 7.76 9.14001 7.47554 8.62717 6.96919C8.11433 6.46284 7.82622 5.77608 7.82622 5.06Z" fill="#F04E29"/>
</svg>
