<svg width="21" height="20" viewBox="0 0 21 20" fill="none" xmlns="http://www.w3.org/2000/svg">
<path d="M18.75 11.4138H11.875V18.4972C11.875 18.8729 11.7301 19.2332 11.4723 19.4989C11.2144 19.7646 10.8647 19.9138 10.5 19.9138C10.1353 19.9138 9.78559 19.7646 9.52773 19.4989C9.26987 19.2332 9.125 18.8729 9.125 18.4972V11.4138H2.25C1.88533 11.4138 1.53559 11.2646 1.27773 10.9989C1.01987 10.7332 0.875 10.3729 0.875 9.99717C0.875 9.62145 1.01987 9.26111 1.27773 8.99544C1.53559 8.72976 1.88533 8.58051 2.25 8.58051H9.125V1.49717C9.125 1.12145 9.26987 0.761114 9.52773 0.495437C9.78559 0.22976 10.1353 0.0805054 10.5 0.0805054C10.8647 0.0805054 11.2144 0.22976 11.4723 0.495437C11.7301 0.761114 11.875 1.12145 11.875 1.49717V8.58051H18.75C19.1147 8.58051 19.4644 8.72976 19.7223 8.99544C19.9801 9.26111 20.125 9.62145 20.125 9.99717C20.125 10.3729 19.9801 10.7332 19.7223 10.9989C19.4644 11.2646 19.1147 11.4138 18.75 11.4138Z" fill="white"/>
</svg>
