<svg width="26" height="31" viewBox="0 0 26 31" fill="none" xmlns="http://www.w3.org/2000/svg">
<path d="M23.125 3.46875H19.75V2.375C19.75 1.79484 19.5129 1.23844 19.091 0.828204C18.669 0.417968 18.0967 0.1875 17.5 0.1875H8.5C7.90326 0.1875 7.33097 0.417968 6.90901 0.828204C6.48705 1.23844 6.25 1.79484 6.25 2.375V3.46875H2.875C2.27826 3.46875 1.70597 3.69922 1.28401 4.10945C0.862053 4.51969 0.625 5.07609 0.625 5.65625V28.625C0.625 29.2052 0.862053 29.7616 1.28401 30.1718C1.70597 30.582 2.27826 30.8125 2.875 30.8125H23.125C23.7217 30.8125 24.294 30.582 24.716 30.1718C25.1379 29.7616 25.375 29.2052 25.375 28.625V5.65625C25.375 5.07609 25.1379 4.51969 24.716 4.10945C24.294 3.69922 23.7217 3.46875 23.125 3.46875ZM8.5 2.375H17.5V6.75H8.5V2.375ZM23.125 28.625H2.875V5.65625H6.25V8.9375H19.75V5.65625H23.125V28.625Z" fill="white"/>
</svg>
