<svg width="18" height="20" viewBox="0 0 18 20" fill="none" xmlns="http://www.w3.org/2000/svg">
<path fill-rule="evenodd" clip-rule="evenodd" d="M11.7 1.66667C11.3817 1.66667 11.0765 1.80715 10.8515 2.0572C10.6264 2.30725 10.5 2.64638 10.5 3V6.66667H7.2C6.88174 6.66667 6.57652 6.80714 6.35147 7.05719C6.12643 7.30724 6 7.64638 6 8V12.5H2.7C2.38174 12.5 2.07652 12.6405 1.85147 12.8905C1.62643 13.1406 1.5 13.4797 1.5 13.8333V17C1.5 17.3536 1.62643 17.6928 1.85147 17.9428C2.07652 18.1929 2.38174 18.3333 2.7 18.3333H15.3C15.6183 18.3333 15.9235 18.1929 16.1485 17.9428C16.3736 17.6928 16.5 17.3536 16.5 17V3C16.5 2.64638 16.3736 2.30725 16.1485 2.0572C15.9235 1.80715 15.6183 1.66667 15.3 1.66667H11.7ZM7.5 8.33334H10.5V16.6667H7.5V8.33334ZM15 16.6667H12V3.33334H15V16.6667ZM6 14.1667V16.6667H3V14.1667H6Z" fill="#F04E29"/>
</svg>
