<?xml version="1.0" encoding="UTF-8"?>
<!DOCTYPE svg PUBLIC "-//W3C//DTD SVG 1.1//EN" "http://www.w3.org/Graphics/SVG/1.1/DTD/svg11.dtd">
<svg xmlns="http://www.w3.org/2000/svg" version="1.1" width="100px" height="100px" style="shape-rendering:geometricPrecision; text-rendering:geometricPrecision; image-rendering:optimizeQuality; fill-rule:evenodd; clip-rule:evenodd" xmlns:xlink="http://www.w3.org/1999/xlink">
<g><path style="opacity:0.782" fill="#f23e0c" d="M 15.5,3.5 C 16.8734,3.34332 18.2068,3.50999 19.5,4C 27,11.5 34.5,19 42,26.5C 42.624,28.4645 42.124,30.1311 40.5,31.5C 41.1667,32.8333 42.1667,33.8333 43.5,34.5C 48.1667,30.1667 52.8333,25.8333 57.5,21.5C 59.6499,23.1491 61.6499,24.9824 63.5,27C 64.1667,27.6667 64.8333,27.6667 65.5,27C 65.5164,22.6411 65.683,18.1411 66,13.5C 67.0497,10.7605 68.883,9.26049 71.5,9C 74.0159,11.6833 76.6826,14.1833 79.5,16.5C 80.8968,14.0934 82.2301,11.5934 83.5,9C 89,7.83333 91.1667,10 90,15.5C 87.4066,16.7699 84.9066,18.1032 82.5,19.5C 84.8167,22.3174 87.3167,24.9841 90,27.5C 89.7395,30.117 88.2395,31.9503 85.5,33C 80.8589,33.317 76.3589,33.4836 72,33.5C 71.3333,34.1667 71.3333,34.8333 72,35.5C 74.0176,37.3501 75.8509,39.3501 77.5,41.5C 73.1667,46.1667 68.8333,50.8333 64.5,55.5C 65.1667,56.8333 66.1667,57.8333 67.5,58.5C 68.8689,56.876 70.5355,56.376 72.5,57C 80,64.5 87.5,72 95,79.5C 95.6667,80.8333 95.6667,82.1667 95,83.5C 91.1667,87.3333 87.3333,91.1667 83.5,95C 82.1667,95.6667 80.8333,95.6667 79.5,95C 72,87.5 64.5,80 57,72.5C 56.2888,70.6332 56.7888,69.1332 58.5,68C 57.3333,66.8333 56.1667,65.6667 55,64.5C 51.288,68.5481 47.288,72.2148 43,75.5C 40.3838,73.8878 38.0505,71.8878 36,69.5C 35.0565,70.263 34.5565,71.263 34.5,72.5C 36.3237,78.2435 35.3237,83.4101 31.5,88C 30.5,88.6667 29.5,88.6667 28.5,88C 26,85.5 23.5,83 21,80.5C 19.0244,81.5433 18.5244,82.8767 19.5,84.5C 15.998,90.7306 12.6647,90.7306 9.5,84.5C 10.5386,80.9096 12.7052,79.5763 16,80.5C 16.8333,79.6667 17.6667,78.8333 18.5,78C 16,75.5 13.5,73 11,70.5C 11.0168,66.5145 13.1835,64.3479 17.5,64C 21.1939,63.7221 24.8606,63.7221 28.5,64C 28.8333,63.6667 29.1667,63.3333 29.5,63C 27.1122,60.9495 25.1122,58.6162 23.5,56C 26.7852,51.712 30.4519,47.712 34.5,44C 33.3333,42.8333 32.1667,41.6667 31,40.5C 29.8668,42.2112 28.3668,42.7112 26.5,42C 19,34.5 11.5,27 4,19.5C 3.33333,18.1667 3.33333,16.8333 4,15.5C 8.03702,11.631 11.8704,7.63104 15.5,3.5 Z M 16.5,7.5 C 21.7359,9.75029 22.2359,12.417 18,15.5C 16.5,14 15,12.5 13.5,11C 14.7101,9.9609 15.7101,8.79423 16.5,7.5 Z M 85.5,11.5 C 87.7602,12.2376 87.9269,13.2376 86,14.5C 84.2716,13.6477 84.105,12.6477 85.5,11.5 Z M 10.5,13.5 C 15.7359,15.7503 16.2359,18.417 12,21.5C 10.5,20 9,18.5 7.5,17C 8.7101,15.9609 9.7101,14.7942 10.5,13.5 Z M 69.5,13.5 C 75.4218,17.7513 80.7551,22.7513 85.5,28.5C 72.5722,31.9106 67.2388,26.9106 69.5,13.5 Z M 23.5,14.5 C 25.6298,16.1271 27.6298,17.9604 29.5,20C 28.3333,21.1667 27.1667,22.3333 26,23.5C 24.1667,21.6667 22.3333,19.8333 20.5,18C 21.7101,16.9609 22.7101,15.7942 23.5,14.5 Z M 17.5,20.5 C 19.6298,22.1271 21.6298,23.9604 23.5,26C 22.3333,27.1667 21.1667,28.3333 20,29.5C 18.1667,27.6667 16.3333,25.8333 14.5,24C 15.7101,22.9609 16.7101,21.7942 17.5,20.5 Z M 31.5,22.5 C 33.8122,24.1455 35.8122,26.1455 37.5,28.5C 36.8333,29.8333 35.8333,30.8333 34.5,31.5C 32.3501,29.8509 30.3501,28.0176 28.5,26C 29.7101,24.9609 30.7101,23.7942 31.5,22.5 Z M 61.5,38.5 C 60.0222,38.238 58.6888,38.5713 57.5,39.5C 60.1667,42.5 62.8333,45.5 65.5,48.5C 60.515,53.9853 55.3484,59.3187 50,64.5C 44.8333,59.3333 39.6667,54.1667 34.5,49C 35.7051,47.6244 37.0384,46.4577 38.5,45.5C 38.5,46.8333 38.5,48.1667 38.5,49.5C 42.302,48.2214 45.4687,45.8881 48,42.5C 48.4828,41.552 48.6495,40.552 48.5,39.5C 53.5363,37.8384 53.5363,36.505 48.5,35.5C 48.811,34.5222 49.4777,33.8555 50.5,33.5C 51.8498,34.9501 53.5165,35.6168 55.5,35.5C 55.6168,33.5165 54.9501,31.8498 53.5,30.5C 55.2971,26.233 57.6305,25.733 60.5,29C 59.1007,30.0616 58.1007,31.395 57.5,33C 58.6502,34.981 59.9835,36.8143 61.5,38.5 Z M 25.5,28.5 C 27.8122,30.1455 29.8122,32.1455 31.5,34.5C 30.8333,35.8333 29.8333,36.8333 28.5,37.5C 26.3501,35.8509 24.3501,34.0176 22.5,32C 23.7101,30.9609 24.7101,29.7942 25.5,28.5 Z M 67.5,29.5 C 69.337,29.6395 69.6704,30.3061 68.5,31.5C 67.7025,31.0431 67.3691,30.3764 67.5,29.5 Z M 62.5,31.5 C 64.2959,32.7927 65.9625,34.2927 67.5,36C 67,36.5 66.5,37 66,37.5C 64.5,36 63,34.5 61.5,33C 62.056,32.6174 62.3893,32.1174 62.5,31.5 Z M 36.5,34.5 C 41.6719,36.2394 41.8386,38.5727 37,41.5C 35.8333,40.3333 34.6667,39.1667 33.5,38C 34.7101,36.9609 35.7101,35.7942 36.5,34.5 Z M 48.5,35.5 C 48.5,36.8333 48.5,38.1667 48.5,39.5C 47.1667,39.5 45.8333,39.5 44.5,39.5C 45.5,37.8333 46.8333,36.5 48.5,35.5 Z M 64.5,41.5 C 66.9032,41.607 68.7365,40.607 70,38.5C 73.267,41.3695 72.767,43.7029 68.5,45.5C 66.812,44.4787 65.4787,43.1454 64.5,41.5 Z M 35.5,55.5 C 33.629,55.8588 32.129,56.8588 31,58.5C 27.7681,55.8857 28.1014,53.5524 32,51.5C 33.3756,52.7051 34.5423,54.0384 35.5,55.5 Z M 60.5,58.5 C 65.6719,60.2394 65.8386,62.5727 61,65.5C 59.8333,64.3333 58.6667,63.1667 57.5,62C 58.7101,60.9609 59.7101,59.7942 60.5,58.5 Z M 33.5,61.5 C 33.8966,60.475 34.5632,60.3083 35.5,61C 37.3293,62.1133 38.1626,63.6133 38,65.5C 36.6288,63.9586 35.1288,62.6253 33.5,61.5 Z M 69.5,61.5 C 75.2728,63.2726 76.1061,65.9393 72,69.5C 70.3149,67.9825 68.8149,66.3159 67.5,64.5C 68.1925,63.4822 68.8592,62.4822 69.5,61.5 Z M 43.5,63.5 C 44.9616,64.4577 46.2949,65.6244 47.5,67C 45.4476,70.8986 43.1143,71.2319 40.5,68C 42.1412,66.871 43.1412,65.371 43.5,63.5 Z M 31.5,65.5 C 33.7602,66.2376 33.9269,67.2376 32,68.5C 30.2716,67.6477 30.105,66.6477 31.5,65.5 Z M 19.5,66.5 C 30.5472,68.2727 34.0472,74.2727 30,84.5C 24.8333,79.3333 19.6667,74.1667 14.5,69C 16.3146,68.2432 17.9812,67.4098 19.5,66.5 Z M 63.5,67.5 C 69.2728,69.2726 70.1061,71.9393 66,75.5C 64.3149,73.9825 62.8149,72.3159 61.5,70.5C 62.1925,69.4822 62.8592,68.4822 63.5,67.5 Z M 77.5,69.5 C 80.0692,70.3956 82.0692,72.0623 83.5,74.5C 82.8333,75.8333 81.8333,76.8333 80.5,77.5C 76.1508,75.6361 75.1508,72.9694 77.5,69.5 Z M 71.5,75.5 C 74.0692,76.3956 76.0692,78.0623 77.5,80.5C 76.8333,81.8333 75.8333,82.8333 74.5,83.5C 70.1508,81.6361 69.1508,78.9694 71.5,75.5 Z M 85.5,77.5 C 91.2728,79.2726 92.1061,81.9393 88,85.5C 86.3149,83.9825 84.8149,82.3159 83.5,80.5C 84.1925,79.4822 84.8592,78.4822 85.5,77.5 Z M 13.5,83.5 C 15.337,83.6395 15.6704,84.3061 14.5,85.5C 13.7025,85.0431 13.3691,84.3764 13.5,83.5 Z M 79.5,83.5 C 85.2728,85.2726 86.1061,87.9393 82,91.5C 80.3149,89.9825 78.8149,88.3159 77.5,86.5C 78.1925,85.4822 78.8592,84.4822 79.5,83.5 Z"/></g>
<g><path style="opacity:0.667" fill="#f23b0c" d="M 48.5,35.5 C 53.5363,36.505 53.5363,37.8384 48.5,39.5C 48.5,38.1667 48.5,36.8333 48.5,35.5 Z"/></g>
<g><path style="opacity:0.783" fill="#f53709" d="M 44.5,39.5 C 45.8333,39.5 47.1667,39.5 48.5,39.5C 48.6495,40.552 48.4828,41.552 48,42.5C 45.4687,45.8881 42.302,48.2214 38.5,49.5C 38.5,48.1667 38.5,46.8333 38.5,45.5C 39.1667,45.5 39.5,45.1667 39.5,44.5C 40.1667,44.5 40.5,44.1667 40.5,43.5C 41.1667,43.5 41.5,43.1667 41.5,42.5C 42.1667,42.5 42.5,42.1667 42.5,41.5C 43.1667,41.5 43.5,41.1667 43.5,40.5C 44.1667,40.5 44.5,40.1667 44.5,39.5 Z"/></g>
</svg>
