<?xml version="1.0" encoding="UTF-8"?>
<!DOCTYPE svg PUBLIC "-//W3C//DTD SVG 1.1//EN" "http://www.w3.org/Graphics/SVG/1.1/DTD/svg11.dtd">
<svg xmlns="http://www.w3.org/2000/svg" version="1.1" width="100px" height="100px" style="shape-rendering:geometricPrecision; text-rendering:geometricPrecision; image-rendering:optimizeQuality; fill-rule:evenodd; clip-rule:evenodd" xmlns:xlink="http://www.w3.org/1999/xlink">
<g><path style="opacity:0.876" fill="#f23c0d" d="M 39.5,13.5 C 67.9223,10.4522 86.4223,22.4522 95,49.5C 96.8758,61.0958 95.2091,72.0958 90,82.5C 89.1074,83.0814 88.1074,83.4148 87,83.5C 83.816,82.1593 80.6494,80.6593 77.5,79C 76.6198,77.6439 76.2865,76.1439 76.5,74.5C 80.0765,74.2051 83.2432,75.2051 86,77.5C 89.0503,72.6359 90.5503,67.3026 90.5,61.5C 87.5,61.5 84.5,61.5 81.5,61.5C 81.5,60.1667 81.5,58.8333 81.5,57.5C 84.5,57.5 87.5,57.5 90.5,57.5C 90.408,51.4654 88.908,45.7987 86,40.5C 83.349,43.076 80.1823,44.4093 76.5,44.5C 76.2148,42.712 76.5481,41.0453 77.5,39.5C 79.6297,38.5328 81.6297,37.3662 83.5,36C 80.3333,31.5 76.5,27.6667 72,24.5C 70.5411,27.7564 68.3745,30.4231 65.5,32.5C 64.1195,32.0004 63.4528,31.0004 63.5,29.5C 64.2217,27.0557 65.2217,24.7223 66.5,22.5C 61.9605,19.544 56.9605,18.2107 51.5,18.5C 51.5,21.5 51.5,24.5 51.5,27.5C 50.1667,27.5 48.8333,27.5 47.5,27.5C 47.5,24.5 47.5,21.5 47.5,18.5C 41.4654,18.592 35.7987,20.092 30.5,23C 33.076,25.651 34.4093,28.8177 34.5,32.5C 32.712,32.7852 31.0453,32.4519 29.5,31.5C 28.5328,29.3703 27.3662,27.3703 26,25.5C 21.5,28.6667 17.6667,32.5 14.5,37C 17.7564,38.4589 20.4231,40.6255 22.5,43.5C 22.0004,44.8805 21.0004,45.5472 19.5,45.5C 17.0557,44.7783 14.7223,43.7783 12.5,42.5C 9.76847,47.0905 8.43513,52.0905 8.5,57.5C 11.5,57.5 14.5,57.5 17.5,57.5C 17.5,58.8333 17.5,60.1667 17.5,61.5C 14.5,61.5 11.5,61.5 8.5,61.5C 8.50639,67.0261 9.83972,72.1927 12.5,77C 15.4786,75.3797 18.8119,74.5464 22.5,74.5C 22.7135,76.1439 22.3802,77.6439 21.5,79C 19.0038,80.0804 16.6705,81.4138 14.5,83C 12.5594,83.7429 10.7261,83.5762 9,82.5C -1.86496,59.1748 2.3017,39.0081 21.5,22C 27.2079,18.3101 33.2079,15.4768 39.5,13.5 Z M 48.5,58.5 C 50.337,58.6395 50.6704,59.3061 49.5,60.5C 48.7025,60.0431 48.3691,59.3764 48.5,58.5 Z"/></g>
<g><path style="opacity:0.88" fill="#f23c0d" d="M 70.5,43.5 C 74.0229,43.188 75.3563,44.5213 74.5,47.5C 68.5,51.1667 62.5,54.8333 56.5,58.5C 55.6304,65.1021 51.9637,67.2688 45.5,65C 42.8333,61.3333 42.8333,57.6667 45.5,54C 54.9863,53.2572 63.3196,49.7572 70.5,43.5 Z M 48.5,58.5 C 48.3691,59.3764 48.7025,60.0431 49.5,60.5C 50.6704,59.3061 50.337,58.6395 48.5,58.5 Z"/></g>
<g><path style="opacity:0.966" fill="#f13c0d" d="M 35.5,75.5 C 44.8333,75.5 54.1667,75.5 63.5,75.5C 63.5,76.8333 63.5,78.1667 63.5,79.5C 54.1667,79.5 44.8333,79.5 35.5,79.5C 35.5,78.1667 35.5,76.8333 35.5,75.5 Z"/></g>
</svg>
