<svg width="15" height="16" viewBox="0 0 15 16" fill="none" xmlns="http://www.w3.org/2000/svg">
<path d="M6.33697 10.9029C6.63695 11.2821 7.02441 11.4679 7.49937 11.4604C7.97434 11.4528 8.32431 11.2353 8.54929 10.8081L12.7489 2.84423L6.44946 8.15346C6.11199 8.43788 5.934 8.87242 5.91551 9.45707C5.89701 10.0417 6.0375 10.5237 6.33697 10.9029ZM7.49937 1.20162e-06C8.23681 1.20162e-06 8.94625 0.13052 9.6277 0.391557C10.3091 0.652594 10.9496 1.04352 11.549 1.56433L10.1242 2.70202C9.71169 2.4334 9.28373 2.23209 8.84026 2.09809C8.3968 1.9641 7.94984 1.89679 7.49937 1.89615C5.83701 1.89615 4.42138 2.63471 3.25248 4.11181C2.08358 5.58891 1.49937 7.37857 1.49987 9.48077C1.49987 10.1444 1.57187 10.8002 1.71586 11.448C1.85985 12.0959 2.06283 12.7042 2.32481 13.2731H12.6739C12.9614 12.6726 13.1709 12.0485 13.3024 11.4006C13.4339 10.7528 13.4994 10.0812 13.4989 9.38596C13.4989 8.81711 13.4456 8.26407 13.3391 7.72683C13.2326 7.18958 13.0734 6.66814 12.8614 6.1625L13.7614 4.36116C14.1363 5.10382 14.4333 5.89388 14.6523 6.73135C14.8713 7.56881 14.9868 8.43788 14.9987 9.33856C15.0112 10.2392 14.93 11.1004 14.755 11.9221C14.58 12.7437 14.3238 13.5259 13.9863 14.2686C13.8488 14.553 13.6614 14.7742 13.4239 14.9322C13.1864 15.0902 12.9364 15.1692 12.6739 15.1692H2.32481C2.06233 15.1692 1.81235 15.0902 1.57487 14.9322C1.33739 14.7742 1.1499 14.553 1.01242 14.2686C0.687443 13.5575 0.437463 12.8028 0.262478 12.0045C0.0874926 11.2063 0 10.365 0 9.48077C0 8.16926 0.196984 6.94056 0.590951 5.79465C0.984918 4.64874 1.52237 3.64567 2.20332 2.78545C2.88426 1.92397 3.68069 1.24419 4.59262 0.746138C5.50454 0.248081 6.47346 -0.00063085 7.49937 1.20162e-06Z" fill="#FF7A00"/>
</svg>
