<svg width="15" height="13" viewBox="0 0 15 13" fill="none" xmlns="http://www.w3.org/2000/svg">
<path d="M6.33697 9.34375C6.63695 9.66875 7.02441 9.828 7.49937 9.8215C7.97434 9.815 8.32431 9.62867 8.54929 9.2625L12.7489 2.4375L6.44946 6.9875C6.11199 7.23125 5.934 7.60365 5.91551 8.10469C5.89701 8.60573 6.0375 9.01875 6.33697 9.34375ZM7.49937 1.02978e-06C8.23681 1.02978e-06 8.94625 0.111855 9.6277 0.335564C10.3091 0.559272 10.9496 0.894293 11.549 1.34063L10.1242 2.31563C9.71169 2.08542 9.28373 1.9129 8.84026 1.79806C8.3968 1.68323 7.94984 1.62554 7.49937 1.625C5.83701 1.625 4.42138 2.25794 3.25248 3.52381C2.08358 4.78969 1.49937 6.32342 1.49987 8.125C1.49987 8.69375 1.57187 9.25573 1.71586 9.81094C1.85985 10.3661 2.06283 10.8875 2.32481 11.375H12.6739C12.9614 10.8604 13.1709 10.3255 13.3024 9.77031C13.4339 9.2151 13.4994 8.63958 13.4989 8.04375C13.4989 7.55625 13.4456 7.08229 13.3391 6.62187C13.2326 6.16146 13.0734 5.71458 12.8614 5.28125L13.7614 3.7375C14.1363 4.37396 14.4333 5.05104 14.6523 5.76875C14.8713 6.48646 14.9868 7.23125 14.9987 8.00313C15.0112 8.775 14.93 9.51302 14.755 10.2172C14.58 10.9214 14.3238 11.5917 13.9863 12.2281C13.8488 12.4719 13.6614 12.6615 13.4239 12.7969C13.1864 12.9323 12.9364 13 12.6739 13H2.32481C2.06233 13 1.81235 12.9323 1.57487 12.7969C1.33739 12.6615 1.1499 12.4719 1.01242 12.2281C0.687443 11.6187 0.437463 10.972 0.262478 10.2879C0.0874926 9.60375 0 8.88279 0 8.125C0 7.00104 0.196984 5.94804 0.590951 4.966C0.984918 3.98396 1.52237 3.12433 2.20332 2.38713C2.88426 1.64883 3.68069 1.06627 4.59262 0.639439C5.50454 0.212605 6.47346 -0.000540637 7.49937 1.02978e-06Z" fill="#F04E29"/>
</svg>
