<svg width="23" height="30" viewBox="0 0 23 30" fill="none" xmlns="http://www.w3.org/2000/svg">
<path d="M20.4444 20.4466V7.31435C20.4444 3.76639 18.1572 0.8927 15.3333 0.8927C12.5094 0.8927 10.2222 3.76639 10.2222 7.31435V23.3685C10.2222 25.1344 9.07222 26.5793 7.66667 26.5793C6.26111 26.5793 5.11111 25.1344 5.11111 23.3685V10.2362C6.59333 9.56192 7.66667 7.79597 7.66667 5.70893C7.66667 3.04395 5.95444 0.8927 3.83333 0.8927C1.71222 0.8927 0 3.04395 0 5.70893C0 7.79597 1.07333 9.56192 2.55556 10.2362V23.3685C2.55556 26.9164 4.84278 29.7901 7.66667 29.7901C10.4906 29.7901 12.7778 26.9164 12.7778 23.3685V7.31435C12.7778 5.54839 13.9278 4.10352 15.3333 4.10352C16.7389 4.10352 17.8889 5.54839 17.8889 7.31435V20.4466C17.0379 20.8254 16.3209 21.5699 15.8645 22.5485C15.408 23.5271 15.2415 24.6769 15.3944 25.7948C15.5473 26.9127 16.0097 27.9267 16.6999 28.6578C17.3902 29.3889 18.2639 29.7899 19.1667 29.7901C21.2878 29.7901 23 27.6389 23 24.9739C23 22.8868 21.9267 21.1209 20.4444 20.4466ZM3.83333 7.31435C3.13056 7.31435 2.55556 6.59191 2.55556 5.70893C2.55556 4.82596 3.13056 4.10352 3.83333 4.10352C4.53611 4.10352 5.11111 4.82596 5.11111 5.70893C5.11111 6.59191 4.53611 7.31435 3.83333 7.31435ZM19.1667 26.5793C18.4639 26.5793 17.8889 25.8568 17.8889 24.9739C17.8889 24.0909 18.4639 23.3685 19.1667 23.3685C19.8694 23.3685 20.4444 24.0909 20.4444 24.9739C20.4444 25.8568 19.8694 26.5793 19.1667 26.5793Z" fill="#F04E29"/>
</svg>
