<svg width="39" height="44" viewBox="0 0 39 44" fill="none" xmlns="http://www.w3.org/2000/svg">
<path fill-rule="evenodd" clip-rule="evenodd" d="M19.1131 5.95834C19.8606 5.96934 20.7218 6.36717 21.1866 7.304L21.4693 7.876C25.7496 16.483 29.2732 25.5419 31.9896 34.9232C32.3438 36.1515 31.7621 37.191 31.0324 37.6732C30.6475 37.9257 30.2081 38.053 29.763 38.041C29.3178 38.029 28.8843 37.8782 28.5104 37.6053L20.8274 32.032C19.9792 31.416 18.8271 31.4142 18.0324 31.9807L10.5038 37.345C10.1258 37.6109 9.6898 37.7534 9.2443 37.7567C8.79881 37.7599 8.36124 37.6238 7.98019 37.3633C7.28632 36.8958 6.66557 35.882 6.98894 34.6463C9.42713 25.3683 12.6973 16.3948 16.7487 7.865L17.0152 7.30034C17.4767 6.32684 18.3672 5.94917 19.1114 5.962L19.1131 5.95834ZM19.1017 8.73217L18.8986 9.15934C15.015 17.3375 11.8632 25.9319 9.48982 34.815L16.7292 29.6578C18.3542 28.5028 20.5268 28.545 22.1469 29.7202L29.4529 35.0222C26.8153 26.0792 23.4298 17.4396 19.3422 9.21984L19.1017 8.73217Z" fill="white"/>
</svg>
