<svg width="13" height="13" viewBox="0 0 13 13" fill="none" xmlns="http://www.w3.org/2000/svg">
<path d="M6.5 0C4.77609 0 3.12279 0.68482 1.90381 1.90381C0.68482 3.12279 0 4.77609 0 6.5C0 8.22391 0.68482 9.87721 1.90381 11.0962C3.12279 12.3152 4.77609 13 6.5 13C8.22391 13 9.87721 12.3152 11.0962 11.0962C12.3152 9.87721 13 8.22391 13 6.5C13 4.77609 12.3152 3.12279 11.0962 1.90381C9.87721 0.68482 8.22391 0 6.5 0ZM8.99889 8.63056C8.99889 9.69222 8.42111 11.0139 6.06667 12.025C6.28333 9.01333 4.24667 9.36 3.75556 8.41389C3.80028 8.02248 3.94281 7.64863 4.17 7.32678C4.39718 7.00493 4.70172 6.74544 5.05556 6.57222C3.93479 6.37999 2.88956 5.87987 2.03667 5.12778C2.07278 5.46722 2.23817 5.78067 2.49889 6.00167C1.93405 5.78876 1.446 5.4114 1.09778 4.91833C1.44212 3.78184 2.13079 2.78029 3.06871 2.05194C4.00662 1.3236 5.14753 0.9044 6.33389 0.852222C5.72722 1.84889 5.25056 3.835 6.33389 4.875C5.22167 5.05556 4.52111 3.61111 3.90722 4.18167C3.09111 4.94722 4.14556 5.99444 6.37722 6.40611C8.75333 6.83222 9.02056 7.54722 8.99889 8.63056ZM9.96667 5.74167C9.73556 4.94 10.4144 4.13111 11.1872 3.47389C11.6698 4.16955 11.977 4.9716 12.0827 5.81165C12.1883 6.65171 12.0892 7.50485 11.7939 8.29833C11.2378 6.93333 10.2267 6.62278 9.96667 5.72V5.74167Z" fill="#F04E29"/>
</svg>
