<svg width="14" height="16" viewBox="0 0 14 16" fill="none" xmlns="http://www.w3.org/2000/svg">
<path fill-rule="evenodd" clip-rule="evenodd" d="M6.99967 0.5C5.89461 0.5 4.8348 0.938987 4.0534 1.72039C3.27199 2.50179 2.83301 3.5616 2.83301 4.66667C2.83301 5.77174 3.27199 6.83154 4.0534 7.61294C4.10836 7.66791 4.16471 7.72119 4.22235 7.77273C3.50858 8.09981 2.85148 8.55343 2.28563 9.11929C1.03539 10.3695 0.333008 12.0652 0.333008 13.8333V14.6667C0.333008 15.1269 0.706104 15.5 1.16634 15.5C1.62658 15.5 1.99967 15.1269 1.99967 14.6667V13.8333C1.99967 12.5073 2.52646 11.2355 3.46414 10.2978C4.40182 9.36012 5.67359 8.83333 6.99967 8.83333C8.32576 8.83333 9.59753 9.36012 10.5352 10.2978C11.4729 11.2355 11.9997 12.5073 11.9997 13.8333V14.6667C11.9997 15.1269 12.3728 15.5 12.833 15.5C13.2932 15.5 13.6663 15.1269 13.6663 14.6667V13.8333C13.6663 12.0652 12.964 10.3695 11.7137 9.11929C11.1479 8.55343 10.4908 8.09981 9.777 7.77273C9.83464 7.72119 9.89098 7.66791 9.94595 7.61294C10.7274 6.83154 11.1663 5.77174 11.1663 4.66667C11.1663 3.5616 10.7274 2.50179 9.94595 1.72039C9.16455 0.938987 8.10474 0.5 6.99967 0.5ZM5.23191 2.8989C5.70075 2.43006 6.33663 2.16667 6.99967 2.16667C7.66271 2.16667 8.2986 2.43006 8.76744 2.8989C9.23628 3.36774 9.49967 4.00363 9.49967 4.66667C9.49967 5.32971 9.23628 5.96559 8.76744 6.43443C8.2986 6.90327 7.66271 7.16667 6.99967 7.16667C6.33663 7.16667 5.70075 6.90327 5.23191 6.43443C4.76307 5.96559 4.49967 5.32971 4.49967 4.66667C4.49967 4.00363 4.76307 3.36774 5.23191 2.8989Z" fill="#F04E29"/>
</svg>
