<svg width="26" height="26" viewBox="0 0 26 26" fill="none" xmlns="http://www.w3.org/2000/svg">
<path fill-rule="evenodd" clip-rule="evenodd" d="M13.1673 22C18.2303 22 22.2926 18.0325 22.2926 13.0405C22.2926 8.047 18.2303 4 13.1673 4C8.10428 4 4.04199 8.047 4.04199 13.0405C4.04199 18.0325 8.10428 22 13.1673 22Z" stroke="#F04E29" stroke-linecap="round" stroke-linejoin="round"/>
<path d="M13.1669 18.25C16.1067 18.25 18.49 15.8995 18.49 13C18.49 10.1005 16.1067 7.75 13.1669 7.75C10.227 7.75 7.84375 10.1005 7.84375 13C7.84375 15.8995 10.227 18.25 13.1669 18.25Z" fill="#F04E29"/>
<path d="M1 13H4.04177M22.2924 13H25.3342M13.1671 1V4M13.1671 22V25" stroke="#F04E29" stroke-linecap="round" stroke-linejoin="round"/>
</svg>
