<svg width="18" height="19" viewBox="0 0 18 19" fill="none" xmlns="http://www.w3.org/2000/svg">
<path d="M9 0.258301C6.61305 0.258301 4.32387 1.20764 2.63604 2.89746C0.948212 4.58729 0 6.87919 0 9.26896C0 11.6587 0.948212 13.9506 2.63604 15.6405C4.32387 17.3303 6.61305 18.2796 9 18.2796C11.3869 18.2796 13.6761 17.3303 15.364 15.6405C17.0518 13.9506 18 11.6587 18 9.26896C18 6.87919 17.0518 4.58729 15.364 2.89746C13.6761 1.20764 11.3869 0.258301 9 0.258301ZM12.46 12.2225C12.46 13.6942 11.66 15.5264 8.4 16.928C8.7 12.7531 5.88 13.2337 5.2 11.9221C5.26193 11.3795 5.45927 10.8613 5.77384 10.4151C6.08841 9.96893 6.51008 9.60921 7 9.36908C5.44817 9.10259 4.00093 8.40931 2.82 7.36671C2.87 7.83727 3.099 8.27178 3.46 8.57815C2.67791 8.283 2.00216 7.75989 1.52 7.07637C1.99677 5.5009 2.95032 4.11249 4.24898 3.10282C5.54763 2.09315 7.12735 1.51203 8.77 1.4397C7.93 2.82133 7.27 5.57459 8.77 7.0163C7.23 7.26659 6.26 5.26423 5.41 6.05516C4.28 7.11642 5.74 8.56813 8.83 9.13881C12.12 9.72951 12.49 10.7207 12.46 12.2225ZM13.8 8.21772C13.48 7.1064 14.42 5.98508 15.49 5.074C16.1582 6.03836 16.5836 7.15021 16.7299 8.31474C16.8761 9.47927 16.7389 10.6619 16.33 11.7619C15.56 9.86967 14.16 9.43917 13.8 8.18768V8.21772Z" fill="#F04E29"/>
</svg>
